<?xml version="1.0" standalone="no"?>
<!DOCTYPE svg PUBLIC "-//W3C//DTD SVG 1.1//EN" "http://www.w3.org/Graphics/SVG/1.1/DTD/svg11.dtd" >
<svg xmlns="http://www.w3.org/2000/svg" xmlns:xlink="http://www.w3.org/1999/xlink" version="1.1">
<metadata>
Created by FontForge 20161116 at Mon Feb 23 16:19:08 2009
 By Jimmy Wärting
Copyright (c) 2008 - 2009 Linotype GmbH, www.linotype.com. All rights reserved. This font software may not be reproduced, modified, disclosed or transferred without the express written approval of Linotype GmbH.
</metadata>
<defs>
<font id="DINNextLTPro-Condensed" horiz-adv-x="386" >
  <font-face 
    font-family="DIN Next LT Pro"
    font-weight="400"
    font-stretch="condensed"
    units-per-em="1000"
    panose-1="2 11 5 6 2 2 3 5 2 3"
    ascent="750"
    descent="-250"
    x-height="479"
    cap-height="680"
    bbox="-82.617 -210 835 903"
    underline-thickness="50"
    underline-position="-100"
    stemh="72"
    stemv="77"
    unicode-range="U+0020-FB04"
  />
<missing-glyph horiz-adv-x="376" 
d="M0 10v660c0 6 4 10 10 10h356c6 0 10 -4 10 -10v-660c0 -6 -4 -10 -10 -10h-356c-6 0 -10 4 -10 10zM48 52c0 -4 2 -6 6 -6h267c4 0 6 2 6 6v576c0 4 -2 6 -6 6h-267c-4 0 -6 -2 -6 -6v-576zM171 222c-6 0 -10 4 -10 10v47c0 16 4 29 12 45l35 67c13 25 19 38 19 67
c0 15 -1 24 -4 32c-5 16 -18 24 -36 24s-31 -8 -36 -24c-3 -8 -4 -16 -4 -44c0 -6 -5 -10 -11 -9l-32 4c-6 1 -9 5 -9 11c0 31 3 44 6 53c11 35 43 58 87 58c43 0 75 -23 86 -58c3 -9 6 -23 6 -45c0 -35 -6 -52 -21 -80l-35 -67c-6 -13 -10 -23 -10 -37v-44
c0 -6 -4 -10 -10 -10h-33zM159 124v49c0 6 4 10 10 10h38c6 0 10 -4 10 -10v-49c0 -6 -4 -10 -10 -10h-38c-6 0 -10 4 -10 10z" />
    <glyph glyph-name="napostrophe" unicode="&#x22;n" horiz-adv-x="393" 
d="M12 524c-6 0 -9 3 -9 9v137c0 6 4 10 10 10h52c6 0 10 -4 10 -10v-50c0 -11 -1 -15 -6 -23l-45 -66c-3 -5 -7 -7 -12 -7zM329 0h-57c-6 0 -10 4 -10 10v319c0 57 -20 87 -63 87c-40 0 -64 -28 -64 -87v-319c0 -6 -4 -10 -10 -10h-57c-6 0 -10 4 -10 10v459
c0 6 4 10 10 10h57c6 0 10 -4 10 -10v-38h1c15 32 44 57 91 57c74 0 112 -46 112 -147v-331c0 -6 -4 -10 -10 -10z" />
    <glyph glyph-name="IJ" unicode="IJ" horiz-adv-x="542" 
d="M60 10v660c0 6 4 10 10 10h61c6 0 10 -4 10 -10v-660c0 -6 -4 -10 -10 -10h-61c-6 0 -10 4 -10 10zM225 32c-4 5 -4 10 1 14l40 39c4 4 10 5 16 0c13 -11 29 -18 47 -18c46 0 73 25 73 88v515c0 6 4 10 10 10h61c6 0 10 -4 10 -10v-509c0 -117 -62 -170 -155 -170
c-43 0 -81 15 -103 41z" />
    <glyph glyph-name="ij" unicode="ij" 
d="M128 588h-63c-6 0 -10 4 -10 10v72c0 6 4 10 10 10h63c6 0 10 -4 10 -10v-72c0 -6 -4 -10 -10 -10zM125 0h-57c-6 0 -10 4 -10 10v459c0 6 4 10 10 10h57c6 0 10 -4 10 -10v-459c0 -6 -4 -10 -10 -10zM321 588h-63c-6 0 -10 4 -10 10v72c0 6 4 10 10 10h63
c6 0 10 -4 10 -10v-72c0 -6 -4 -10 -10 -10zM213 -180h-12c-6 0 -10 4 -10 10v52c0 6 4 10 10 10h11c27 2 39 14 39 50v527c0 6 4 10 10 10h57c6 0 10 -4 10 -10v-529c0 -81 -36 -120 -115 -120z" />
    <glyph glyph-name="fi" unicode="fi" horiz-adv-x="437" 
d="M371 588h-63c-6 0 -10 4 -10 10v72c0 6 4 10 10 10h63c6 0 10 -4 10 -10v-72c0 -6 -4 -10 -10 -10zM368 0h-57c-6 0 -10 4 -10 10v459c0 6 4 10 10 10h57c6 0 10 -4 10 -10v-459c0 -6 -4 -10 -10 -10zM141 0h-57c-6 0 -10 4 -10 10v402c0 4 -2 6 -6 6h-29
c-6 0 -10 4 -10 10v41c0 6 4 10 10 10h29c4 0 6 2 6 6v63c0 83 35 132 125 132h18c6 0 10 -4 10 -10v-53c0 -6 -4 -10 -10 -10h-23c-31 0 -43 -12 -43 -45v-77c0 -4 2 -6 6 -6h60c6 0 10 -4 10 -10v-41c0 -6 -4 -10 -10 -10h-60c-4 0 -6 -2 -6 -6v-402c0 -6 -4 -10 -10 -10z
" />
    <glyph glyph-name="fl" unicode="fl" horiz-adv-x="465" 
d="M425 -5l-5 1c-88 3 -119 39 -119 131v543c0 6 4 10 10 10h57c6 0 10 -4 10 -10v-546c0 -34 12 -50 42 -55l5 -1c6 -1 10 -5 10 -11v-52c0 -6 -4 -10 -10 -10zM141 0h-57c-6 0 -10 4 -10 10v402c0 4 -2 6 -6 6h-29c-6 0 -10 4 -10 10v41c0 6 4 10 10 10h29c4 0 6 2 6 6v63
c0 83 35 132 125 132h18c6 0 10 -4 10 -10v-53c0 -6 -4 -10 -10 -10h-23c-31 0 -43 -12 -43 -45v-77c0 -4 2 -6 6 -6h60c6 0 10 -4 10 -10v-41c0 -6 -4 -10 -10 -10h-60c-4 0 -6 -2 -6 -6v-402c0 -6 -4 -10 -10 -10z" />
    <glyph glyph-name="f_f" unicode="ff" horiz-adv-x="488" 
d="M141 0h-57c-6 0 -10 4 -10 10v402c0 4 -2 6 -6 6h-29c-6 0 -10 4 -10 10v41c0 6 4 10 10 10h29c4 0 6 2 6 6v63c0 83 35 132 125 132h18c6 0 10 -4 10 -10v-53c0 -6 -4 -10 -10 -10h-23c-31 0 -43 -12 -43 -45v-77c0 -4 2 -6 6 -6h60c6 0 10 -4 10 -10v-41
c0 -6 -4 -10 -10 -10h-60c-4 0 -6 -2 -6 -6v-402c0 -6 -4 -10 -10 -10zM384 0h-57c-6 0 -10 4 -10 10v402c0 4 -2 6 -6 6h-29c-6 0 -10 4 -10 10v41c0 6 4 10 10 10h29c4 0 6 2 6 6v63c0 83 35 132 125 132h18c6 0 10 -4 10 -10v-53c0 -6 -4 -10 -10 -10h-23
c-31 0 -43 -12 -43 -45v-77c0 -4 2 -6 6 -6h60c6 0 10 -4 10 -10v-41c0 -6 -4 -10 -10 -10h-60c-4 0 -6 -2 -6 -6v-402c0 -6 -4 -10 -10 -10z" />
    <glyph glyph-name="f_f_i" unicode="ffi" horiz-adv-x="681" 
d="M615 588h-63c-6 0 -10 4 -10 10v72c0 6 4 10 10 10h63c6 0 10 -4 10 -10v-72c0 -6 -4 -10 -10 -10zM612 0h-57c-6 0 -10 4 -10 10v459c0 6 4 10 10 10h57c6 0 10 -4 10 -10v-459c0 -6 -4 -10 -10 -10zM141 0h-57c-6 0 -10 4 -10 10v402c0 4 -2 6 -6 6h-29
c-6 0 -10 4 -10 10v41c0 6 4 10 10 10h29c4 0 6 2 6 6v63c0 83 35 132 125 132h18c6 0 10 -4 10 -10v-53c0 -6 -4 -10 -10 -10h-23c-31 0 -43 -12 -43 -45v-77c0 -4 2 -6 6 -6h60c6 0 10 -4 10 -10v-41c0 -6 -4 -10 -10 -10h-60c-4 0 -6 -2 -6 -6v-402c0 -6 -4 -10 -10 -10z
M384 0h-57c-6 0 -10 4 -10 10v402c0 4 -2 6 -6 6h-29c-6 0 -10 4 -10 10v41c0 6 4 10 10 10h29c4 0 6 2 6 6v63c0 83 35 132 125 132h18c6 0 10 -4 10 -10v-53c0 -6 -4 -10 -10 -10h-23c-31 0 -43 -12 -43 -45v-77c0 -4 2 -6 6 -6h60c6 0 10 -4 10 -10v-41
c0 -6 -4 -10 -10 -10h-60c-4 0 -6 -2 -6 -6v-402c0 -6 -4 -10 -10 -10z" />
    <glyph glyph-name="f_f_l" unicode="ffl" horiz-adv-x="709" 
d="M669 -5l-5 1c-88 3 -119 39 -119 131v543c0 6 4 10 10 10h57c6 0 10 -4 10 -10v-546c0 -34 12 -50 42 -55l5 -1c6 -1 10 -5 10 -11v-52c0 -6 -4 -10 -10 -10zM141 0h-57c-6 0 -10 4 -10 10v402c0 4 -2 6 -6 6h-29c-6 0 -10 4 -10 10v41c0 6 4 10 10 10h29c4 0 6 2 6 6v63
c0 83 35 132 125 132h18c6 0 10 -4 10 -10v-53c0 -6 -4 -10 -10 -10h-23c-31 0 -43 -12 -43 -45v-77c0 -4 2 -6 6 -6h60c6 0 10 -4 10 -10v-41c0 -6 -4 -10 -10 -10h-60c-4 0 -6 -2 -6 -6v-402c0 -6 -4 -10 -10 -10zM384 0h-57c-6 0 -10 4 -10 10v402c0 4 -2 6 -6 6h-29
c-6 0 -10 4 -10 10v41c0 6 4 10 10 10h29c4 0 6 2 6 6v63c0 83 35 132 125 132h18c6 0 10 -4 10 -10v-53c0 -6 -4 -10 -10 -10h-23c-31 0 -43 -12 -43 -45v-77c0 -4 2 -6 6 -6h60c6 0 10 -4 10 -10v-41c0 -6 -4 -10 -10 -10h-60c-4 0 -6 -2 -6 -6v-402c0 -6 -4 -10 -10 -10z
" />
    <glyph glyph-name=".notdef" horiz-adv-x="376" 
d="M0 10v660c0 6 4 10 10 10h356c6 0 10 -4 10 -10v-660c0 -6 -4 -10 -10 -10h-356c-6 0 -10 4 -10 10zM48 52c0 -4 2 -6 6 -6h267c4 0 6 2 6 6v576c0 4 -2 6 -6 6h-267c-4 0 -6 -2 -6 -6v-576zM171 222c-6 0 -10 4 -10 10v47c0 16 4 29 12 45l35 67c13 25 19 38 19 67
c0 15 -1 24 -4 32c-5 16 -18 24 -36 24s-31 -8 -36 -24c-3 -8 -4 -16 -4 -44c0 -6 -5 -10 -11 -9l-32 4c-6 1 -9 5 -9 11c0 31 3 44 6 53c11 35 43 58 87 58c43 0 75 -23 86 -58c3 -9 6 -23 6 -45c0 -35 -6 -52 -21 -80l-35 -67c-6 -13 -10 -23 -10 -37v-44
c0 -6 -4 -10 -10 -10h-33zM159 124v49c0 6 4 10 10 10h38c6 0 10 -4 10 -10v-49c0 -6 -4 -10 -10 -10h-38c-6 0 -10 4 -10 10z" />
    <glyph glyph-name=".null" horiz-adv-x="500" 
 />
    <glyph glyph-name="CR" horiz-adv-x="0" 
 />
    <glyph glyph-name="space" unicode=" " horiz-adv-x="190" 
 />
    <glyph glyph-name="exclam" unicode="!" horiz-adv-x="227" 
d="M97 170c-6 0 -10 4 -10 10l-16 490c0 6 4 10 10 10h65c6 0 10 -4 10 -10l-16 -490c0 -6 -4 -10 -10 -10h-33zM71 10v84c0 6 4 10 10 10h65c6 0 10 -4 10 -10v-84c0 -6 -4 -10 -10 -10h-65c-6 0 -10 4 -10 10z" />
    <glyph glyph-name="quotedbl" unicode="&#x22;" horiz-adv-x="254" 
d="M163 506c-6 0 -10 4 -10 10v154c0 6 4 10 10 10h40c6 0 10 -4 10 -10v-154c0 -6 -4 -10 -10 -10h-40zM51 506c-6 0 -10 4 -10 10v154c0 6 4 10 10 10h39c6 0 10 -4 10 -10v-154c0 -6 -4 -10 -10 -10h-39z" />
    <glyph glyph-name="numbersign" unicode="#" horiz-adv-x="512" 
d="M101 10l22 213h-53c-6 0 -10 4 -10 10v38c0 6 4 10 10 10h59l15 141h-56c-6 0 -10 4 -10 10v37c0 6 4 10 10 10h62l20 191c1 6 4 10 11 10h39c7 0 10 -4 9 -10l-20 -191h115l20 191c1 6 4 10 11 10h39c7 0 10 -4 9 -10l-20 -191h59c6 0 10 -4 10 -10v-37
c0 -6 -4 -10 -10 -10h-65l-15 -141h61c6 0 10 -4 10 -10v-38c0 -6 -4 -10 -10 -10h-67l-22 -213c-1 -6 -4 -10 -11 -10h-39c-7 0 -10 4 -9 10l22 213h-115l-22 -213c-1 -6 -4 -10 -11 -10h-39c-7 0 -10 4 -9 10zM188 281h115l15 141h-115z" />
    <glyph glyph-name="dollar" unicode="$" 
d="M42 162c0 6 2 10 8 11l52 9c8 1 11 -3 11 -9c2 -74 22 -102 63 -108v254l-19 8c-84 33 -108 79 -108 184c0 110 40 171 127 177v41c0 6 4 10 10 10h15c6 0 10 -4 10 -10v-41c83 -8 118 -62 124 -157c1 -7 -2 -10 -8 -11l-51 -8c-6 -1 -10 2 -11 8c-4 59 -18 87 -54 94
v-223l19 -7c82 -32 110 -78 110 -193c0 -134 -41 -192 -129 -199v-59c0 -6 -4 -10 -10 -10h-15c-6 0 -10 4 -10 10v59c-91 6 -130 62 -134 170zM176 405v209c-38 -6 -53 -35 -53 -99c0 -63 11 -90 53 -110zM211 65c37 5 55 33 55 117c0 72 -14 103 -55 123v-240z" />
    <glyph glyph-name="percent" unicode="%" horiz-adv-x="649" 
d="M172 1l246 678c3 7 7 10 13 10h38c6 0 9 -4 7 -10l-245 -678c-3 -7 -7 -10 -13 -10h-39c-6 0 -9 4 -7 10zM154 329c-46 0 -75 22 -87 58c-6 19 -7 32 -7 121c0 88 1 101 7 120c12 36 41 58 87 58c45 0 75 -22 86 -58c6 -19 7 -32 7 -120c0 -89 -1 -102 -7 -121
c-11 -36 -41 -58 -86 -58zM154 381c17 0 28 8 32 22c3 7 4 18 4 105c0 86 -1 97 -4 104c-4 14 -15 22 -32 22c-18 0 -28 -8 -33 -22c-2 -7 -4 -18 -4 -104c0 -87 2 -98 4 -105c5 -14 15 -22 33 -22zM408 52c-6 19 -7 32 -7 120c0 89 1 102 7 121c12 36 42 58 87 58
s75 -22 86 -58c7 -19 8 -32 8 -121c0 -88 -1 -101 -8 -120c-11 -36 -41 -58 -86 -58s-75 22 -87 58zM462 68c5 -14 16 -22 33 -22s28 8 32 22c3 7 4 18 4 104c0 87 -1 98 -4 105c-4 14 -15 22 -32 22s-28 -8 -33 -22c-2 -7 -4 -18 -4 -105c0 -86 2 -97 4 -104z" />
    <glyph glyph-name="ampersand" unicode="&#x26;" horiz-adv-x="533" 
d="M66 139c0 67 40 129 124 228l-14 24c-41 71 -62 117 -62 164c0 82 55 134 132 134s133 -52 133 -134c0 -53 -24 -103 -103 -195l87 -151l46 80c3 6 7 8 13 4l39 -22c5 -3 6 -8 3 -14l-63 -113l28 -48c12 -22 19 -26 31 -26h4c6 0 10 -4 10 -10v-50c0 -6 -4 -10 -10 -10
h-22c-32 0 -45 9 -62 39l-21 36c-41 -57 -87 -84 -149 -84c-91 0 -144 59 -144 148zM239 424c55 65 69 94 69 133c0 44 -24 69 -61 69s-61 -25 -61 -69c0 -24 9 -55 53 -133zM138 141c0 -52 30 -81 76 -81c38 0 69 18 108 78l-95 165c-63 -73 -89 -115 -89 -162z" />
    <glyph glyph-name="quotesingle" unicode="'" horiz-adv-x="141" 
d="M51 506c-6 0 -10 4 -10 10v154c0 6 4 10 10 10h39c6 0 10 -4 10 -10v-154c0 -6 -4 -10 -10 -10h-39z" />
    <glyph glyph-name="parenleft" unicode="(" horiz-adv-x="255" 
d="M157 -74c-57 120 -89 266 -89 402s32 282 89 402c2 6 7 10 13 10h34c6 0 9 -4 7 -10c-42 -124 -65 -269 -65 -402s23 -278 65 -402c2 -6 -1 -10 -7 -10h-34c-6 0 -11 4 -13 10z" />
    <glyph glyph-name="parenright" unicode=")" horiz-adv-x="255" 
d="M44 -74c42 124 66 269 66 402s-24 278 -66 402c-2 6 1 10 7 10h35c6 0 10 -4 13 -10c57 -120 88 -266 88 -402s-31 -282 -88 -402c-3 -6 -7 -10 -13 -10h-35c-6 0 -9 4 -7 10z" />
    <glyph glyph-name="asterisk" unicode="*" horiz-adv-x="326" 
d="M149 396c-6 0 -10 4 -10 10v91l-65 -39c-5 -3 -10 -2 -13 3l-14 26c-3 5 -2 11 3 14l65 37l-65 37c-5 3 -6 9 -3 14l14 26c3 5 8 6 13 3l65 -39v91c0 6 4 10 10 10h28c6 0 10 -4 10 -10l-1 -91l66 39c5 3 10 2 13 -3l15 -26c3 -5 2 -11 -3 -14l-67 -37l67 -37
c5 -3 6 -9 3 -14l-15 -26c-3 -5 -8 -6 -13 -3l-66 39l1 -91c0 -6 -4 -10 -10 -10h-28z" />
    <glyph glyph-name="plus" unicode="+" 
d="M157 130v105c0 4 -2 6 -6 6h-103c-6 0 -10 4 -10 10v50c0 6 4 10 10 10h103c4 0 6 2 6 6v105c0 6 4 10 10 10h52c6 0 10 -4 10 -10v-105c0 -4 2 -6 6 -6h103c6 0 10 -4 10 -10v-50c0 -6 -4 -10 -10 -10h-103c-4 0 -6 -2 -6 -6v-105c0 -6 -4 -10 -10 -10h-52
c-6 0 -10 4 -10 10z" />
    <glyph glyph-name="comma" unicode="," horiz-adv-x="179" 
d="M50 -93v187c0 6 4 10 10 10h59c6 0 10 -4 10 -10v-75c0 -12 -1 -18 -6 -26l-54 -88c-3 -5 -6 -7 -11 -7c-6 0 -8 4 -8 9z" />
    <glyph glyph-name="hyphen" unicode="-" horiz-adv-x="335" 
d="M51 230c-6 0 -10 4 -10 10v52c0 6 4 10 10 10h232c6 0 10 -4 10 -10v-52c0 -6 -4 -10 -10 -10h-232z" />
    <glyph glyph-name="period" unicode="." horiz-adv-x="185" 
d="M50 10v84c0 6 4 10 10 10h65c6 0 10 -4 10 -10v-84c0 -6 -4 -10 -10 -10h-65c-6 0 -10 4 -10 10z" />
    <glyph glyph-name="slash" unicode="/" horiz-adv-x="234" 
d="M25 1l124 678c1 6 5 10 11 10h41c6 0 10 -4 9 -10l-125 -678c-1 -7 -5 -10 -11 -10h-40c-6 0 -10 4 -9 10z" />
    <glyph glyph-name="zero" unicode="0" 
d="M61 80c-7 22 -11 47 -11 260s4 238 11 260c19 59 66 89 132 89s113 -30 132 -89c7 -22 10 -47 10 -260s-3 -238 -10 -260c-19 -59 -66 -89 -132 -89s-113 30 -132 89zM134 104c9 -26 28 -40 59 -40c30 0 50 14 58 40c5 14 7 33 7 236s-2 222 -7 236c-8 26 -28 40 -58 40
c-31 0 -50 -14 -59 -40c-4 -14 -6 -33 -6 -236s2 -222 6 -236z" />
    <glyph glyph-name="one" unicode="1" 
d="M178 10v577h-1l-86 -65c-5 -4 -11 -2 -11 7v62c0 6 2 10 9 16l87 67c6 4 10 6 17 6h53c6 0 10 -4 10 -10v-660c0 -6 -4 -10 -10 -10h-58c-6 0 -10 4 -10 10z" />
    <glyph glyph-name="two" unicode="2" 
d="M52 10v51c0 7 1 11 5 18l170 320c20 37 29 67 29 122c0 33 -1 44 -5 55c-9 26 -29 40 -60 40s-50 -14 -59 -40c-4 -11 -5 -22 -5 -70c0 -7 -5 -11 -12 -10l-54 6c-6 1 -9 5 -9 12c0 46 2 66 8 85c19 57 63 90 132 90c70 0 113 -32 132 -89c6 -19 9 -40 9 -79
c0 -72 -14 -110 -41 -161l-156 -287v-1h187c6 0 10 -4 10 -10v-52c0 -6 -4 -10 -10 -10h-261c-6 0 -10 4 -10 10z" />
    <glyph glyph-name="three" unicode="3" 
d="M59 81c-6 19 -9 40 -9 80c0 7 3 11 10 12l54 5c7 1 12 -2 12 -9c0 -43 1 -54 5 -65c9 -26 28 -40 59 -40s50 13 59 40c4 11 5 23 5 87c0 67 -1 78 -5 88c-9 27 -30 39 -63 39h-16c-6 0 -10 4 -10 10v51c0 6 4 10 10 10h16c33 0 54 12 63 38c4 11 5 21 5 77
c0 49 -1 61 -5 72c-9 27 -28 40 -59 40s-50 -14 -59 -40c-4 -11 -5 -22 -5 -65c0 -7 -5 -10 -12 -9l-54 5c-7 1 -10 5 -10 12c0 41 3 61 9 80c19 57 63 90 132 90c70 0 113 -32 132 -89c6 -19 8 -41 8 -96s-2 -71 -7 -88c-9 -27 -25 -44 -51 -59v-2c26 -15 42 -33 51 -60
c5 -16 7 -33 7 -104c0 -70 -2 -92 -8 -111c-19 -57 -63 -89 -132 -89s-113 33 -132 90z" />
    <glyph glyph-name="four" unicode="4" 
d="M37 112c-6 0 -10 4 -10 10v51c0 4 1 9 2 12l140 487c2 6 5 8 12 8h58c6 0 9 -4 7 -11l-139 -483v-2h110c4 0 6 2 6 6v190c0 6 4 10 10 10h57c6 0 10 -4 10 -10v-190c0 -4 1 -6 5 -6h46c6 0 10 -4 10 -10v-52c0 -6 -4 -10 -10 -10h-45c-4 0 -6 -2 -6 -6v-96
c0 -6 -4 -10 -10 -10h-57c-6 0 -10 4 -10 10v96c0 4 -2 6 -6 6h-180z" />
    <glyph glyph-name="five" unicode="5" 
d="M62 81c-6 19 -8 40 -8 72c0 7 3 11 9 12l54 5c7 1 12 -2 12 -9c0 -35 1 -46 5 -57c9 -26 28 -40 59 -40s50 13 58 39c4 11 6 24 6 113s-2 101 -6 112c-8 26 -28 40 -58 40s-46 -14 -57 -34c-4 -7 -7 -9 -15 -9h-49c-6 0 -10 4 -10 10v335c0 6 4 10 10 10h253
c6 0 10 -4 10 -10v-52c0 -6 -4 -10 -10 -10h-186c-4 0 -6 -2 -6 -6v-193h1c16 18 44 31 77 31c60 0 96 -27 113 -78c7 -21 10 -42 10 -146c0 -95 -4 -117 -10 -136c-18 -57 -61 -89 -130 -89s-113 33 -132 90z" />
    <glyph glyph-name="six" unicode="6" 
d="M60 82c-6 19 -8 39 -8 113c0 99 7 130 32 194l109 282c2 6 6 9 12 9h60c7 0 9 -4 6 -11l-107 -279l1 -2c7 6 24 10 43 10c63 0 99 -32 117 -87c6 -19 9 -43 9 -116c0 -74 -2 -94 -8 -113c-19 -57 -64 -91 -133 -91s-114 34 -133 91zM134 104c9 -26 29 -40 59 -40
s50 14 59 40c4 11 5 22 5 91c0 68 -1 79 -5 90c-9 27 -29 41 -59 41s-50 -14 -59 -41c-4 -11 -5 -22 -5 -90c0 -69 1 -80 5 -91z" />
    <glyph glyph-name="seven" unicode="7" 
d="M86 12l176 594v2h-134c-4 0 -6 -2 -6 -6v-75c0 -6 -4 -10 -10 -10h-52c-6 0 -10 4 -10 10v143c0 6 4 10 10 10h270c6 0 10 -4 10 -10v-53c0 -5 -1 -9 -2 -13l-174 -594c-2 -7 -5 -10 -13 -10h-59c-6 0 -8 4 -6 12z" />
    <glyph glyph-name="eight" unicode="8" 
d="M61 82c-6 19 -9 38 -9 110c0 63 2 81 9 101c9 28 26 49 47 62v2c-22 14 -38 35 -47 62c-7 20 -9 39 -9 85c0 56 3 75 9 94c19 57 63 91 132 91s114 -34 133 -91c6 -19 8 -38 8 -94c0 -46 -2 -65 -8 -85c-9 -27 -25 -48 -47 -62v-2c21 -13 38 -34 47 -62
c7 -20 8 -38 8 -101c0 -72 -2 -91 -8 -110c-19 -57 -64 -91 -133 -91s-113 34 -132 91zM193 392c30 0 50 15 59 41c4 11 5 22 5 71c0 50 -1 61 -5 72c-9 26 -29 40 -59 40s-50 -14 -59 -40c-4 -11 -5 -22 -5 -72c0 -49 1 -60 5 -71c9 -26 29 -41 59 -41zM134 104
c9 -26 29 -40 59 -40s50 14 59 40c4 11 5 21 5 88c0 66 -1 76 -5 87c-9 27 -29 41 -59 41s-50 -14 -59 -41c-4 -11 -5 -21 -5 -87c0 -67 1 -77 5 -88z" />
    <glyph glyph-name="nine" unicode="9" 
d="M115 11l107 279l-1 2c-7 -6 -24 -10 -43 -10c-63 0 -99 32 -117 87c-6 19 -9 43 -9 116c0 74 2 94 8 113c19 57 64 91 133 91s114 -34 133 -91c6 -19 8 -39 8 -113c0 -99 -7 -130 -32 -194l-109 -282c-2 -6 -6 -9 -12 -9h-60c-7 0 -9 4 -6 11zM193 354c30 0 50 14 59 41
c4 11 5 22 5 90c0 69 -1 80 -5 91c-9 26 -29 40 -59 40s-50 -14 -59 -40c-4 -11 -5 -22 -5 -91c0 -68 1 -79 5 -90c9 -27 29 -41 59 -41z" />
    <glyph glyph-name="colon" unicode=":" horiz-adv-x="198" 
d="M66 376c-6 0 -10 4 -10 10v83c0 6 4 10 10 10h66c6 0 10 -4 10 -10v-83c0 -6 -4 -10 -10 -10h-66zM56 10v84c0 6 4 10 10 10h66c6 0 10 -4 10 -10v-84c0 -6 -4 -10 -10 -10h-66c-6 0 -10 4 -10 10z" />
    <glyph glyph-name="semicolon" unicode=";" horiz-adv-x="198" 
d="M66 376c-6 0 -10 4 -10 10v83c0 6 4 10 10 10h66c6 0 10 -4 10 -10v-83c0 -6 -4 -10 -10 -10h-66zM59 -92v186c0 6 4 10 10 10h60c6 0 10 -4 10 -10v-73c0 -12 -2 -18 -7 -27l-54 -88c-3 -5 -6 -7 -11 -7s-8 4 -8 9z" />
    <glyph glyph-name="less" unicode="&#x3c;" 
d="M48 240c-6 3 -10 8 -10 15v42c0 7 4 12 10 15l290 118c6 2 10 0 10 -6v-55c0 -6 -2 -10 -10 -13l-202 -79v-2l202 -79c8 -3 10 -7 10 -13v-55c0 -6 -4 -8 -10 -6z" />
    <glyph glyph-name="equal" unicode="=" 
d="M48 329c-6 0 -10 4 -10 10v49c0 6 4 10 10 10h290c6 0 10 -4 10 -10v-49c0 -6 -4 -10 -10 -10h-290zM48 154c-6 0 -10 4 -10 10v49c0 6 4 10 10 10h290c6 0 10 -4 10 -10v-49c0 -6 -4 -10 -10 -10h-290z" />
    <glyph glyph-name="greater" unicode="&#x3e;" 
d="M48 122c-5 -2 -10 0 -10 6v55c0 6 3 10 10 13l203 79v2l-203 79c-7 3 -10 7 -10 13v55c0 6 5 8 10 6l290 -118c7 -3 10 -8 10 -15v-42c0 -7 -3 -12 -10 -15z" />
    <glyph glyph-name="question" unicode="?" horiz-adv-x="360" 
d="M142 170c-6 0 -10 4 -10 10v73c0 25 5 45 18 69l55 103c18 35 26 59 26 106c0 21 -1 34 -5 45c-9 27 -26 40 -57 40c-30 0 -48 -12 -57 -40c-4 -11 -6 -23 -6 -70c0 -7 -5 -11 -11 -10l-55 6c-6 1 -9 5 -9 12c0 50 3 68 9 86c18 55 66 89 130 89c68 0 112 -35 130 -89
c5 -17 9 -38 9 -69c0 -51 -8 -80 -30 -121l-55 -105c-10 -19 -15 -34 -15 -55v-70c0 -6 -4 -10 -10 -10h-57zM128 10v84c0 6 4 10 10 10h65c6 0 10 -4 10 -10v-84c0 -6 -4 -10 -10 -10h-65c-6 0 -10 4 -10 10z" />
    <glyph glyph-name="at" unicode="@" horiz-adv-x="673" 
d="M59 70c-12 37 -18 76 -18 198s6 162 18 199c40 122 144 193 277 193c134 0 238 -71 278 -193c12 -37 18 -77 18 -199c0 -90 -3 -111 -9 -131c-18 -55 -59 -78 -109 -78c-47 0 -85 21 -102 63h-1c-17 -44 -43 -63 -93 -63c-49 0 -80 22 -94 66c-6 19 -9 42 -9 138
s3 119 9 138c14 44 45 66 92 66c37 0 61 -17 74 -42h2v25c0 6 4 10 10 10h46c6 0 10 -4 10 -10v-265c0 -47 23 -68 56 -68c26 0 44 13 52 36c4 12 5 21 5 115c0 123 -5 154 -15 184c-30 96 -112 150 -220 150c-107 0 -189 -54 -219 -150c-10 -30 -15 -61 -15 -184
c0 -122 6 -154 15 -183c32 -95 112 -151 219 -151c65 0 113 15 155 44c4 3 10 4 14 -2l20 -29c3 -5 2 -11 -3 -14c-52 -36 -112 -56 -186 -56c-133 0 -237 71 -277 193zM285 156c8 -23 26 -35 51 -35c26 0 44 12 52 35c4 12 5 24 5 107s-1 95 -5 107c-8 23 -26 35 -52 35
c-25 0 -43 -12 -51 -35c-4 -12 -5 -24 -5 -107s1 -95 5 -107z" />
    <glyph glyph-name="A" unicode="A" horiz-adv-x="406" 
d="M18 10l145 660c2 6 5 10 11 10h60c6 0 10 -4 11 -10l143 -660c1 -6 -3 -10 -9 -10h-60c-7 0 -10 4 -11 10l-30 149h-151l-30 -149c-1 -6 -4 -10 -10 -10h-60c-6 0 -10 4 -9 10zM141 229h123l-58 296h-3z" />
    <glyph glyph-name="B" unicode="B" horiz-adv-x="410" 
d="M60 10v660c0 6 4 10 10 10h129c118 0 169 -51 169 -175c0 -85 -29 -127 -79 -149v-2c51 -16 86 -62 86 -159c0 -146 -59 -195 -186 -195h-119c-6 0 -10 4 -10 10zM147 386h48c64 0 91 24 91 109c0 87 -24 110 -93 110h-46c-4 0 -6 -2 -6 -6v-207c0 -4 2 -6 6 -6zM141 81
c0 -4 2 -6 6 -6h45c74 0 101 27 101 121c0 91 -29 119 -98 119h-48c-4 0 -6 -2 -6 -6v-228z" />
    <glyph glyph-name="C" unicode="C" horiz-adv-x="381" 
d="M61 91c-9 28 -12 56 -12 249s3 221 12 249c21 64 69 100 146 100c89 0 143 -48 152 -152c1 -7 -2 -11 -8 -12l-57 -11c-6 -1 -11 2 -11 8c-5 61 -28 91 -75 91c-36 0 -58 -15 -68 -47c-6 -19 -9 -38 -9 -226s3 -207 9 -226c10 -32 32 -47 68 -47c47 0 70 30 75 91
c0 6 5 9 11 8l57 -11c6 -1 9 -5 8 -12c-9 -104 -63 -152 -152 -152c-77 0 -125 36 -146 100z" />
    <glyph glyph-name="D" unicode="D" horiz-adv-x="433" 
d="M60 10v660c0 6 4 10 10 10h141c86 0 135 -36 157 -106c12 -37 16 -82 16 -234s-4 -197 -16 -234c-22 -70 -71 -106 -157 -106h-141c-6 0 -10 4 -10 10zM141 81c0 -4 2 -6 6 -6h56c46 0 72 18 86 58c9 28 13 65 13 207s-4 179 -13 207c-14 40 -40 58 -86 58h-56
c-4 0 -6 -2 -6 -6v-518z" />
    <glyph glyph-name="E" unicode="E" horiz-adv-x="367" 
d="M60 10v660c0 6 4 10 10 10h257c6 0 10 -4 10 -10v-55c0 -6 -4 -10 -10 -10h-180c-4 0 -6 -2 -6 -6v-212c0 -4 2 -6 6 -6h156c6 0 10 -4 10 -10v-55c0 -6 -4 -10 -10 -10h-156c-4 0 -6 -2 -6 -6v-219c0 -4 2 -6 6 -6h180c6 0 10 -4 10 -10v-55c0 -6 -4 -10 -10 -10h-257
c-6 0 -10 4 -10 10z" />
    <glyph glyph-name="F" unicode="F" horiz-adv-x="364" 
d="M60 10v660c0 6 4 10 10 10h257c6 0 10 -4 10 -10v-55c0 -6 -4 -10 -10 -10h-180c-4 0 -6 -2 -6 -6v-216c0 -4 2 -6 6 -6h156c6 0 10 -4 10 -10v-55c0 -6 -4 -10 -10 -10h-156c-4 0 -6 -2 -6 -6v-286c0 -6 -4 -10 -10 -10h-61c-6 0 -10 4 -10 10z" />
    <glyph glyph-name="G" unicode="G" horiz-adv-x="417" 
d="M62 92c-10 30 -13 55 -13 248s3 218 13 248c21 65 72 101 149 101c94 0 147 -53 158 -148c1 -6 -1 -11 -7 -12l-56 -11c-7 -1 -11 2 -12 8c-7 56 -33 87 -82 87c-36 0 -62 -17 -72 -48c-7 -20 -9 -35 -9 -225s2 -205 9 -225c10 -31 37 -48 73 -48s63 17 73 48
c6 19 9 35 9 174c0 4 -2 6 -6 6h-67c-6 0 -10 4 -10 10v53c0 6 4 10 10 10h141c6 0 10 -4 10 -10v-29c0 -182 -3 -207 -13 -237c-20 -65 -72 -101 -149 -101s-128 36 -149 101z" />
    <glyph glyph-name="H" unicode="H" horiz-adv-x="440" 
d="M60 10v660c0 6 4 10 10 10h61c6 0 10 -4 10 -10v-278c0 -4 2 -6 6 -6h146c4 0 6 2 6 6v278c0 6 4 10 10 10h61c6 0 10 -4 10 -10v-660c0 -6 -4 -10 -10 -10h-61c-6 0 -10 4 -10 10v295c0 4 -2 6 -6 6h-146c-4 0 -6 -2 -6 -6v-295c0 -6 -4 -10 -10 -10h-61
c-6 0 -10 4 -10 10z" />
    <glyph glyph-name="I" unicode="I" horiz-adv-x="201" 
d="M60 10v660c0 6 4 10 10 10h61c6 0 10 -4 10 -10v-660c0 -6 -4 -10 -10 -10h-61c-6 0 -10 4 -10 10z" />
    <glyph glyph-name="J" unicode="J" horiz-adv-x="342" 
d="M25 32c-4 5 -4 10 1 14l40 39c4 4 10 5 16 0c13 -11 29 -18 47 -18c46 0 73 25 73 88v515c0 6 4 10 10 10h61c6 0 10 -4 10 -10v-509c0 -117 -62 -170 -155 -170c-43 0 -81 15 -103 41z" />
    <glyph glyph-name="K" unicode="K" horiz-adv-x="424" 
d="M60 10v660c0 6 4 10 10 10h61c6 0 10 -4 10 -10v-312l155 314c3 6 6 8 13 8h65c6 0 8 -5 6 -9l-135 -263l156 -398c2 -6 -1 -10 -6 -10h-66c-6 0 -9 2 -11 7l-122 316l-55 -112v-201c0 -6 -4 -10 -10 -10h-61c-6 0 -10 4 -10 10z" />
    <glyph glyph-name="L" unicode="L" horiz-adv-x="358" 
d="M60 10v660c0 6 4 10 10 10h61c6 0 10 -4 10 -10v-589c0 -4 2 -6 6 -6h178c6 0 10 -4 10 -10v-55c0 -6 -4 -10 -10 -10h-255c-6 0 -10 4 -10 10z" />
    <glyph glyph-name="M" unicode="M" horiz-adv-x="541" 
d="M60 10v660c0 6 4 10 10 10h62c8 0 12 -3 14 -10l124 -416h4l121 416c2 7 7 10 15 10h61c6 0 10 -4 10 -10v-660c0 -6 -4 -10 -10 -10h-54c-6 0 -10 4 -10 10v471h-5l-103 -350c-2 -6 -6 -10 -12 -10h-33c-7 0 -10 4 -12 10l-103 350h-5v-471c0 -6 -4 -10 -10 -10h-54
c-6 0 -10 4 -10 10z" />
    <glyph glyph-name="N" unicode="N" horiz-adv-x="449" 
d="M60 10v660c0 6 4 10 10 10h75c8 0 13 -3 15 -10l152 -510h4v510c0 6 4 10 10 10h53c6 0 10 -4 10 -10v-660c0 -6 -4 -10 -10 -10h-71c-8 0 -13 3 -15 10l-155 510h-5v-510c0 -6 -4 -10 -10 -10h-53c-6 0 -10 4 -10 10z" />
    <glyph glyph-name="O" unicode="O" horiz-adv-x="422" 
d="M211 -9c-77 0 -128 36 -149 101c-10 30 -13 55 -13 248s3 218 13 248c21 65 72 101 149 101s129 -36 149 -101c10 -30 13 -55 13 -248s-3 -218 -13 -248c-20 -65 -72 -101 -149 -101zM211 67c36 0 62 17 72 48c6 20 8 35 8 225s-2 205 -8 225c-10 31 -36 48 -72 48
s-61 -17 -71 -48c-7 -20 -9 -35 -9 -225s2 -205 9 -225c10 -31 35 -48 71 -48z" />
    <glyph glyph-name="P" unicode="P" horiz-adv-x="407" 
d="M131 0h-61c-6 0 -10 4 -10 10v660c0 6 4 10 10 10h119c120 0 184 -54 184 -204c0 -147 -65 -204 -184 -204h-42c-4 0 -6 -2 -6 -6v-256c0 -6 -4 -10 -10 -10zM189 347c74 0 103 32 103 129c0 96 -29 129 -103 129h-42c-4 0 -6 -2 -6 -6v-246c0 -4 2 -6 6 -6h42z" />
    <glyph glyph-name="Q" unicode="Q" horiz-adv-x="422" 
d="M407 24l-32 -38c-4 -5 -10 -5 -14 -1l-46 41c-27 -23 -61 -35 -104 -35c-77 0 -128 36 -149 101c-10 30 -13 55 -13 248s3 218 13 248c21 65 72 101 149 101s129 -36 149 -101c10 -30 13 -55 13 -248c0 -206 -6 -222 -20 -259l52 -43c5 -4 5 -10 2 -14zM211 66
c24 0 38 4 50 11l-53 46c-5 5 -5 10 -1 15l27 32c4 5 9 5 14 1l40 -37c3 25 4 80 4 206c0 190 -2 205 -9 225c-10 31 -36 48 -72 48s-62 -17 -72 -48c-7 -20 -9 -35 -9 -225s2 -205 9 -226c10 -31 36 -48 72 -48z" />
    <glyph glyph-name="R" unicode="R" horiz-adv-x="421" 
d="M380 0h-68c-6 0 -9 2 -11 7l-85 284c-9 -1 -19 -1 -28 -1h-41c-4 0 -6 -2 -6 -6v-274c0 -6 -4 -10 -10 -10h-61c-6 0 -10 4 -10 10v660c0 6 4 10 10 10h119c120 0 184 -52 184 -196c0 -91 -30 -146 -83 -173l95 -301c2 -5 0 -10 -5 -10zM190 363c70 0 102 28 102 121
c0 92 -30 121 -102 121h-43c-4 0 -6 -2 -6 -6v-230c0 -4 2 -6 6 -6h43z" />
    <glyph glyph-name="S" unicode="S" horiz-adv-x="392" 
d="M354 192c0 -137 -43 -201 -158 -201c-103 0 -155 58 -160 175c0 6 2 10 8 11l59 11c7 1 11 -3 11 -9c4 -84 31 -114 83 -114s76 25 76 117c0 78 -15 107 -69 128l-41 16c-93 36 -119 82 -119 187c0 116 50 176 152 176s149 -56 154 -162c0 -6 -3 -10 -9 -11l-56 -9
c-6 -2 -11 2 -11 8c-2 67 -24 100 -76 100c-50 0 -74 -30 -74 -99c0 -70 16 -94 71 -115l41 -16c87 -35 118 -80 118 -193z" />
    <glyph glyph-name="T" unicode="T" horiz-adv-x="369" 
d="M215 0h-61c-6 0 -10 4 -10 10v589c0 4 -2 6 -6 6h-112c-6 0 -10 4 -10 10v55c0 6 4 10 10 10h317c6 0 10 -4 10 -10v-55c0 -6 -4 -10 -10 -10h-112c-4 0 -6 -2 -6 -6v-589c0 -6 -4 -10 -10 -10z" />
    <glyph glyph-name="U" unicode="U" horiz-adv-x="436" 
d="M218 -9c-97 0 -159 59 -159 176v503c0 6 4 10 10 10h61c6 0 10 -4 10 -10v-513c0 -59 30 -90 78 -90s78 31 78 90v513c0 6 4 10 10 10h61c6 0 10 -4 10 -10v-503c0 -117 -62 -176 -159 -176z" />
    <glyph glyph-name="V" unicode="V" horiz-adv-x="389" 
d="M222 0h-55c-6 0 -9 4 -10 10l-135 660c-1 6 1 10 8 10h62c6 0 9 -3 10 -10l93 -500h3l90 500c1 7 5 10 11 10h60c7 0 9 -4 8 -10l-135 -660c-1 -6 -4 -10 -10 -10z" />
    <glyph glyph-name="W" unicode="W" horiz-adv-x="576" 
d="M433 0h-54c-6 0 -9 4 -10 10l-79 484h-2l-82 -484c-1 -6 -4 -10 -10 -10h-53c-6 0 -9 4 -10 10l-108 660c-1 6 1 10 8 10h61c6 0 10 -3 11 -10l66 -488h2l83 488c1 7 4 10 10 10h44c6 0 9 -3 10 -10l83 -488h2l68 488c1 7 5 10 11 10h59c7 0 9 -4 8 -10l-108 -660
c-1 -6 -4 -10 -10 -10z" />
    <glyph glyph-name="X" unicode="X" horiz-adv-x="392" 
d="M363 0h-63c-6 0 -10 4 -12 10l-91 243h-1l-92 -243c-2 -6 -5 -10 -11 -10h-64c-6 0 -9 4 -7 10l133 344l-121 316c-2 6 1 10 7 10h62c6 0 10 -4 12 -10l81 -219h1l80 219c2 6 6 10 12 10h63c6 0 9 -4 7 -10l-122 -316l133 -344c2 -6 -1 -10 -7 -10z" />
    <glyph glyph-name="Y" unicode="Y" horiz-adv-x="375" 
d="M218 0h-61c-6 0 -10 4 -10 10v271l-131 389c-2 6 0 10 7 10h63c7 0 10 -3 12 -10l89 -285h3l89 285c2 7 5 10 11 10h62c7 0 9 -4 7 -10l-131 -389v-271c0 -6 -4 -10 -10 -10z" />
    <glyph glyph-name="Z" unicode="Z" horiz-adv-x="362" 
d="M318 0h-273c-6 0 -10 4 -10 10v52c0 5 1 9 2 12l206 529v2h-188c-6 0 -10 4 -10 10v55c0 6 4 10 10 10h263c6 0 10 -4 10 -10v-53c0 -5 -1 -9 -2 -12l-206 -528v-2h198c6 0 10 -4 10 -10v-55c0 -6 -4 -10 -10 -10z" />
    <glyph glyph-name="bracketleft" unicode="[" horiz-adv-x="243" 
d="M193 -84h-115c-6 0 -10 4 -10 10v804c0 6 4 10 10 10h115c6 0 10 -4 10 -10v-45c0 -6 -4 -10 -10 -10h-47c-4 0 -6 -2 -6 -6v-682c0 -4 2 -6 6 -6h47c6 0 10 -4 10 -10v-45c0 -6 -4 -10 -10 -10z" />
    <glyph glyph-name="backslash" unicode="\" horiz-adv-x="234" 
d="M201 -9h-41c-6 0 -10 3 -11 10l-124 678c-1 6 3 10 9 10h40c6 0 10 -4 11 -10l125 -678c1 -6 -3 -10 -9 -10z" />
    <glyph glyph-name="bracketright" unicode="]" horiz-adv-x="243" 
d="M165 -84h-115c-6 0 -10 4 -10 10v45c0 6 4 10 10 10h48c4 0 6 2 6 6v682c0 4 -2 6 -6 6h-48c-6 0 -10 4 -10 10v45c0 6 4 10 10 10h115c6 0 10 -4 10 -10v-804c0 -6 -4 -10 -10 -10z" />
    <glyph glyph-name="asciicircum" unicode="^" 
d="M344 272h-52c-6 0 -10 3 -13 10l-84 287h-2l-85 -287c-2 -7 -7 -10 -13 -10h-52c-6 0 -9 4 -7 10l122 388c2 6 7 10 14 10h43c7 0 12 -4 14 -10l122 -388c2 -6 -1 -10 -7 -10z" />
    <glyph glyph-name="underscore" unicode="_" horiz-adv-x="389" 
d="M389 -124h-389v48h389v-48z" />
    <glyph glyph-name="grave" unicode="`" horiz-adv-x="390" 
d="M264 557h-40c-8 0 -11 2 -17 10l-87 123c-3 5 -1 10 5 10h59c8 0 12 -3 16 -10l69 -123c3 -6 1 -10 -5 -10z" />
    <glyph glyph-name="a" unicode="a" horiz-adv-x="371" 
d="M308 0h-54c-6 0 -10 4 -10 10v41h-1c-13 -37 -47 -60 -90 -60c-57 0 -113 35 -113 142c0 108 61 148 141 148h57c4 0 6 2 6 6v39c0 64 -19 91 -71 91c-35 0 -58 -14 -81 -32c-6 -4 -13 -3 -16 4l-19 39c-3 6 -3 11 2 16c28 26 72 44 123 44c96 0 136 -44 136 -158v-320
c0 -6 -4 -10 -10 -10zM174 57c41 0 70 35 70 87v66c0 4 -2 6 -6 6h-45c-57 0 -79 -28 -79 -81c0 -52 22 -78 60 -78z" />
    <glyph glyph-name="b" unicode="b" horiz-adv-x="389" 
d="M227 -9c-52 0 -78 26 -91 58h-1v-39c0 -6 -4 -10 -10 -10h-57c-6 0 -10 4 -10 10v660c0 6 4 10 10 10h57c6 0 10 -4 10 -10v-240h1c13 33 39 58 91 58s87 -25 104 -78c9 -27 12 -52 12 -170s-3 -143 -12 -171c-17 -53 -52 -78 -104 -78zM201 63c30 0 49 15 58 42
c5 17 7 30 7 135c0 104 -2 117 -7 134c-9 27 -28 42 -58 42s-50 -16 -59 -42c-5 -17 -7 -30 -7 -134c0 -105 2 -118 7 -135c9 -26 29 -42 59 -42z" />
    <glyph glyph-name="c" unicode="c" horiz-adv-x="347" 
d="M184 -9c-66 0 -109 31 -128 89c-9 28 -11 45 -11 160s2 131 11 159c19 58 62 89 128 89c76 0 127 -47 134 -123c0 -6 -1 -9 -7 -11l-54 -10c-6 -2 -11 1 -12 8c-7 45 -28 64 -61 64c-27 0 -47 -12 -56 -39c-6 -18 -6 -29 -6 -137s0 -120 6 -138c9 -27 29 -39 56 -39
c33 0 54 19 61 64c1 7 6 10 12 8l54 -10c6 -2 7 -5 7 -11c-7 -76 -58 -123 -134 -123z" />
    <glyph glyph-name="d" unicode="d" horiz-adv-x="389" 
d="M321 0h-57c-6 0 -10 4 -10 10v39h-1c-13 -32 -39 -58 -91 -58s-87 25 -104 78c-9 28 -12 53 -12 171s3 143 12 170c17 53 52 78 104 78s78 -25 91 -58h1v240c0 6 4 10 10 10h57c6 0 10 -4 10 -10v-660c0 -6 -4 -10 -10 -10zM189 63c29 0 49 16 58 42c5 17 7 30 7 135
c0 104 -2 117 -7 134c-9 26 -29 42 -58 42c-30 0 -50 -15 -59 -42c-5 -17 -7 -30 -7 -134c0 -105 2 -118 7 -135c9 -27 29 -42 59 -42z" />
    <glyph glyph-name="e" unicode="e" horiz-adv-x="368" 
d="M184 -9c-66 0 -109 32 -128 90c-7 22 -11 47 -11 159c0 111 4 136 11 159c19 57 63 89 130 89s110 -32 129 -89c7 -22 11 -48 11 -173c0 -6 -4 -10 -10 -10h-188c-4 0 -6 -2 -6 -6c0 -77 3 -93 7 -106c10 -27 28 -41 56 -41c34 0 54 17 64 54c2 7 6 9 12 8l53 -11
c6 -1 8 -6 7 -12c-13 -69 -64 -111 -137 -111zM243 281c4 0 6 2 6 6c0 62 -3 78 -7 91c-8 25 -28 40 -56 40c-29 0 -49 -15 -57 -40c-4 -13 -7 -29 -7 -91c0 -4 2 -6 6 -6h115z" />
    <glyph glyph-name="f" unicode="f" horiz-adv-x="244" 
d="M141 0h-57c-6 0 -10 4 -10 10v402c0 4 -2 6 -6 6h-29c-6 0 -10 4 -10 10v41c0 6 4 10 10 10h29c4 0 6 2 6 6v63c0 83 35 132 125 132h18c6 0 10 -4 10 -10v-53c0 -6 -4 -10 -10 -10h-23c-31 0 -43 -12 -43 -45v-77c0 -4 2 -6 6 -6h60c6 0 10 -4 10 -10v-41
c0 -6 -4 -10 -10 -10h-60c-4 0 -6 -2 -6 -6v-402c0 -6 -4 -10 -10 -10z" />
    <glyph glyph-name="g" unicode="g" horiz-adv-x="387" 
d="M186 -189c-66 0 -116 37 -131 90c-1 5 0 10 5 12l53 19c6 2 10 1 13 -5c11 -28 33 -43 62 -43c39 0 64 23 64 73v103h-1c-12 -33 -38 -58 -89 -58c-55 0 -88 26 -104 78c-8 26 -12 54 -12 164s4 139 12 164c16 52 49 80 104 80c51 0 77 -26 89 -59h1v40c0 6 4 10 10 10
h57c6 0 10 -4 10 -10v-504c0 -101 -56 -154 -143 -154zM188 73c29 0 48 15 57 42c5 15 7 30 7 129s-2 115 -7 130c-9 26 -28 42 -57 42c-31 0 -49 -15 -58 -42c-4 -15 -7 -31 -7 -130s3 -114 7 -129c9 -27 27 -42 58 -42z" />
    <glyph glyph-name="h" unicode="h" horiz-adv-x="393" 
d="M329 0h-57c-6 0 -10 4 -10 10v319c0 57 -20 87 -63 87c-40 0 -64 -28 -64 -87v-319c0 -6 -4 -10 -10 -10h-57c-6 0 -10 4 -10 10v660c0 6 4 10 10 10h57c6 0 10 -4 10 -10v-239h1c15 32 44 57 91 57c74 0 112 -46 112 -147v-331c0 -6 -4 -10 -10 -10z" />
    <glyph glyph-name="i" unicode="i" horiz-adv-x="193" 
d="M128 588h-63c-6 0 -10 4 -10 10v72c0 6 4 10 10 10h63c6 0 10 -4 10 -10v-72c0 -6 -4 -10 -10 -10zM125 0h-57c-6 0 -10 4 -10 10v459c0 6 4 10 10 10h57c6 0 10 -4 10 -10v-459c0 -6 -4 -10 -10 -10z" />
    <glyph glyph-name="j" unicode="j" horiz-adv-x="193" 
d="M128 588h-63c-6 0 -10 4 -10 10v72c0 6 4 10 10 10h63c6 0 10 -4 10 -10v-72c0 -6 -4 -10 -10 -10zM20 -180h-12c-6 0 -10 4 -10 10v52c0 6 4 10 10 10h11c27 2 39 14 39 50v527c0 6 4 10 10 10h57c6 0 10 -4 10 -10v-529c0 -81 -36 -120 -115 -120z" />
    <glyph glyph-name="k" unicode="k" horiz-adv-x="375" 
d="M348 0h-60c-7 0 -11 3 -14 10l-90 214l-49 -87v-127c0 -6 -4 -10 -10 -10h-57c-6 0 -10 4 -10 10v660c0 6 4 10 10 10h57c6 0 10 -4 10 -10v-415l119 214c4 7 7 10 14 10h60c6 0 9 -4 6 -10l-105 -175l126 -284c2 -6 -1 -10 -7 -10z" />
    <glyph glyph-name="l" unicode="l" horiz-adv-x="221" 
d="M182 -5l-5 1c-88 3 -119 39 -119 131v543c0 6 4 10 10 10h57c6 0 10 -4 10 -10v-546c0 -34 12 -50 42 -55l5 -1c6 -1 10 -5 10 -11v-52c0 -6 -4 -10 -10 -10z" />
    <glyph glyph-name="m" unicode="m" horiz-adv-x="597" 
d="M533 0h-57c-6 0 -10 4 -10 10v319c0 58 -21 87 -64 87c-39 0 -63 -28 -63 -85v-321c0 -6 -4 -10 -10 -10h-57c-6 0 -10 4 -10 10v319c0 57 -20 87 -63 87c-40 0 -64 -28 -64 -87v-319c0 -6 -4 -10 -10 -10h-57c-6 0 -10 4 -10 10v459c0 6 4 10 10 10h57c6 0 10 -4 10 -10
v-38h1c15 32 44 57 91 57s80 -18 96 -57h1c18 35 51 57 100 57c79 0 119 -47 119 -147v-331c0 -6 -4 -10 -10 -10z" />
    <glyph glyph-name="n" unicode="n" horiz-adv-x="393" 
d="M329 0h-57c-6 0 -10 4 -10 10v319c0 57 -20 87 -63 87c-40 0 -64 -28 -64 -87v-319c0 -6 -4 -10 -10 -10h-57c-6 0 -10 4 -10 10v459c0 6 4 10 10 10h57c6 0 10 -4 10 -10v-38h1c15 32 44 57 91 57c74 0 112 -46 112 -147v-331c0 -6 -4 -10 -10 -10z" />
    <glyph glyph-name="o" unicode="o" horiz-adv-x="374" 
d="M187 -9c-66 0 -113 33 -132 92c-8 26 -10 48 -10 157s2 131 10 157c19 58 66 91 132 91s113 -33 132 -91c8 -26 10 -48 10 -157s-2 -131 -10 -157c-19 -59 -66 -92 -132 -92zM187 63c30 0 50 15 59 42c5 17 6 30 6 135c0 104 -1 117 -6 134c-9 27 -29 42 -59 42
s-50 -15 -59 -42c-5 -17 -6 -30 -6 -134c0 -105 1 -118 6 -135c9 -27 29 -42 59 -42z" />
    <glyph glyph-name="p" unicode="p" horiz-adv-x="389" 
d="M125 -180h-57c-6 0 -10 4 -10 10v639c0 6 4 10 10 10h57c6 0 10 -4 10 -10v-39h1c13 33 39 58 91 58s87 -25 104 -78c9 -27 12 -52 12 -170s-3 -143 -12 -171c-17 -53 -52 -78 -104 -78s-78 26 -91 58h-1v-219c0 -6 -4 -10 -10 -10zM201 63c30 0 49 15 58 42
c5 17 7 30 7 135c0 104 -2 117 -7 134c-9 27 -28 42 -58 42s-50 -16 -59 -42c-5 -17 -7 -30 -7 -134c0 -105 2 -118 7 -135c9 -26 29 -42 59 -42z" />
    <glyph glyph-name="q" unicode="q" horiz-adv-x="389" 
d="M321 -180h-57c-6 0 -10 4 -10 10v219h-1c-13 -32 -39 -58 -91 -58s-87 25 -104 78c-9 28 -12 53 -12 171s3 143 12 170c17 53 52 78 104 78s78 -25 91 -58h1v39c0 6 4 10 10 10h57c6 0 10 -4 10 -10v-639c0 -6 -4 -10 -10 -10zM189 63c29 0 49 16 58 42c5 17 7 30 7 135
c0 104 -2 117 -7 134c-9 26 -29 42 -58 42c-30 0 -50 -15 -59 -42c-5 -17 -7 -30 -7 -134c0 -105 2 -118 7 -135c9 -27 29 -42 59 -42z" />
    <glyph glyph-name="r" unicode="r" horiz-adv-x="273" 
d="M125 0h-57c-6 0 -10 4 -10 10v459c0 6 4 10 10 10h57c6 0 10 -4 10 -10v-45h1c16 37 47 64 96 64c6 0 15 -1 19 -2c6 -1 8 -5 6 -11l-14 -57c-2 -7 -6 -9 -12 -9h-15c-47 0 -81 -33 -81 -103v-296c0 -6 -4 -10 -10 -10z" />
    <glyph glyph-name="s" unicode="s" horiz-adv-x="343" 
d="M172 -9c-80 0 -130 44 -138 122c-1 6 2 11 8 12l51 10c6 1 11 -2 12 -8c6 -49 33 -69 68 -69c39 0 63 23 63 69c0 38 -13 59 -55 76l-40 15c-62 24 -99 66 -99 135c0 78 50 135 131 135c79 0 121 -50 128 -107c1 -7 -2 -12 -7 -13l-48 -10c-6 -1 -10 2 -12 8
c-9 35 -24 56 -61 56c-38 0 -57 -25 -57 -64c0 -29 12 -52 55 -69l40 -15c74 -28 98 -72 98 -142c0 -83 -49 -141 -137 -141z" />
    <glyph glyph-name="t" unicode="t" horiz-adv-x="243" 
d="M203 -5h-25c-73 0 -105 33 -105 114v303c0 4 -2 6 -6 6h-29c-6 0 -10 4 -10 10v41c0 6 4 10 10 10h29c4 0 6 2 6 6v135c0 6 4 10 10 10h57c6 0 10 -4 10 -10v-135c0 -4 2 -6 6 -6h47c6 0 10 -4 10 -10v-41c0 -6 -4 -10 -10 -10h-47c-4 0 -6 -2 -6 -6v-302
c0 -28 12 -42 40 -42h13c6 0 10 -4 10 -10v-53c0 -6 -4 -10 -10 -10z" />
    <glyph glyph-name="u" unicode="u" horiz-adv-x="390" 
d="M322 0h-57c-6 0 -10 4 -10 10v38h-1c-14 -32 -42 -57 -90 -57c-73 0 -110 46 -110 148v330c0 6 4 10 10 10h57c6 0 10 -4 10 -10v-319c0 -57 19 -87 62 -87c39 0 62 29 62 87v319c0 6 4 10 10 10h57c6 0 10 -4 10 -10v-459c0 -6 -4 -10 -10 -10z" />
    <glyph glyph-name="v" unicode="v" horiz-adv-x="350" 
d="M199 0h-49c-6 0 -9 3 -11 10l-116 459c-2 6 1 10 7 10h60c6 0 9 -4 10 -10l75 -328h2l74 328c1 6 4 10 11 10h57c6 0 9 -4 8 -10l-116 -459c-2 -7 -5 -10 -12 -10z" />
    <glyph glyph-name="w" unicode="w" horiz-adv-x="526" 
d="M384 0h-49c-6 0 -10 3 -11 10l-61 314h-2l-59 -314c-1 -7 -4 -10 -11 -10h-49c-7 0 -10 3 -11 10l-104 459c-2 6 1 10 7 10h60c6 0 9 -4 10 -10l63 -326h1l64 326c1 6 4 10 11 10h42c6 0 9 -4 10 -10l63 -326h1l63 326c1 6 4 10 11 10h59c6 0 9 -4 7 -10l-104 -459
c-1 -7 -4 -10 -11 -10z" />
    <glyph glyph-name="x" unicode="x" horiz-adv-x="354" 
d="M325 0h-60c-7 0 -10 2 -13 9l-75 163h-1l-74 -163c-3 -7 -6 -9 -13 -9h-60c-6 0 -8 5 -5 11l114 237l-106 221c-3 6 -1 10 5 10h60c7 0 10 -2 13 -8l69 -148h1l66 148c3 6 6 8 13 8h59c6 0 8 -4 5 -10l-107 -221l114 -237c3 -6 1 -11 -5 -11z" />
    <glyph glyph-name="y" unicode="y" horiz-adv-x="355" 
d="M73 -180h-11c-6 0 -10 4 -10 10v53c0 6 4 10 10 10l12 1c28 1 42 13 52 55l17 66l-117 454c-1 6 2 10 8 10h60c6 0 9 -4 10 -10l74 -327h2l74 327c1 6 4 10 11 10h58c6 0 9 -4 7 -10l-131 -517c-27 -108 -57 -132 -126 -132z" />
    <glyph glyph-name="z" unicode="z" horiz-adv-x="327" 
d="M284 0h-238c-6 0 -10 4 -10 10v49c0 5 1 8 3 12l167 337v2h-150c-6 0 -10 4 -10 10v49c0 6 4 10 10 10h228c6 0 10 -4 10 -10v-41c0 -4 -1 -8 -3 -12l-170 -343v-2h163c6 0 10 -4 10 -10v-51c0 -6 -4 -10 -10 -10z" />
    <glyph glyph-name="braceleft" unicode="{" horiz-adv-x="292" 
d="M242 -84h-21c-70 0 -105 37 -105 112v198c0 48 -15 70 -55 72c-6 1 -10 4 -10 10v45c0 6 4 10 10 10c40 3 55 25 55 73v193c0 74 35 111 105 111h21c6 0 10 -4 10 -10v-45c0 -6 -4 -10 -10 -10h-10c-30 0 -44 -17 -44 -51v-170c0 -75 -9 -104 -51 -122v-3
c42 -18 51 -47 51 -122v-175c0 -34 14 -51 44 -51h10c6 0 10 -4 10 -10v-45c0 -6 -4 -10 -10 -10z" />
    <glyph glyph-name="bar" unicode="|" horiz-adv-x="236" 
d="M139 -84h-43c-6 0 -10 4 -10 10v804c0 6 4 10 10 10h43c6 0 10 -4 10 -10v-804c0 -6 -4 -10 -10 -10z" />
    <glyph glyph-name="braceright" unicode="}" horiz-adv-x="292" 
d="M72 -84h-22c-6 0 -10 4 -10 10v45c0 6 4 10 10 10h10c31 0 45 17 45 51v175c0 75 8 104 51 122v3c-43 18 -51 47 -51 122v170c0 34 -14 51 -45 51h-10c-6 0 -10 4 -10 10v45c0 6 4 10 10 10h22c69 0 105 -37 105 -111v-193c0 -48 14 -70 54 -73c6 0 10 -4 10 -10v-45
c0 -6 -4 -9 -10 -10c-40 -2 -54 -24 -54 -72v-198c0 -75 -36 -112 -105 -112z" />
    <glyph glyph-name="asciitilde" unicode="~" 
d="M254 221c-27 0 -47 11 -68 25s-35 22 -50 22c-22 0 -34 -11 -53 -42c-3 -5 -7 -6 -13 -3l-33 18c-5 3 -7 8 -4 15c25 49 55 75 99 75c27 0 46 -10 68 -25c19 -13 35 -22 50 -22c22 0 34 11 53 42c3 5 7 6 13 3l32 -18c6 -3 8 -8 4 -15c-24 -49 -54 -75 -98 -75z" />
    <glyph glyph-name="uni00A0" unicode="&#xa0;" horiz-adv-x="190" 
 />
    <glyph glyph-name="Agrave" unicode="&#xc0;" horiz-adv-x="406" 
d="M18 10l145 660c2 6 5 10 11 10h60c6 0 10 -4 11 -10l143 -660c1 -6 -3 -10 -9 -10h-60c-7 0 -10 4 -11 10l-30 149h-151l-30 -149c-1 -6 -4 -10 -10 -10h-60c-6 0 -10 4 -9 10zM141 229h123l-58 296h-3zM225 763h-39c-8 0 -12 2 -19 10l-93 105c-4 5 -1 10 5 10h58
c9 0 12 -3 17 -10l76 -105c4 -5 1 -10 -5 -10z" />
    <glyph glyph-name="Aacute" unicode="&#xc1;" horiz-adv-x="406" 
d="M18 10l145 660c2 6 5 10 11 10h60c6 0 10 -4 11 -10l143 -660c1 -6 -3 -10 -9 -10h-60c-7 0 -10 4 -11 10l-30 149h-151l-30 -149c-1 -6 -4 -10 -10 -10h-60c-6 0 -10 4 -9 10zM141 229h123l-58 296h-3zM223 763h-38c-6 0 -10 5 -6 10l77 105c5 7 8 10 16 10h58
c6 0 9 -5 5 -10l-93 -105c-7 -8 -11 -10 -19 -10z" />
    <glyph glyph-name="Acircumflex" unicode="&#xc2;" horiz-adv-x="406" 
d="M18 10l145 660c2 6 5 10 11 10h60c6 0 10 -4 11 -10l143 -660c1 -6 -3 -10 -9 -10h-60c-7 0 -10 4 -11 10l-30 149h-151l-30 -149c-1 -6 -4 -10 -10 -10h-60c-6 0 -10 4 -9 10zM141 229h123l-58 296h-3zM314 752h-42c-7 0 -12 3 -17 10l-52 71h-2l-52 -71
c-5 -7 -10 -10 -17 -10h-42c-6 0 -9 4 -5 10l82 123c4 7 9 10 17 10h36c8 0 13 -3 17 -10l82 -123c4 -6 1 -10 -5 -10z" />
    <glyph glyph-name="Atilde" unicode="&#xc3;" horiz-adv-x="406" 
d="M18 10l145 660c2 6 5 10 11 10h60c6 0 10 -4 11 -10l143 -660c1 -6 -3 -10 -9 -10h-60c-7 0 -10 4 -11 10l-30 149h-151l-30 -149c-1 -6 -4 -10 -10 -10h-60c-6 0 -10 4 -9 10zM141 229h123l-58 296h-3zM244 773c-20 0 -34 8 -49 19c-14 10 -23 16 -35 16
c-19 0 -30 -10 -44 -27c-5 -5 -12 -4 -12 3v47c0 6 2 11 9 18c12 13 27 24 48 24c20 0 33 -9 48 -19c15 -11 23 -17 36 -17c19 0 30 11 44 28c4 5 11 3 11 -4v-47c0 -6 -1 -10 -8 -17c-12 -14 -27 -24 -48 -24z" />
    <glyph glyph-name="Adieresis" unicode="&#xc4;" horiz-adv-x="406" 
d="M18 10l145 660c2 6 5 10 11 10h60c6 0 10 -4 11 -10l143 -660c1 -6 -3 -10 -9 -10h-60c-7 0 -10 4 -11 10l-30 149h-151l-30 -149c-1 -6 -4 -10 -10 -10h-60c-6 0 -10 4 -9 10zM141 229h123l-58 296h-3zM300 777h-51c-6 0 -10 4 -10 10v72c0 6 4 10 10 10h51
c6 0 10 -4 10 -10v-72c0 -6 -4 -10 -10 -10zM155 777h-51c-6 0 -10 4 -10 10v72c0 6 4 10 10 10h51c6 0 10 -4 10 -10v-72c0 -6 -4 -10 -10 -10z" />
    <glyph glyph-name="Amacron" unicode="&#x100;" horiz-adv-x="406" 
d="M18 10l145 660c2 6 5 10 11 10h60c6 0 10 -4 11 -10l143 -660c1 -6 -3 -10 -9 -10h-60c-7 0 -10 4 -11 10l-30 149h-151l-30 -149c-1 -6 -4 -10 -10 -10h-60c-6 0 -10 4 -9 10zM141 229h123l-58 296h-3zM299 790h-194c-6 0 -10 4 -10 10v43c0 6 4 10 10 10h194
c6 0 10 -4 10 -10v-43c0 -6 -4 -10 -10 -10z" />
    <glyph glyph-name="Abreve" unicode="&#x102;" horiz-adv-x="406" 
d="M18 10l145 660c2 6 5 10 11 10h60c6 0 10 -4 11 -10l143 -660c1 -6 -3 -10 -9 -10h-60c-7 0 -10 4 -11 10l-30 149h-151l-30 -149c-1 -6 -4 -10 -10 -10h-60c-6 0 -10 4 -9 10zM141 229h123l-58 296h-3zM202 753c-71 0 -108 48 -114 111c0 6 4 10 10 10h32
c6 0 9 -4 10 -10c10 -34 30 -55 62 -55s52 21 61 55c2 6 4 10 11 10h32c6 0 10 -4 10 -10c-6 -63 -43 -111 -114 -111z" />
    <glyph glyph-name="Aring" unicode="&#xc5;" horiz-adv-x="406" 
d="M18 10l145 660c2 6 5 10 11 10h60c6 0 10 -4 11 -10l143 -660c1 -6 -3 -10 -9 -10h-60c-7 0 -10 4 -11 10l-30 149h-151l-30 -149c-1 -6 -4 -10 -10 -10h-60c-6 0 -10 4 -9 10zM141 229h123l-58 296h-3zM202 731c-50 0 -86 37 -86 86c0 50 36 86 86 86
c49 0 86 -36 86 -86c0 -49 -37 -86 -86 -86zM202 768c27 0 47 21 47 49s-20 49 -47 49s-47 -21 -47 -49s20 -49 47 -49z" />
    <glyph glyph-name="Aringacute" unicode="&#x1fa;" horiz-adv-x="406" 
d="M217 775h-40c-6 0 -8 5 -4 10l82 93c6 7 11 10 21 10h55c6 0 8 -5 4 -10l-99 -93c-7 -8 -12 -10 -19 -10zM379 0h-60c-7 0 -10 4 -11 10l-30 149h-151l-30 -149c-1 -6 -4 -10 -10 -10h-60c-6 0 -10 4 -9 10l128 578c1 2 1 5 3 6c-20 16 -31 40 -31 68c0 50 36 86 86 86
c49 0 86 -36 86 -86c0 -28 -12 -52 -31 -68l3 -6l126 -578c1 -6 -3 -10 -9 -10zM204 613c27 0 47 21 47 49s-20 49 -47 49c-28 0 -48 -21 -48 -49s20 -49 48 -49zM202 524l-60 -295h122l-59 295h-3z" />
    <glyph glyph-name="Aogonek" unicode="&#x104;" horiz-adv-x="406" 
d="M245 670l143 -660c1 -4 0 -7 -5 -10c-44 -37 -68 -71 -68 -96c0 -17 9 -26 22 -26c8 0 14 2 20 6c5 3 10 2 13 -3l14 -34c3 -5 1 -10 -4 -13c-12 -8 -33 -15 -53 -15c-45 0 -76 26 -76 73c0 37 21 71 62 110c-3 1 -4 3 -5 8l-30 149h-151l-30 -149c-1 -6 -4 -10 -10 -10
h-60c-6 0 -10 4 -9 10l145 660c2 6 5 10 11 10h60c6 0 10 -4 11 -10zM202 525l-61 -296h123l-59 296h-3z" />
    <glyph glyph-name="AE" unicode="&#xc6;" horiz-adv-x="629" 
d="M589 0h-257c-6 0 -10 4 -10 10v143c0 4 -2 6 -6 6h-163l-56 -149c-2 -6 -6 -10 -13 -10h-59c-6 0 -9 4 -7 10l251 660c2 6 6 10 12 10h308c6 0 10 -4 10 -10v-55c0 -6 -4 -10 -10 -10h-180c-4 0 -6 -2 -6 -6v-212c0 -4 2 -6 6 -6h156c6 0 10 -4 10 -10v-55
c0 -6 -4 -10 -10 -10h-156c-4 0 -6 -2 -6 -6v-219c0 -4 2 -6 6 -6h180c6 0 10 -4 10 -10v-55c0 -6 -4 -10 -10 -10zM319 597l-139 -368h136c4 0 6 2 6 6v362h-3z" />
    <glyph glyph-name="AEacute" unicode="&#x1fc;" horiz-adv-x="629" 
d="M362 763h-38c-6 0 -10 5 -6 10l77 105c5 7 8 10 16 10h58c6 0 9 -5 5 -10l-93 -105c-7 -8 -11 -10 -19 -10zM589 0h-257c-6 0 -10 4 -10 10v143c0 4 -2 6 -6 6h-163l-56 -149c-2 -6 -6 -10 -13 -10h-59c-6 0 -9 4 -7 10l251 660c2 6 6 10 12 10h308c6 0 10 -4 10 -10v-55
c0 -6 -4 -10 -10 -10h-180c-4 0 -6 -2 -6 -6v-212c0 -4 2 -6 6 -6h156c6 0 10 -4 10 -10v-55c0 -6 -4 -10 -10 -10h-156c-4 0 -6 -2 -6 -6v-219c0 -4 2 -6 6 -6h180c6 0 10 -4 10 -10v-55c0 -6 -4 -10 -10 -10zM319 597l-139 -368h136c4 0 6 2 6 6v362h-3z" />
    <glyph glyph-name="Cacute" unicode="&#x106;" horiz-adv-x="381" 
d="M61 91c-9 28 -12 56 -12 249s3 221 12 249c21 64 69 100 146 100c89 0 143 -48 152 -152c1 -7 -2 -11 -8 -12l-57 -11c-6 -1 -11 2 -11 8c-5 61 -28 91 -75 91c-36 0 -58 -15 -68 -47c-6 -19 -9 -38 -9 -226s3 -207 9 -226c10 -32 32 -47 68 -47c47 0 70 30 75 91
c0 6 5 9 11 8l57 -11c6 -1 9 -5 8 -12c-9 -104 -63 -152 -152 -152c-77 0 -125 36 -146 100zM209 763h-38c-6 0 -10 5 -6 10l77 105c5 7 8 10 16 10h58c6 0 9 -5 5 -10l-93 -105c-7 -8 -11 -10 -19 -10z" />
    <glyph glyph-name="Ccircumflex" unicode="&#x108;" horiz-adv-x="381" 
d="M61 91c-9 28 -12 56 -12 249s3 221 12 249c21 64 69 100 146 100c89 0 143 -48 152 -152c1 -7 -2 -11 -8 -12l-57 -11c-6 -1 -11 2 -11 8c-5 61 -28 91 -75 91c-36 0 -58 -15 -68 -47c-6 -19 -9 -38 -9 -226s3 -207 9 -226c10 -32 32 -47 68 -47c47 0 70 30 75 91
c0 6 5 9 11 8l57 -11c6 -1 9 -5 8 -12c-9 -104 -63 -152 -152 -152c-77 0 -125 36 -146 100zM317 752h-42c-7 0 -12 3 -17 10l-52 71h-2l-52 -71c-5 -7 -10 -10 -17 -10h-42c-6 0 -9 4 -5 10l82 123c4 7 9 10 17 10h36c8 0 13 -3 17 -10l82 -123c4 -6 1 -10 -5 -10z" />
    <glyph glyph-name="Ccaron" unicode="&#x10c;" horiz-adv-x="381" 
d="M61 91c-9 28 -12 56 -12 249s3 221 12 249c21 64 69 100 146 100c89 0 143 -48 152 -152c1 -7 -2 -11 -8 -12l-57 -11c-6 -1 -11 2 -11 8c-5 61 -28 91 -75 91c-36 0 -58 -15 -68 -47c-6 -19 -9 -38 -9 -226s3 -207 9 -226c10 -32 32 -47 68 -47c47 0 70 30 75 91
c0 6 5 9 11 8l57 -11c6 -1 9 -5 8 -12c-9 -104 -63 -152 -152 -152c-77 0 -125 36 -146 100zM223 750h-36c-8 0 -13 3 -17 9l-82 124c-4 5 -1 10 5 10h42c7 0 12 -3 17 -10l52 -72h2l52 72c5 7 10 10 17 10h42c6 0 9 -5 5 -10l-82 -124c-4 -6 -9 -9 -17 -9z" />
    <glyph glyph-name="Cdotaccent" unicode="&#x10a;" horiz-adv-x="381" 
d="M236 777h-63c-6 0 -10 4 -10 10v72c0 6 4 10 10 10h63c6 0 10 -4 10 -10v-72c0 -6 -4 -10 -10 -10zM61 91c-9 28 -12 56 -12 249s3 221 12 249c21 64 69 100 146 100c89 0 143 -48 152 -152c1 -7 -2 -11 -8 -12l-57 -11c-6 -1 -11 2 -11 8c-5 61 -28 91 -75 91
c-36 0 -58 -15 -68 -47c-6 -19 -9 -38 -9 -226s3 -207 9 -226c10 -32 32 -47 68 -47c47 0 70 30 75 91c0 6 5 9 11 8l57 -11c6 -1 9 -5 8 -12c-9 -104 -63 -152 -152 -152c-77 0 -125 36 -146 100z" />
    <glyph glyph-name="Ccedilla" unicode="&#xc7;" horiz-adv-x="381" 
d="M127 -152c-6 0 -9 4 -7 10l54 136c-58 8 -95 42 -113 97c-9 28 -12 56 -12 249s3 221 12 249c21 64 69 100 146 100c89 0 143 -48 152 -152c1 -7 -2 -11 -8 -12l-57 -11c-6 -1 -11 2 -11 8c-5 61 -28 91 -75 91c-36 0 -58 -15 -68 -47c-6 -19 -9 -38 -9 -226
s3 -207 9 -226c10 -32 32 -47 68 -47c47 0 70 30 75 91c0 6 5 9 11 8l57 -11c6 -1 9 -5 8 -12c-8 -92 -52 -140 -123 -150l-45 -135c-3 -7 -8 -10 -16 -10h-48z" />
    <glyph glyph-name="Dcaron" unicode="&#x10e;" horiz-adv-x="433" 
d="M216 750h-36c-8 0 -13 3 -17 9l-82 124c-4 5 -1 10 5 10h42c7 0 12 -3 17 -10l52 -72h2l52 72c5 7 10 10 17 10h42c6 0 9 -5 5 -10l-82 -124c-4 -6 -9 -9 -17 -9zM60 10v660c0 6 4 10 10 10h141c86 0 135 -36 157 -106c12 -37 16 -82 16 -234s-4 -197 -16 -234
c-22 -70 -71 -106 -157 -106h-141c-6 0 -10 4 -10 10zM141 81c0 -4 2 -6 6 -6h56c46 0 72 18 86 58c9 28 13 65 13 207s-4 179 -13 207c-14 40 -40 58 -86 58h-56c-4 0 -6 -2 -6 -6v-518z" />
    <glyph glyph-name="Dcroat" unicode="&#x110;" horiz-adv-x="433" 
d="M211 0h-141c-6 0 -10 4 -10 10v296c0 4 -2 6 -6 6h-29c-6 0 -10 4 -10 10v44c0 6 4 10 10 10h29c4 0 6 2 6 6v288c0 6 4 10 10 10h141c86 0 135 -36 157 -106c12 -37 16 -82 16 -234s-4 -197 -16 -234c-22 -70 -71 -106 -157 -106zM203 75c46 0 72 18 86 58
c9 28 13 65 13 207s-4 179 -13 207c-14 40 -40 58 -86 58h-56c-4 0 -6 -2 -6 -6v-217c0 -4 2 -6 6 -6h65c6 0 10 -4 10 -10v-44c0 -6 -4 -10 -10 -10h-65c-4 0 -6 -2 -6 -6v-225c0 -4 2 -6 6 -6h56z" />
    <glyph glyph-name="Eth" unicode="&#xd0;" horiz-adv-x="433" 
d="M211 0h-141c-6 0 -10 4 -10 10v296c0 4 -2 6 -6 6h-29c-6 0 -10 4 -10 10v44c0 6 4 10 10 10h29c4 0 6 2 6 6v288c0 6 4 10 10 10h141c86 0 135 -36 157 -106c12 -37 16 -82 16 -234s-4 -197 -16 -234c-22 -70 -71 -106 -157 -106zM203 75c46 0 72 18 86 58
c9 28 13 65 13 207s-4 179 -13 207c-14 40 -40 58 -86 58h-56c-4 0 -6 -2 -6 -6v-217c0 -4 2 -6 6 -6h65c6 0 10 -4 10 -10v-44c0 -6 -4 -10 -10 -10h-65c-4 0 -6 -2 -6 -6v-225c0 -4 2 -6 6 -6h56z" />
    <glyph glyph-name="Egrave" unicode="&#xc8;" horiz-adv-x="367" 
d="M220 763h-39c-8 0 -12 2 -19 10l-93 105c-4 5 -1 10 5 10h58c9 0 12 -3 17 -10l76 -105c4 -5 1 -10 -5 -10zM60 10v660c0 6 4 10 10 10h257c6 0 10 -4 10 -10v-55c0 -6 -4 -10 -10 -10h-180c-4 0 -6 -2 -6 -6v-212c0 -4 2 -6 6 -6h156c6 0 10 -4 10 -10v-55
c0 -6 -4 -10 -10 -10h-156c-4 0 -6 -2 -6 -6v-219c0 -4 2 -6 6 -6h180c6 0 10 -4 10 -10v-55c0 -6 -4 -10 -10 -10h-257c-6 0 -10 4 -10 10z" />
    <glyph glyph-name="Eacute" unicode="&#xc9;" horiz-adv-x="367" 
d="M209 763h-38c-6 0 -10 5 -6 10l77 105c5 7 8 10 16 10h58c6 0 9 -5 5 -10l-93 -105c-7 -8 -11 -10 -19 -10zM60 10v660c0 6 4 10 10 10h257c6 0 10 -4 10 -10v-55c0 -6 -4 -10 -10 -10h-180c-4 0 -6 -2 -6 -6v-212c0 -4 2 -6 6 -6h156c6 0 10 -4 10 -10v-55
c0 -6 -4 -10 -10 -10h-156c-4 0 -6 -2 -6 -6v-219c0 -4 2 -6 6 -6h180c6 0 10 -4 10 -10v-55c0 -6 -4 -10 -10 -10h-257c-6 0 -10 4 -10 10z" />
    <glyph glyph-name="Ecircumflex" unicode="&#xca;" horiz-adv-x="367" 
d="M60 10v660c0 6 4 10 10 10h257c6 0 10 -4 10 -10v-55c0 -6 -4 -10 -10 -10h-180c-4 0 -6 -2 -6 -6v-212c0 -4 2 -6 6 -6h156c6 0 10 -4 10 -10v-55c0 -6 -4 -10 -10 -10h-156c-4 0 -6 -2 -6 -6v-219c0 -4 2 -6 6 -6h180c6 0 10 -4 10 -10v-55c0 -6 -4 -10 -10 -10h-257
c-6 0 -10 4 -10 10zM309 752h-42c-7 0 -12 3 -17 10l-52 71h-2l-52 -71c-5 -7 -10 -10 -17 -10h-42c-6 0 -9 4 -5 10l82 123c4 7 9 10 17 10h36c8 0 13 -3 17 -10l82 -123c4 -6 1 -10 -5 -10z" />
    <glyph glyph-name="Ecaron" unicode="&#x11a;" horiz-adv-x="367" 
d="M214 750h-36c-8 0 -13 3 -17 9l-82 124c-4 5 -1 10 5 10h42c7 0 12 -3 17 -10l52 -72h2l52 72c5 7 10 10 17 10h42c6 0 9 -5 5 -10l-82 -124c-4 -6 -9 -9 -17 -9zM60 10v660c0 6 4 10 10 10h257c6 0 10 -4 10 -10v-55c0 -6 -4 -10 -10 -10h-180c-4 0 -6 -2 -6 -6v-212
c0 -4 2 -6 6 -6h156c6 0 10 -4 10 -10v-55c0 -6 -4 -10 -10 -10h-156c-4 0 -6 -2 -6 -6v-219c0 -4 2 -6 6 -6h180c6 0 10 -4 10 -10v-55c0 -6 -4 -10 -10 -10h-257c-6 0 -10 4 -10 10z" />
    <glyph glyph-name="Edieresis" unicode="&#xcb;" horiz-adv-x="367" 
d="M294 777h-51c-6 0 -10 4 -10 10v72c0 6 4 10 10 10h51c6 0 10 -4 10 -10v-72c0 -6 -4 -10 -10 -10zM149 777h-51c-6 0 -10 4 -10 10v72c0 6 4 10 10 10h51c6 0 10 -4 10 -10v-72c0 -6 -4 -10 -10 -10zM60 10v660c0 6 4 10 10 10h257c6 0 10 -4 10 -10v-55
c0 -6 -4 -10 -10 -10h-180c-4 0 -6 -2 -6 -6v-212c0 -4 2 -6 6 -6h156c6 0 10 -4 10 -10v-55c0 -6 -4 -10 -10 -10h-156c-4 0 -6 -2 -6 -6v-219c0 -4 2 -6 6 -6h180c6 0 10 -4 10 -10v-55c0 -6 -4 -10 -10 -10h-257c-6 0 -10 4 -10 10z" />
    <glyph glyph-name="Emacron" unicode="&#x112;" horiz-adv-x="367" 
d="M291 790h-194c-6 0 -10 4 -10 10v43c0 6 4 10 10 10h194c6 0 10 -4 10 -10v-43c0 -6 -4 -10 -10 -10zM60 10v660c0 6 4 10 10 10h257c6 0 10 -4 10 -10v-55c0 -6 -4 -10 -10 -10h-180c-4 0 -6 -2 -6 -6v-212c0 -4 2 -6 6 -6h156c6 0 10 -4 10 -10v-55
c0 -6 -4 -10 -10 -10h-156c-4 0 -6 -2 -6 -6v-219c0 -4 2 -6 6 -6h180c6 0 10 -4 10 -10v-55c0 -6 -4 -10 -10 -10h-257c-6 0 -10 4 -10 10z" />
    <glyph glyph-name="Ebreve" unicode="&#x114;" horiz-adv-x="367" 
d="M194 753c-71 0 -108 48 -114 111c0 6 4 10 10 10h32c6 0 9 -4 10 -10c10 -34 30 -55 62 -55s52 21 61 55c2 6 4 10 11 10h32c6 0 10 -4 10 -10c-6 -63 -43 -111 -114 -111zM60 10v660c0 6 4 10 10 10h257c6 0 10 -4 10 -10v-55c0 -6 -4 -10 -10 -10h-180
c-4 0 -6 -2 -6 -6v-212c0 -4 2 -6 6 -6h156c6 0 10 -4 10 -10v-55c0 -6 -4 -10 -10 -10h-156c-4 0 -6 -2 -6 -6v-219c0 -4 2 -6 6 -6h180c6 0 10 -4 10 -10v-55c0 -6 -4 -10 -10 -10h-257c-6 0 -10 4 -10 10z" />
    <glyph glyph-name="Edotaccent" unicode="&#x116;" horiz-adv-x="367" 
d="M222 777h-63c-6 0 -10 4 -10 10v72c0 6 4 10 10 10h63c6 0 10 -4 10 -10v-72c0 -6 -4 -10 -10 -10zM60 10v660c0 6 4 10 10 10h257c6 0 10 -4 10 -10v-55c0 -6 -4 -10 -10 -10h-180c-4 0 -6 -2 -6 -6v-212c0 -4 2 -6 6 -6h156c6 0 10 -4 10 -10v-55c0 -6 -4 -10 -10 -10
h-156c-4 0 -6 -2 -6 -6v-219c0 -4 2 -6 6 -6h180c6 0 10 -4 10 -10v-55c0 -6 -4 -10 -10 -10h-257c-6 0 -10 4 -10 10z" />
    <glyph glyph-name="Eogonek" unicode="&#x118;" horiz-adv-x="367" 
d="M260 -181c-45 0 -76 26 -76 73c0 39 22 71 59 108h-173c-6 0 -10 4 -10 10v660c0 6 4 10 10 10h257c6 0 10 -4 10 -10v-55c0 -6 -4 -10 -10 -10h-180c-4 0 -6 -2 -6 -6v-212c0 -4 2 -6 6 -6h156c6 0 10 -4 10 -10v-55c0 -6 -4 -10 -10 -10h-156c-4 0 -6 -2 -6 -6v-219
c0 -4 2 -6 6 -6h180c6 0 10 -4 10 -10v-55c0 -6 -4 -10 -10 -10h-11c-44 -37 -68 -71 -68 -96c0 -17 9 -26 22 -26c9 0 14 2 20 6c5 3 11 2 13 -3l15 -34c2 -5 0 -10 -5 -13c-12 -8 -33 -15 -53 -15z" />
    <glyph glyph-name="Gcircumflex" unicode="&#x11c;" horiz-adv-x="417" 
d="M62 92c-10 30 -13 55 -13 248s3 218 13 248c21 65 72 101 149 101c94 0 147 -53 158 -148c1 -6 -1 -11 -7 -12l-56 -11c-7 -1 -11 2 -12 8c-7 56 -33 87 -82 87c-36 0 -62 -17 -72 -48c-7 -20 -9 -35 -9 -225s2 -205 9 -225c10 -31 37 -48 73 -48s63 17 73 48
c6 19 9 35 9 174c0 4 -2 6 -6 6h-67c-6 0 -10 4 -10 10v53c0 6 4 10 10 10h141c6 0 10 -4 10 -10v-29c0 -182 -3 -207 -13 -237c-20 -65 -72 -101 -149 -101s-128 36 -149 101zM319 752h-42c-7 0 -12 3 -17 10l-52 71h-2l-52 -71c-5 -7 -10 -10 -17 -10h-42c-6 0 -9 4 -5 10
l82 123c4 7 9 10 17 10h36c8 0 13 -3 17 -10l82 -123c4 -6 1 -10 -5 -10z" />
    <glyph glyph-name="Gbreve" unicode="&#x11e;" horiz-adv-x="417" 
d="M207 753c-71 0 -108 48 -114 111c0 6 4 10 10 10h32c6 0 9 -4 10 -10c10 -34 30 -55 62 -55s52 21 61 55c2 6 4 10 11 10h32c6 0 10 -4 10 -10c-6 -63 -43 -111 -114 -111zM62 92c-10 30 -13 55 -13 248s3 218 13 248c21 65 72 101 149 101c94 0 147 -53 158 -148
c1 -6 -1 -11 -7 -12l-56 -11c-7 -1 -11 2 -12 8c-7 56 -33 87 -82 87c-36 0 -62 -17 -72 -48c-7 -20 -9 -35 -9 -225s2 -205 9 -225c10 -31 37 -48 73 -48s63 17 73 48c6 19 9 35 9 174c0 4 -2 6 -6 6h-67c-6 0 -10 4 -10 10v53c0 6 4 10 10 10h141c6 0 10 -4 10 -10v-29
c0 -182 -3 -207 -13 -237c-20 -65 -72 -101 -149 -101s-128 36 -149 101z" />
    <glyph glyph-name="Gdotaccent" unicode="&#x120;" horiz-adv-x="417" 
d="M238 777h-63c-6 0 -10 4 -10 10v72c0 6 4 10 10 10h63c6 0 10 -4 10 -10v-72c0 -6 -4 -10 -10 -10zM62 92c-10 30 -13 55 -13 248s3 218 13 248c21 65 72 101 149 101c94 0 147 -53 158 -148c1 -6 -1 -11 -7 -12l-56 -11c-7 -1 -11 2 -12 8c-7 56 -33 87 -82 87
c-36 0 -62 -17 -72 -48c-7 -20 -9 -35 -9 -225s2 -205 9 -225c10 -31 37 -48 73 -48s63 17 73 48c6 19 9 35 9 174c0 4 -2 6 -6 6h-67c-6 0 -10 4 -10 10v53c0 6 4 10 10 10h141c6 0 10 -4 10 -10v-29c0 -182 -3 -207 -13 -237c-20 -65 -72 -101 -149 -101s-128 36 -149 101
z" />
    <glyph glyph-name="Gcommaaccent" unicode="&#x122;" horiz-adv-x="417" 
d="M179 -208c-5 0 -8 4 -8 10v135c0 6 4 10 10 10h53c6 0 10 -4 10 -10v-49c0 -10 -2 -15 -7 -22l-46 -66c-3 -6 -7 -8 -12 -8zM62 92c-10 30 -13 55 -13 248s3 218 13 248c21 65 72 101 149 101c94 0 147 -53 158 -148c1 -6 -1 -11 -7 -12l-56 -11c-7 -1 -11 2 -12 8
c-7 56 -33 87 -82 87c-36 0 -62 -17 -72 -48c-7 -20 -9 -35 -9 -225s2 -205 9 -225c10 -31 37 -48 73 -48s63 17 73 48c6 19 9 35 9 174c0 4 -2 6 -6 6h-67c-6 0 -10 4 -10 10v53c0 6 4 10 10 10h141c6 0 10 -4 10 -10v-29c0 -182 -3 -207 -13 -237
c-20 -65 -72 -101 -149 -101s-128 36 -149 101z" />
    <glyph glyph-name="Hcircumflex" unicode="&#x124;" horiz-adv-x="440" 
d="M60 10v660c0 6 4 10 10 10h61c6 0 10 -4 10 -10v-278c0 -4 2 -6 6 -6h146c4 0 6 2 6 6v278c0 6 4 10 10 10h61c6 0 10 -4 10 -10v-660c0 -6 -4 -10 -10 -10h-61c-6 0 -10 4 -10 10v295c0 4 -2 6 -6 6h-146c-4 0 -6 -2 -6 -6v-295c0 -6 -4 -10 -10 -10h-61
c-6 0 -10 4 -10 10zM331 752h-42c-7 0 -12 3 -17 10l-52 71h-2l-52 -71c-5 -7 -10 -10 -17 -10h-42c-6 0 -9 4 -5 10l82 123c4 7 9 10 17 10h36c8 0 13 -3 17 -10l82 -123c4 -6 1 -10 -5 -10z" />
    <glyph glyph-name="Hbar" unicode="&#x126;" horiz-adv-x="440" 
d="M370 0h-61c-6 0 -10 4 -10 10v295c0 4 -2 6 -6 6h-146c-4 0 -6 -2 -6 -6v-295c0 -6 -4 -10 -10 -10h-61c-6 0 -10 4 -10 10v476c0 4 -2 6 -6 6h-22c-6 0 -10 4 -10 10v44c0 6 4 10 10 10h22c4 0 6 2 6 6v108c0 6 4 10 10 10h61c6 0 10 -4 10 -10v-108c0 -4 2 -6 6 -6h146
c4 0 6 2 6 6v108c0 6 4 10 10 10h61c6 0 10 -4 10 -10v-108c0 -4 2 -6 6 -6h22c6 0 10 -4 10 -10v-44c0 -6 -4 -10 -10 -10h-22c-4 0 -6 -2 -6 -6v-476c0 -6 -4 -10 -10 -10zM293 386c4 0 6 2 6 6v94c0 4 -2 6 -6 6h-146c-4 0 -6 -2 -6 -6v-94c0 -4 2 -6 6 -6h146z" />
    <glyph glyph-name="Igrave" unicode="&#xcc;" horiz-adv-x="201" 
d="M60 10v660c0 6 4 10 10 10h61c6 0 10 -4 10 -10v-660c0 -6 -4 -10 -10 -10h-61c-6 0 -10 4 -10 10zM122 763h-39c-8 0 -12 2 -19 10l-93 105c-4 5 -1 10 5 10h58c9 0 12 -3 17 -10l76 -105c4 -5 1 -10 -5 -10z" />
    <glyph glyph-name="Iacute" unicode="&#xcd;" horiz-adv-x="201" 
d="M60 10v660c0 6 4 10 10 10h61c6 0 10 -4 10 -10v-660c0 -6 -4 -10 -10 -10h-61c-6 0 -10 4 -10 10zM119 763h-38c-6 0 -10 5 -6 10l77 105c5 7 8 10 16 10h58c6 0 9 -5 5 -10l-93 -105c-7 -8 -11 -10 -19 -10z" />
    <glyph glyph-name="Ibreve" unicode="&#x12c;" horiz-adv-x="201" 
d="M60 10v660c0 6 4 10 10 10h61c6 0 10 -4 10 -10v-660c0 -6 -4 -10 -10 -10h-61c-6 0 -10 4 -10 10zM101 753c-71 0 -108 48 -114 111c0 6 4 10 10 10h32c6 0 9 -4 10 -10c10 -34 30 -55 62 -55s52 21 61 55c2 6 4 10 11 10h32c6 0 10 -4 10 -10
c-6 -63 -43 -111 -114 -111z" />
    <glyph glyph-name="Icircumflex" unicode="&#xce;" horiz-adv-x="201" 
d="M60 10v660c0 6 4 10 10 10h61c6 0 10 -4 10 -10v-660c0 -6 -4 -10 -10 -10h-61c-6 0 -10 4 -10 10zM213 752h-42c-7 0 -12 3 -17 10l-52 71h-2l-52 -71c-5 -7 -10 -10 -17 -10h-42c-6 0 -9 4 -5 10l82 123c4 7 9 10 17 10h36c8 0 13 -3 17 -10l82 -123c4 -6 1 -10 -5 -10
z" />
    <glyph glyph-name="Itilde" unicode="&#x128;" horiz-adv-x="201" 
d="M60 10v660c0 6 4 10 10 10h61c6 0 10 -4 10 -10v-660c0 -6 -4 -10 -10 -10h-61c-6 0 -10 4 -10 10zM143 773c-20 0 -34 8 -49 19c-14 10 -23 16 -35 16c-19 0 -30 -10 -44 -27c-5 -5 -12 -4 -12 3v47c0 6 2 11 9 18c12 13 27 24 48 24c20 0 33 -9 48 -19
c15 -11 23 -17 36 -17c19 0 30 11 44 28c4 5 11 3 11 -4v-47c0 -6 -1 -10 -8 -17c-12 -14 -27 -24 -48 -24z" />
    <glyph glyph-name="Idieresis" unicode="&#xcf;" horiz-adv-x="201" 
d="M60 10v660c0 6 4 10 10 10h61c6 0 10 -4 10 -10v-660c0 -6 -4 -10 -10 -10h-61c-6 0 -10 4 -10 10zM199 777h-51c-6 0 -10 4 -10 10v72c0 6 4 10 10 10h51c6 0 10 -4 10 -10v-72c0 -6 -4 -10 -10 -10zM54 777h-51c-6 0 -10 4 -10 10v72c0 6 4 10 10 10h51
c6 0 10 -4 10 -10v-72c0 -6 -4 -10 -10 -10z" />
    <glyph glyph-name="Imacron" unicode="&#x12a;" horiz-adv-x="201" 
d="M60 10v660c0 6 4 10 10 10h61c6 0 10 -4 10 -10v-660c0 -6 -4 -10 -10 -10h-61c-6 0 -10 4 -10 10zM198 790h-194c-6 0 -10 4 -10 10v43c0 6 4 10 10 10h194c6 0 10 -4 10 -10v-43c0 -6 -4 -10 -10 -10z" />
    <glyph glyph-name="Idotaccent" unicode="&#x130;" horiz-adv-x="201" 
d="M60 10v660c0 6 4 10 10 10h61c6 0 10 -4 10 -10v-660c0 -6 -4 -10 -10 -10h-61c-6 0 -10 4 -10 10zM133 777h-63c-6 0 -10 4 -10 10v72c0 6 4 10 10 10h63c6 0 10 -4 10 -10v-72c0 -6 -4 -10 -10 -10z" />
    <glyph glyph-name="Iogonek" unicode="&#x12e;" horiz-adv-x="201" 
d="M90 -181c-45 0 -76 26 -76 73c0 37 17 68 56 109h-3c-4 0 -7 4 -7 9v660c0 6 4 10 10 10h61c6 0 10 -4 10 -10v-660c0 -4 -1 -6 -4 -9c-44 -48 -59 -75 -59 -97c0 -17 9 -26 22 -26c9 0 14 2 20 6c5 3 11 2 13 -3l15 -34c2 -5 0 -10 -5 -13c-12 -8 -33 -15 -53 -15z" />
    <glyph glyph-name="Jcircumflex" unicode="&#x134;" horiz-adv-x="342" 
d="M25 32c-4 5 -4 10 1 14l40 39c4 4 10 5 16 0c13 -11 29 -18 47 -18c46 0 73 25 73 88v515c0 6 4 10 10 10h61c6 0 10 -4 10 -10v-509c0 -117 -62 -170 -155 -170c-43 0 -81 15 -103 41zM352 752h-42c-7 0 -12 3 -17 10l-52 71h-2l-52 -71c-5 -7 -10 -10 -17 -10h-42
c-6 0 -9 4 -5 10l82 123c4 7 9 10 17 10h36c8 0 13 -3 17 -10l82 -123c4 -6 1 -10 -5 -10z" />
    <glyph glyph-name="Kcommaaccent" unicode="&#x136;" horiz-adv-x="424" 
d="M196 -208c-5 0 -8 4 -8 10v135c0 6 4 10 10 10h53c6 0 10 -4 10 -10v-49c0 -10 -2 -15 -7 -22l-46 -66c-3 -6 -7 -8 -12 -8zM60 10v660c0 6 4 10 10 10h61c6 0 10 -4 10 -10v-312l155 314c3 6 6 8 13 8h65c6 0 8 -5 6 -9l-135 -263l156 -398c2 -6 -1 -10 -6 -10h-66
c-6 0 -9 2 -11 7l-122 316l-55 -112v-201c0 -6 -4 -10 -10 -10h-61c-6 0 -10 4 -10 10z" />
    <glyph glyph-name="Lacute" unicode="&#x139;" horiz-adv-x="358" 
d="M128 763h-38c-6 0 -10 5 -6 10l77 105c5 7 8 10 16 10h58c6 0 9 -5 5 -10l-93 -105c-7 -8 -11 -10 -19 -10zM60 10v660c0 6 4 10 10 10h61c6 0 10 -4 10 -10v-589c0 -4 2 -6 6 -6h178c6 0 10 -4 10 -10v-55c0 -6 -4 -10 -10 -10h-255c-6 0 -10 4 -10 10z" />
    <glyph glyph-name="Lcaron" unicode="&#x13d;" horiz-adv-x="358" 
d="M192 524c-6 0 -9 3 -9 9v137c0 6 4 10 10 10h52c6 0 10 -4 10 -10v-50c0 -11 -1 -15 -6 -23l-45 -66c-3 -5 -7 -7 -12 -7zM60 10v660c0 6 4 10 10 10h61c6 0 10 -4 10 -10v-589c0 -4 2 -6 6 -6h178c6 0 10 -4 10 -10v-55c0 -6 -4 -10 -10 -10h-255c-6 0 -10 4 -10 10z
" />
    <glyph glyph-name="Lcommaaccent" unicode="&#x13b;" horiz-adv-x="358" 
d="M166 -208c-5 0 -8 4 -8 10v135c0 6 4 10 10 10h53c6 0 10 -4 10 -10v-49c0 -10 -2 -15 -7 -22l-46 -66c-3 -6 -7 -8 -12 -8zM60 10v660c0 6 4 10 10 10h61c6 0 10 -4 10 -10v-589c0 -4 2 -6 6 -6h178c6 0 10 -4 10 -10v-55c0 -6 -4 -10 -10 -10h-255c-6 0 -10 4 -10 10z
" />
    <glyph glyph-name="Lslash" unicode="&#x141;" horiz-adv-x="358" 
d="M229 388l-88 -61v-246c0 -4 2 -6 6 -6h178c6 0 10 -4 10 -10v-55c0 -6 -4 -10 -10 -10h-255c-6 0 -10 4 -10 10v265l-39 -27c-5 -3 -10 0 -10 5v57c0 7 3 11 10 16l39 27v317c0 6 4 10 10 10h61c6 0 10 -4 10 -10v-265l88 61c5 3 10 0 10 -5v-57c0 -7 -3 -11 -10 -16z
" />
    <glyph glyph-name="Ldot" unicode="&#x13f;" horiz-adv-x="358" 
d="M60 10v660c0 6 4 10 10 10h61c6 0 10 -4 10 -10v-589c0 -4 2 -6 6 -6h178c6 0 10 -4 10 -10v-55c0 -6 -4 -10 -10 -10h-255c-6 0 -10 4 -10 10zM313 255h-65c-6 0 -10 4 -10 10v84c0 6 4 10 10 10h65c6 0 10 -4 10 -10v-84c0 -6 -4 -10 -10 -10z" />
    <glyph glyph-name="Nacute" unicode="&#x143;" horiz-adv-x="449" 
d="M236 763h-38c-6 0 -10 5 -6 10l77 105c5 7 8 10 16 10h58c6 0 9 -5 5 -10l-93 -105c-7 -8 -11 -10 -19 -10zM60 10v660c0 6 4 10 10 10h75c8 0 13 -3 15 -10l152 -510h4v510c0 6 4 10 10 10h53c6 0 10 -4 10 -10v-660c0 -6 -4 -10 -10 -10h-71c-8 0 -13 3 -15 10
l-155 510h-5v-510c0 -6 -4 -10 -10 -10h-53c-6 0 -10 4 -10 10z" />
    <glyph glyph-name="Ncaron" unicode="&#x147;" horiz-adv-x="449" 
d="M242 750h-36c-8 0 -13 3 -17 9l-82 124c-4 5 -1 10 5 10h42c7 0 12 -3 17 -10l52 -72h2l52 72c5 7 10 10 17 10h42c6 0 9 -5 5 -10l-82 -124c-4 -6 -9 -9 -17 -9zM60 10v660c0 6 4 10 10 10h75c8 0 13 -3 15 -10l152 -510h4v510c0 6 4 10 10 10h53c6 0 10 -4 10 -10v-660
c0 -6 -4 -10 -10 -10h-71c-8 0 -13 3 -15 10l-155 510h-5v-510c0 -6 -4 -10 -10 -10h-53c-6 0 -10 4 -10 10z" />
    <glyph glyph-name="Ntilde" unicode="&#xd1;" horiz-adv-x="449" 
d="M266 773c-20 0 -34 8 -49 19c-14 10 -23 16 -35 16c-19 0 -30 -10 -44 -27c-5 -5 -12 -4 -12 3v47c0 6 2 11 9 18c12 13 27 24 48 24c20 0 33 -9 48 -19c15 -11 23 -17 36 -17c19 0 30 11 44 28c4 5 11 3 11 -4v-47c0 -6 -1 -10 -8 -17c-12 -14 -27 -24 -48 -24zM60 10
v660c0 6 4 10 10 10h75c8 0 13 -3 15 -10l152 -510h4v510c0 6 4 10 10 10h53c6 0 10 -4 10 -10v-660c0 -6 -4 -10 -10 -10h-71c-8 0 -13 3 -15 10l-155 510h-5v-510c0 -6 -4 -10 -10 -10h-53c-6 0 -10 4 -10 10z" />
    <glyph glyph-name="Ncommaaccent" unicode="&#x145;" horiz-adv-x="449" 
d="M203 -208c-5 0 -8 4 -8 10v135c0 6 4 10 10 10h53c6 0 10 -4 10 -10v-49c0 -10 -2 -15 -7 -22l-46 -66c-3 -6 -7 -8 -12 -8zM60 10v660c0 6 4 10 10 10h75c8 0 13 -3 15 -10l152 -510h4v510c0 6 4 10 10 10h53c6 0 10 -4 10 -10v-660c0 -6 -4 -10 -10 -10h-71
c-8 0 -13 3 -15 10l-155 510h-5v-510c0 -6 -4 -10 -10 -10h-53c-6 0 -10 4 -10 10z" />
    <glyph glyph-name="Ograve" unicode="&#xd2;" horiz-adv-x="422" 
d="M238 763h-39c-8 0 -12 2 -19 10l-93 105c-4 5 -1 10 5 10h58c9 0 12 -3 17 -10l76 -105c4 -5 1 -10 -5 -10zM211 -9c-77 0 -128 36 -149 101c-10 30 -13 55 -13 248s3 218 13 248c21 65 72 101 149 101s129 -36 149 -101c10 -30 13 -55 13 -248s-3 -218 -13 -248
c-20 -65 -72 -101 -149 -101zM211 67c36 0 62 17 72 48c6 20 8 35 8 225s-2 205 -8 225c-10 31 -36 48 -72 48s-61 -17 -71 -48c-7 -20 -9 -35 -9 -225s2 -205 9 -225c10 -31 35 -48 71 -48z" />
    <glyph glyph-name="Oacute" unicode="&#xd3;" horiz-adv-x="422" 
d="M224 763h-38c-6 0 -10 5 -6 10l77 105c5 7 8 10 16 10h58c6 0 9 -5 5 -10l-93 -105c-7 -8 -11 -10 -19 -10zM211 -9c-77 0 -128 36 -149 101c-10 30 -13 55 -13 248s3 218 13 248c21 65 72 101 149 101s129 -36 149 -101c10 -30 13 -55 13 -248s-3 -218 -13 -248
c-20 -65 -72 -101 -149 -101zM211 67c36 0 62 17 72 48c6 20 8 35 8 225s-2 205 -8 225c-10 31 -36 48 -72 48s-61 -17 -71 -48c-7 -20 -9 -35 -9 -225s2 -205 9 -225c10 -31 35 -48 71 -48z" />
    <glyph glyph-name="Ocircumflex" unicode="&#xd4;" horiz-adv-x="422" 
d="M211 -9c-77 0 -128 36 -149 101c-10 30 -13 55 -13 248s3 218 13 248c21 65 72 101 149 101s129 -36 149 -101c10 -30 13 -55 13 -248s-3 -218 -13 -248c-20 -65 -72 -101 -149 -101zM211 67c36 0 62 17 72 48c6 20 8 35 8 225s-2 205 -8 225c-10 31 -36 48 -72 48
s-61 -17 -71 -48c-7 -20 -9 -35 -9 -225s2 -205 9 -225c10 -31 35 -48 71 -48zM323 752h-42c-7 0 -12 3 -17 10l-52 71h-2l-52 -71c-5 -7 -10 -10 -17 -10h-42c-6 0 -9 4 -5 10l82 123c4 7 9 10 17 10h36c8 0 13 -3 17 -10l82 -123c4 -6 1 -10 -5 -10z" />
    <glyph glyph-name="Otilde" unicode="&#xd5;" horiz-adv-x="422" 
d="M252 773c-20 0 -34 8 -49 19c-14 10 -23 16 -35 16c-19 0 -30 -10 -44 -27c-5 -5 -12 -4 -12 3v47c0 6 2 11 9 18c12 13 27 24 48 24c20 0 33 -9 48 -19c15 -11 23 -17 36 -17c19 0 30 11 44 28c4 5 11 3 11 -4v-47c0 -6 -1 -10 -8 -17c-12 -14 -27 -24 -48 -24zM211 -9
c-77 0 -128 36 -149 101c-10 30 -13 55 -13 248s3 218 13 248c21 65 72 101 149 101s129 -36 149 -101c10 -30 13 -55 13 -248s-3 -218 -13 -248c-20 -65 -72 -101 -149 -101zM211 67c36 0 62 17 72 48c6 20 8 35 8 225s-2 205 -8 225c-10 31 -36 48 -72 48s-61 -17 -71 -48
c-7 -20 -9 -35 -9 -225s2 -205 9 -225c10 -31 35 -48 71 -48z" />
    <glyph glyph-name="Odieresis" unicode="&#xd6;" horiz-adv-x="422" 
d="M309 777h-51c-6 0 -10 4 -10 10v72c0 6 4 10 10 10h51c6 0 10 -4 10 -10v-72c0 -6 -4 -10 -10 -10zM164 777h-51c-6 0 -10 4 -10 10v72c0 6 4 10 10 10h51c6 0 10 -4 10 -10v-72c0 -6 -4 -10 -10 -10zM211 -9c-77 0 -128 36 -149 101c-10 30 -13 55 -13 248s3 218 13 248
c21 65 72 101 149 101s129 -36 149 -101c10 -30 13 -55 13 -248s-3 -218 -13 -248c-20 -65 -72 -101 -149 -101zM211 67c36 0 62 17 72 48c6 20 8 35 8 225s-2 205 -8 225c-10 31 -36 48 -72 48s-61 -17 -71 -48c-7 -20 -9 -35 -9 -225s2 -205 9 -225c10 -31 35 -48 71 -48z
" />
    <glyph glyph-name="Omacron" unicode="&#x14c;" horiz-adv-x="422" 
d="M308 790h-194c-6 0 -10 4 -10 10v43c0 6 4 10 10 10h194c6 0 10 -4 10 -10v-43c0 -6 -4 -10 -10 -10zM211 -9c-77 0 -128 36 -149 101c-10 30 -13 55 -13 248s3 218 13 248c21 65 72 101 149 101s129 -36 149 -101c10 -30 13 -55 13 -248s-3 -218 -13 -248
c-20 -65 -72 -101 -149 -101zM211 67c36 0 62 17 72 48c6 20 8 35 8 225s-2 205 -8 225c-10 31 -36 48 -72 48s-61 -17 -71 -48c-7 -20 -9 -35 -9 -225s2 -205 9 -225c10 -31 35 -48 71 -48z" />
    <glyph glyph-name="Obreve" unicode="&#x14e;" horiz-adv-x="422" 
d="M211 753c-71 0 -108 48 -114 111c0 6 4 10 10 10h32c6 0 9 -4 10 -10c10 -34 30 -55 62 -55s52 21 61 55c2 6 4 10 11 10h32c6 0 10 -4 10 -10c-6 -63 -43 -111 -114 -111zM211 -9c-77 0 -128 36 -149 101c-10 30 -13 55 -13 248s3 218 13 248c21 65 72 101 149 101
s129 -36 149 -101c10 -30 13 -55 13 -248s-3 -218 -13 -248c-20 -65 -72 -101 -149 -101zM211 67c36 0 62 17 72 48c6 20 8 35 8 225s-2 205 -8 225c-10 31 -36 48 -72 48s-61 -17 -71 -48c-7 -20 -9 -35 -9 -225s2 -205 9 -225c10 -31 35 -48 71 -48z" />
    <glyph glyph-name="Ohungarumlaut" unicode="&#x150;" horiz-adv-x="422" 
d="M211 -9c-77 0 -128 36 -149 101c-10 30 -13 55 -13 248s3 218 13 248c21 65 72 101 149 101s129 -36 149 -101c10 -30 13 -55 13 -248s-3 -218 -13 -248c-20 -65 -72 -101 -149 -101zM211 67c36 0 62 17 72 48c6 20 8 35 8 225s-2 205 -8 225c-10 31 -36 48 -72 48
s-61 -17 -71 -48c-7 -20 -9 -35 -9 -225s2 -205 9 -225c10 -31 35 -48 71 -48zM291 763h-35c-6 0 -9 4 -5 10l68 105c4 6 8 10 16 10h49c6 0 8 -5 5 -10l-80 -105c-6 -8 -10 -10 -18 -10zM167 763h-34c-6 0 -9 4 -5 10l67 105c4 6 9 10 17 10h49c6 0 8 -5 4 -10l-79 -105
c-6 -8 -11 -10 -19 -10z" />
    <glyph glyph-name="Oslash" unicode="&#xd8;" horiz-adv-x="422" 
d="M73 -30h-21c-6 0 -9 4 -7 10l32 78c-6 10 -11 21 -15 34c-10 30 -13 55 -13 248s3 218 13 248c21 65 72 101 149 101c44 0 79 -12 106 -34l19 46c3 7 6 9 13 9h21c6 0 9 -4 7 -10l-32 -78c6 -10 11 -22 15 -34c10 -30 13 -55 13 -248s-3 -218 -13 -248
c-20 -65 -72 -101 -149 -101c-44 0 -80 12 -106 34l-19 -46c-3 -7 -6 -9 -13 -9zM131 340c0 -75 0 -123 1 -154l148 386c-12 26 -36 41 -69 41c-36 0 -61 -17 -71 -48c-7 -20 -9 -35 -9 -225zM211 67c36 0 61 17 72 48c6 20 8 35 8 225c0 75 0 122 -1 154l-148 -386
c12 -27 36 -41 69 -41z" />
    <glyph glyph-name="Oslashacute" unicode="&#x1fe;" horiz-adv-x="422" 
d="M73 -30h-21c-6 0 -9 4 -7 10l32 78c-6 10 -11 21 -15 34c-10 30 -13 55 -13 248s3 218 13 248c21 65 72 101 149 101c44 0 79 -12 106 -34l19 46c3 7 6 9 13 9h21c6 0 9 -4 7 -10l-32 -78c6 -10 11 -22 15 -34c10 -30 13 -55 13 -248s-3 -218 -13 -248
c-20 -65 -72 -101 -149 -101c-44 0 -80 12 -106 34l-19 -46c-3 -7 -6 -9 -13 -9zM131 340c0 -75 0 -123 1 -154l148 386c-12 26 -36 41 -69 41c-36 0 -61 -17 -71 -48c-7 -20 -9 -35 -9 -225zM211 67c36 0 61 17 72 48c6 20 8 35 8 225c0 75 0 122 -1 154l-148 -386
c12 -27 36 -41 69 -41zM224 763h-38c-6 0 -10 5 -6 10l77 105c5 7 8 10 16 10h58c6 0 9 -5 5 -10l-93 -105c-7 -8 -11 -10 -19 -10z" />
    <glyph glyph-name="OE" unicode="&#x152;" horiz-adv-x="598" 
d="M558 0h-257c-6 0 -10 4 -10 10v21h-1c-15 -23 -46 -40 -90 -40c-69 0 -117 33 -138 98c-10 30 -13 58 -13 251s3 221 13 251c21 65 69 98 138 98c44 0 75 -17 90 -40h1v21c0 6 4 10 10 10h257c6 0 10 -4 10 -10v-55c0 -6 -4 -10 -10 -10h-180c-4 0 -6 -2 -6 -6v-212
c0 -4 2 -6 6 -6h156c6 0 10 -4 10 -10v-55c0 -6 -4 -10 -10 -10h-156c-4 0 -6 -2 -6 -6v-219c0 -4 2 -6 6 -6h180c6 0 10 -4 10 -10v-55c0 -6 -4 -10 -10 -10zM211 67c36 0 61 17 72 48c6 20 8 35 8 225s-2 205 -8 225c-11 31 -36 48 -72 48s-61 -17 -71 -48
c-7 -20 -9 -35 -9 -225s2 -205 9 -225c10 -31 35 -48 71 -48z" />
    <glyph glyph-name="Racute" unicode="&#x154;" horiz-adv-x="421" 
d="M380 0h-68c-6 0 -9 2 -11 7l-85 284c-9 -1 -19 -1 -28 -1h-41c-4 0 -6 -2 -6 -6v-274c0 -6 -4 -10 -10 -10h-61c-6 0 -10 4 -10 10v660c0 6 4 10 10 10h119c120 0 184 -52 184 -196c0 -91 -30 -146 -83 -173l95 -301c2 -5 0 -10 -5 -10zM190 363c70 0 102 28 102 121
c0 92 -30 121 -102 121h-43c-4 0 -6 -2 -6 -6v-230c0 -4 2 -6 6 -6h43zM206 763h-38c-6 0 -10 5 -6 10l77 105c5 7 8 10 16 10h58c6 0 9 -5 5 -10l-93 -105c-7 -8 -11 -10 -19 -10z" />
    <glyph glyph-name="Rcaron" unicode="&#x158;" horiz-adv-x="421" 
d="M208 750h-36c-8 0 -13 3 -17 9l-82 124c-4 5 -1 10 5 10h42c7 0 12 -3 17 -10l52 -72h2l52 72c5 7 10 10 17 10h42c6 0 9 -5 5 -10l-82 -124c-4 -6 -9 -9 -17 -9zM380 0h-68c-6 0 -9 2 -11 7l-85 284c-9 -1 -19 -1 -28 -1h-41c-4 0 -6 -2 -6 -6v-274c0 -6 -4 -10 -10 -10
h-61c-6 0 -10 4 -10 10v660c0 6 4 10 10 10h119c120 0 184 -52 184 -196c0 -91 -30 -146 -83 -173l95 -301c2 -5 0 -10 -5 -10zM190 363c70 0 102 28 102 121c0 92 -30 121 -102 121h-43c-4 0 -6 -2 -6 -6v-230c0 -4 2 -6 6 -6h43z" />
    <glyph glyph-name="Rcommaaccent" unicode="&#x156;" horiz-adv-x="421" 
d="M189 -208c-5 0 -8 4 -8 10v135c0 6 4 10 10 10h53c6 0 10 -4 10 -10v-49c0 -10 -2 -15 -7 -22l-46 -66c-3 -6 -7 -8 -12 -8zM380 0h-68c-6 0 -9 2 -11 7l-85 284c-9 -1 -19 -1 -28 -1h-41c-4 0 -6 -2 -6 -6v-274c0 -6 -4 -10 -10 -10h-61c-6 0 -10 4 -10 10v660
c0 6 4 10 10 10h119c120 0 184 -52 184 -196c0 -91 -30 -146 -83 -173l95 -301c2 -5 0 -10 -5 -10zM190 363c70 0 102 28 102 121c0 92 -30 121 -102 121h-43c-4 0 -6 -2 -6 -6v-230c0 -4 2 -6 6 -6h43z" />
    <glyph glyph-name="Sacute" unicode="&#x15a;" horiz-adv-x="392" 
d="M354 192c0 -137 -43 -201 -158 -201c-103 0 -155 58 -160 175c0 6 2 10 8 11l59 11c7 1 11 -3 11 -9c4 -84 31 -114 83 -114s76 25 76 117c0 78 -15 107 -69 128l-41 16c-93 36 -119 82 -119 187c0 116 50 176 152 176s149 -56 154 -162c0 -6 -3 -10 -9 -11l-56 -9
c-6 -2 -11 2 -11 8c-2 67 -24 100 -76 100c-50 0 -74 -30 -74 -99c0 -70 16 -94 71 -115l41 -16c87 -35 118 -80 118 -193zM210 763h-38c-6 0 -10 5 -6 10l77 105c5 7 8 10 16 10h58c6 0 9 -5 5 -10l-93 -105c-7 -8 -11 -10 -19 -10z" />
    <glyph glyph-name="Scircumflex" unicode="&#x15c;" horiz-adv-x="392" 
d="M354 192c0 -137 -43 -201 -158 -201c-103 0 -155 58 -160 175c0 6 2 10 8 11l59 11c7 1 11 -3 11 -9c4 -84 31 -114 83 -114s76 25 76 117c0 78 -15 107 -69 128l-41 16c-93 36 -119 82 -119 187c0 116 50 176 152 176s149 -56 154 -162c0 -6 -3 -10 -9 -11l-56 -9
c-6 -2 -11 2 -11 8c-2 67 -24 100 -76 100c-50 0 -74 -30 -74 -99c0 -70 16 -94 71 -115l41 -16c87 -35 118 -80 118 -193zM307 752h-42c-7 0 -12 3 -17 10l-52 71h-2l-52 -71c-5 -7 -10 -10 -17 -10h-42c-6 0 -9 4 -5 10l82 123c4 7 9 10 17 10h36c8 0 13 -3 17 -10
l82 -123c4 -6 1 -10 -5 -10z" />
    <glyph glyph-name="Scaron" unicode="&#x160;" horiz-adv-x="392" 
d="M354 192c0 -137 -43 -201 -158 -201c-103 0 -155 58 -160 175c0 6 2 10 8 11l59 11c7 1 11 -3 11 -9c4 -84 31 -114 83 -114s76 25 76 117c0 78 -15 107 -69 128l-41 16c-93 36 -119 82 -119 187c0 116 50 176 152 176s149 -56 154 -162c0 -6 -3 -10 -9 -11l-56 -9
c-6 -2 -11 2 -11 8c-2 67 -24 100 -76 100c-50 0 -74 -30 -74 -99c0 -70 16 -94 71 -115l41 -16c87 -35 118 -80 118 -193zM208 750h-36c-8 0 -13 3 -17 9l-82 124c-4 5 -1 10 5 10h42c7 0 12 -3 17 -10l52 -72h2l52 72c5 7 10 10 17 10h42c6 0 9 -5 5 -10l-82 -124
c-4 -6 -9 -9 -17 -9z" />
    <glyph glyph-name="Scedilla" unicode="&#x15e;" horiz-adv-x="392" 
d="M113 -142l54 135c-83 9 -127 67 -131 173c0 6 2 10 8 11l59 11c7 1 11 -3 11 -9c4 -84 31 -114 83 -114s76 25 76 117c0 78 -15 107 -69 128l-41 16c-93 36 -119 82 -119 187c0 116 50 176 152 176s149 -56 154 -162c0 -6 -3 -10 -9 -11l-56 -9c-6 -2 -11 2 -11 8
c-2 67 -24 100 -76 100c-50 0 -74 -30 -74 -99c0 -70 16 -94 71 -115l41 -16c87 -35 118 -80 118 -193c0 -123 -34 -187 -125 -199l-45 -135c-3 -7 -8 -10 -16 -10h-48c-6 0 -9 4 -7 10z" />
    <glyph glyph-name="Scommaaccent" unicode="&#x218;" horiz-adv-x="392" 
d="M167 -208c-5 0 -8 4 -8 10v135c0 6 4 10 10 10h53c6 0 10 -4 10 -10v-49c0 -10 -2 -15 -7 -22l-46 -66c-3 -6 -7 -8 -12 -8zM354 192c0 -137 -43 -201 -158 -201c-103 0 -155 58 -160 175c0 6 2 10 8 11l59 11c7 1 11 -3 11 -9c4 -84 31 -114 83 -114s76 25 76 117
c0 78 -15 107 -69 128l-41 16c-93 36 -119 82 -119 187c0 116 50 176 152 176s149 -56 154 -162c0 -6 -3 -10 -9 -11l-56 -9c-6 -2 -11 2 -11 8c-2 67 -24 100 -76 100c-50 0 -74 -30 -74 -99c0 -70 16 -94 71 -115l41 -16c87 -35 118 -80 118 -193z" />
    <glyph glyph-name="Tcaron" unicode="&#x164;" horiz-adv-x="369" 
d="M205 750h-36c-8 0 -13 3 -17 9l-82 124c-4 5 -1 10 5 10h42c7 0 12 -3 17 -10l52 -72h2l52 72c5 7 10 10 17 10h42c6 0 9 -5 5 -10l-82 -124c-4 -6 -9 -9 -17 -9zM215 0h-61c-6 0 -10 4 -10 10v589c0 4 -2 6 -6 6h-112c-6 0 -10 4 -10 10v55c0 6 4 10 10 10h317
c6 0 10 -4 10 -10v-55c0 -6 -4 -10 -10 -10h-112c-4 0 -6 -2 -6 -6v-589c0 -6 -4 -10 -10 -10z" />
    <glyph glyph-name="Tcommaaccent" unicode="&#x162;" horiz-adv-x="369" 
d="M159 -208c-5 0 -8 4 -8 10v135c0 6 4 10 10 10h53c6 0 10 -4 10 -10v-49c0 -10 -2 -15 -7 -22l-46 -66c-3 -6 -7 -8 -12 -8zM215 0h-61c-6 0 -10 4 -10 10v589c0 4 -2 6 -6 6h-112c-6 0 -10 4 -10 10v55c0 6 4 10 10 10h317c6 0 10 -4 10 -10v-55c0 -6 -4 -10 -10 -10
h-112c-4 0 -6 -2 -6 -6v-589c0 -6 -4 -10 -10 -10z" />
    <glyph glyph-name="uni021A" unicode="&#x21a;" horiz-adv-x="369" 
d="M159 -208c-5 0 -8 4 -8 10v135c0 6 4 10 10 10h53c6 0 10 -4 10 -10v-49c0 -10 -2 -15 -7 -22l-46 -66c-3 -6 -7 -8 -12 -8zM215 0h-61c-6 0 -10 4 -10 10v589c0 4 -2 6 -6 6h-112c-6 0 -10 4 -10 10v55c0 6 4 10 10 10h317c6 0 10 -4 10 -10v-55c0 -6 -4 -10 -10 -10
h-112c-4 0 -6 -2 -6 -6v-589c0 -6 -4 -10 -10 -10z" />
    <glyph glyph-name="Tbar" unicode="&#x166;" horiz-adv-x="369" 
d="M215 0h-61c-6 0 -10 4 -10 10v366c0 4 -2 6 -6 6h-68c-6 0 -10 4 -10 10v50c0 6 4 10 10 10h68c4 0 6 2 6 6v141c0 4 -2 6 -6 6h-112c-6 0 -10 4 -10 10v55c0 6 4 10 10 10h317c6 0 10 -4 10 -10v-55c0 -6 -4 -10 -10 -10h-112c-4 0 -6 -2 -6 -6v-141c0 -4 2 -6 6 -6h68
c6 0 10 -4 10 -10v-50c0 -6 -4 -10 -10 -10h-68c-4 0 -6 -2 -6 -6v-366c0 -6 -4 -10 -10 -10z" />
    <glyph glyph-name="Thorn" unicode="&#xde;" horiz-adv-x="407" 
d="M189 146h-42c-4 0 -6 -2 -6 -6v-130c0 -6 -4 -10 -10 -10h-61c-6 0 -10 4 -10 10v660c0 6 4 10 10 10h61c6 0 10 -4 10 -10v-110c0 -4 2 -6 6 -6h42c120 0 184 -54 184 -204c0 -147 -65 -204 -184 -204zM189 221c74 0 103 32 103 129c0 96 -29 129 -103 129h-42
c-4 0 -6 -2 -6 -6v-246c0 -4 2 -6 6 -6h42z" />
    <glyph glyph-name="Ugrave" unicode="&#xd9;" horiz-adv-x="436" 
d="M246 763h-39c-8 0 -12 2 -19 10l-93 105c-4 5 -1 10 5 10h58c9 0 12 -3 17 -10l76 -105c4 -5 1 -10 -5 -10zM218 -9c-97 0 -159 59 -159 176v503c0 6 4 10 10 10h61c6 0 10 -4 10 -10v-513c0 -59 30 -90 78 -90s78 31 78 90v513c0 6 4 10 10 10h61c6 0 10 -4 10 -10v-503
c0 -117 -62 -176 -159 -176z" />
    <glyph glyph-name="Uacute" unicode="&#xda;" horiz-adv-x="436" 
d="M232 763h-38c-6 0 -10 5 -6 10l77 105c5 7 8 10 16 10h58c6 0 9 -5 5 -10l-93 -105c-7 -8 -11 -10 -19 -10zM218 -9c-97 0 -159 59 -159 176v503c0 6 4 10 10 10h61c6 0 10 -4 10 -10v-513c0 -59 30 -90 78 -90s78 31 78 90v513c0 6 4 10 10 10h61c6 0 10 -4 10 -10v-503
c0 -117 -62 -176 -159 -176z" />
    <glyph glyph-name="Ucircumflex" unicode="&#xdb;" horiz-adv-x="436" 
d="M218 -9c-97 0 -159 59 -159 176v503c0 6 4 10 10 10h61c6 0 10 -4 10 -10v-513c0 -59 30 -90 78 -90s78 31 78 90v513c0 6 4 10 10 10h61c6 0 10 -4 10 -10v-503c0 -117 -62 -176 -159 -176zM330 752h-42c-7 0 -12 3 -17 10l-52 71h-2l-52 -71c-5 -7 -10 -10 -17 -10h-42
c-6 0 -9 4 -5 10l82 123c4 7 9 10 17 10h36c8 0 13 -3 17 -10l82 -123c4 -6 1 -10 -5 -10z" />
    <glyph glyph-name="Utilde" unicode="&#x168;" horiz-adv-x="436" 
d="M259 773c-20 0 -34 8 -49 19c-14 10 -23 16 -35 16c-19 0 -30 -10 -44 -27c-5 -5 -12 -4 -12 3v47c0 6 2 11 9 18c12 13 27 24 48 24c20 0 33 -9 48 -19c15 -11 23 -17 36 -17c19 0 30 11 44 28c4 5 11 3 11 -4v-47c0 -6 -1 -10 -8 -17c-12 -14 -27 -24 -48 -24zM218 -9
c-97 0 -159 59 -159 176v503c0 6 4 10 10 10h61c6 0 10 -4 10 -10v-513c0 -59 30 -90 78 -90s78 31 78 90v513c0 6 4 10 10 10h61c6 0 10 -4 10 -10v-503c0 -117 -62 -176 -159 -176z" />
    <glyph glyph-name="Udieresis" unicode="&#xdc;" horiz-adv-x="436" 
d="M316 777h-51c-6 0 -10 4 -10 10v72c0 6 4 10 10 10h51c6 0 10 -4 10 -10v-72c0 -6 -4 -10 -10 -10zM171 777h-51c-6 0 -10 4 -10 10v72c0 6 4 10 10 10h51c6 0 10 -4 10 -10v-72c0 -6 -4 -10 -10 -10zM218 -9c-97 0 -159 59 -159 176v503c0 6 4 10 10 10h61
c6 0 10 -4 10 -10v-513c0 -59 30 -90 78 -90s78 31 78 90v513c0 6 4 10 10 10h61c6 0 10 -4 10 -10v-503c0 -117 -62 -176 -159 -176z" />
    <glyph glyph-name="Umacron" unicode="&#x16a;" horiz-adv-x="436" 
d="M315 790h-194c-6 0 -10 4 -10 10v43c0 6 4 10 10 10h194c6 0 10 -4 10 -10v-43c0 -6 -4 -10 -10 -10zM218 -9c-97 0 -159 59 -159 176v503c0 6 4 10 10 10h61c6 0 10 -4 10 -10v-513c0 -59 30 -90 78 -90s78 31 78 90v513c0 6 4 10 10 10h61c6 0 10 -4 10 -10v-503
c0 -117 -62 -176 -159 -176z" />
    <glyph glyph-name="Ubreve" unicode="&#x16c;" horiz-adv-x="436" 
d="M218 753c-71 0 -108 48 -114 111c0 6 4 10 10 10h32c6 0 9 -4 10 -10c10 -34 30 -55 62 -55s52 21 61 55c2 6 4 10 11 10h32c6 0 10 -4 10 -10c-6 -63 -43 -111 -114 -111zM218 -9c-97 0 -159 59 -159 176v503c0 6 4 10 10 10h61c6 0 10 -4 10 -10v-513
c0 -59 30 -90 78 -90s78 31 78 90v513c0 6 4 10 10 10h61c6 0 10 -4 10 -10v-503c0 -117 -62 -176 -159 -176z" />
    <glyph glyph-name="Uring" unicode="&#x16e;" horiz-adv-x="436" 
d="M218 -9c-97 0 -159 59 -159 176v503c0 6 4 10 10 10h61c6 0 10 -4 10 -10v-513c0 -59 30 -90 78 -90s78 31 78 90v513c0 6 4 10 10 10h61c6 0 10 -4 10 -10v-503c0 -117 -62 -176 -159 -176zM218 731c-50 0 -86 37 -86 86c0 50 36 86 86 86c49 0 86 -36 86 -86
c0 -49 -37 -86 -86 -86zM218 768c27 0 47 21 47 49s-20 49 -47 49s-47 -21 -47 -49s20 -49 47 -49z" />
    <glyph glyph-name="Uhungarumlaut" unicode="&#x170;" horiz-adv-x="436" 
d="M218 -9c-97 0 -159 59 -159 176v503c0 6 4 10 10 10h61c6 0 10 -4 10 -10v-513c0 -59 30 -90 78 -90s78 31 78 90v513c0 6 4 10 10 10h61c6 0 10 -4 10 -10v-503c0 -117 -62 -176 -159 -176zM293 763h-35c-6 0 -9 4 -5 10l68 105c4 6 8 10 16 10h49c6 0 8 -5 5 -10
l-80 -105c-6 -8 -10 -10 -18 -10zM169 763h-34c-6 0 -9 4 -5 10l67 105c4 6 9 10 17 10h49c6 0 8 -5 4 -10l-79 -105c-6 -8 -11 -10 -19 -10z" />
    <glyph glyph-name="Uogonek" unicode="&#x172;" horiz-adv-x="436" 
d="M221 -181c-45 0 -76 26 -76 73c0 33 10 58 44 102c-78 10 -130 67 -130 173v503c0 6 4 10 10 10h61c6 0 10 -4 10 -10v-513c0 -59 30 -90 78 -90s78 31 78 90v513c0 6 4 10 10 10h61c6 0 10 -4 10 -10v-503c0 -102 -48 -160 -121 -172c-40 -51 -47 -72 -47 -91
c0 -17 9 -26 22 -26c8 0 14 2 20 6c5 3 11 2 13 -3l14 -34c3 -5 1 -10 -4 -13c-12 -8 -33 -15 -53 -15z" />
    <glyph glyph-name="Wacute" unicode="&#x1e82;" horiz-adv-x="576" 
d="M307 763h-38c-6 0 -10 5 -6 10l77 105c5 7 8 10 16 10h58c6 0 9 -5 5 -10l-93 -105c-7 -8 -11 -10 -19 -10zM433 0h-54c-6 0 -9 4 -10 10l-79 484h-2l-82 -484c-1 -6 -4 -10 -10 -10h-53c-6 0 -9 4 -10 10l-108 660c-1 6 1 10 8 10h61c6 0 10 -3 11 -10l66 -488h2l83 488
c1 7 4 10 10 10h44c6 0 9 -3 10 -10l83 -488h2l68 488c1 7 5 10 11 10h59c7 0 9 -4 8 -10l-108 -660c-1 -6 -4 -10 -10 -10z" />
    <glyph glyph-name="Wcircumflex" unicode="&#x174;" horiz-adv-x="576" 
d="M433 0h-54c-6 0 -9 4 -10 10l-79 484h-2l-82 -484c-1 -6 -4 -10 -10 -10h-53c-6 0 -9 4 -10 10l-108 660c-1 6 1 10 8 10h61c6 0 10 -3 11 -10l66 -488h2l83 488c1 7 4 10 10 10h44c6 0 9 -3 10 -10l83 -488h2l68 488c1 7 5 10 11 10h59c7 0 9 -4 8 -10l-108 -660
c-1 -6 -4 -10 -10 -10zM399 752h-42c-7 0 -12 3 -17 10l-52 71h-2l-52 -71c-5 -7 -10 -10 -17 -10h-42c-6 0 -9 4 -5 10l82 123c4 7 9 10 17 10h36c8 0 13 -3 17 -10l82 -123c4 -6 1 -10 -5 -10z" />
    <glyph glyph-name="Wdieresis" unicode="&#x1e84;" horiz-adv-x="576" 
d="M385 777h-51c-6 0 -10 4 -10 10v72c0 6 4 10 10 10h51c6 0 10 -4 10 -10v-72c0 -6 -4 -10 -10 -10zM240 777h-51c-6 0 -10 4 -10 10v72c0 6 4 10 10 10h51c6 0 10 -4 10 -10v-72c0 -6 -4 -10 -10 -10zM433 0h-54c-6 0 -9 4 -10 10l-79 484h-2l-82 -484
c-1 -6 -4 -10 -10 -10h-53c-6 0 -9 4 -10 10l-108 660c-1 6 1 10 8 10h61c6 0 10 -3 11 -10l66 -488h2l83 488c1 7 4 10 10 10h44c6 0 9 -3 10 -10l83 -488h2l68 488c1 7 5 10 11 10h59c7 0 9 -4 8 -10l-108 -660c-1 -6 -4 -10 -10 -10z" />
    <glyph glyph-name="Wgrave" unicode="&#x1e80;" horiz-adv-x="576" 
d="M308 763h-39c-8 0 -12 2 -19 10l-93 105c-4 5 -1 10 5 10h58c9 0 12 -3 17 -10l76 -105c4 -5 1 -10 -5 -10zM433 0h-54c-6 0 -9 4 -10 10l-79 484h-2l-82 -484c-1 -6 -4 -10 -10 -10h-53c-6 0 -9 4 -10 10l-108 660c-1 6 1 10 8 10h61c6 0 10 -3 11 -10l66 -488h2l83 488
c1 7 4 10 10 10h44c6 0 9 -3 10 -10l83 -488h2l68 488c1 7 5 10 11 10h59c7 0 9 -4 8 -10l-108 -660c-1 -6 -4 -10 -10 -10z" />
    <glyph glyph-name="Yacute" unicode="&#xdd;" horiz-adv-x="375" 
d="M218 0h-61c-6 0 -10 4 -10 10v271l-131 389c-2 6 0 10 7 10h63c7 0 10 -3 12 -10l89 -285h3l89 285c2 7 5 10 11 10h62c7 0 9 -4 7 -10l-131 -389v-271c0 -6 -4 -10 -10 -10zM199 763h-38c-6 0 -10 5 -6 10l77 105c5 7 8 10 16 10h58c6 0 9 -5 5 -10l-93 -105
c-7 -8 -11 -10 -19 -10z" />
    <glyph glyph-name="Ycircumflex" unicode="&#x176;" horiz-adv-x="375" 
d="M218 0h-61c-6 0 -10 4 -10 10v271l-131 389c-2 6 0 10 7 10h63c7 0 10 -3 12 -10l89 -285h3l89 285c2 7 5 10 11 10h62c7 0 9 -4 7 -10l-131 -389v-271c0 -6 -4 -10 -10 -10zM299 752h-42c-7 0 -12 3 -17 10l-52 71h-2l-52 -71c-5 -7 -10 -10 -17 -10h-42
c-6 0 -9 4 -5 10l82 123c4 7 9 10 17 10h36c8 0 13 -3 17 -10l82 -123c4 -6 1 -10 -5 -10z" />
    <glyph glyph-name="Ydieresis" unicode="&#x178;" horiz-adv-x="375" 
d="M218 0h-61c-6 0 -10 4 -10 10v271l-131 389c-2 6 0 10 7 10h63c7 0 10 -3 12 -10l89 -285h3l89 285c2 7 5 10 11 10h62c7 0 9 -4 7 -10l-131 -389v-271c0 -6 -4 -10 -10 -10zM285 777h-51c-6 0 -10 4 -10 10v72c0 6 4 10 10 10h51c6 0 10 -4 10 -10v-72
c0 -6 -4 -10 -10 -10zM140 777h-51c-6 0 -10 4 -10 10v72c0 6 4 10 10 10h51c6 0 10 -4 10 -10v-72c0 -6 -4 -10 -10 -10z" />
    <glyph glyph-name="Ygrave" unicode="&#x1ef2;" horiz-adv-x="375" 
d="M218 0h-61c-6 0 -10 4 -10 10v271l-131 389c-2 6 0 10 7 10h63c7 0 10 -3 12 -10l89 -285h3l89 285c2 7 5 10 11 10h62c7 0 9 -4 7 -10l-131 -389v-271c0 -6 -4 -10 -10 -10zM222 763h-39c-8 0 -12 2 -19 10l-93 105c-4 5 -1 10 5 10h58c9 0 12 -3 17 -10l76 -105
c4 -5 1 -10 -5 -10z" />
    <glyph glyph-name="Zacute" unicode="&#x179;" horiz-adv-x="362" 
d="M318 0h-273c-6 0 -10 4 -10 10v52c0 5 1 9 2 12l206 529v2h-188c-6 0 -10 4 -10 10v55c0 6 4 10 10 10h263c6 0 10 -4 10 -10v-53c0 -5 -1 -9 -2 -12l-206 -528v-2h198c6 0 10 -4 10 -10v-55c0 -6 -4 -10 -10 -10zM192 763h-38c-6 0 -10 5 -6 10l77 105c5 7 8 10 16 10
h58c6 0 9 -5 5 -10l-93 -105c-7 -8 -11 -10 -19 -10z" />
    <glyph glyph-name="Zcaron" unicode="&#x17d;" horiz-adv-x="362" 
d="M202 750h-36c-8 0 -13 3 -17 9l-82 124c-4 5 -1 10 5 10h42c7 0 12 -3 17 -10l52 -72h2l52 72c5 7 10 10 17 10h42c6 0 9 -5 5 -10l-82 -124c-4 -6 -9 -9 -17 -9zM318 0h-273c-6 0 -10 4 -10 10v52c0 5 1 9 2 12l206 529v2h-188c-6 0 -10 4 -10 10v55c0 6 4 10 10 10h263
c6 0 10 -4 10 -10v-53c0 -5 -1 -9 -2 -12l-206 -528v-2h198c6 0 10 -4 10 -10v-55c0 -6 -4 -10 -10 -10z" />
    <glyph glyph-name="Zdotaccent" unicode="&#x17b;" horiz-adv-x="362" 
d="M215 777h-63c-6 0 -10 4 -10 10v72c0 6 4 10 10 10h63c6 0 10 -4 10 -10v-72c0 -6 -4 -10 -10 -10zM318 0h-273c-6 0 -10 4 -10 10v52c0 5 1 9 2 12l206 529v2h-188c-6 0 -10 4 -10 10v55c0 6 4 10 10 10h263c6 0 10 -4 10 -10v-53c0 -5 -1 -9 -2 -12l-206 -528v-2h198
c6 0 10 -4 10 -10v-55c0 -6 -4 -10 -10 -10z" />
    <glyph glyph-name="agrave" unicode="&#xe0;" horiz-adv-x="371" 
d="M308 0h-54c-6 0 -10 4 -10 10v41h-1c-13 -37 -47 -60 -90 -60c-57 0 -113 35 -113 142c0 108 61 148 141 148h57c4 0 6 2 6 6v39c0 64 -19 91 -71 91c-35 0 -58 -14 -81 -32c-6 -4 -13 -3 -16 4l-19 39c-3 6 -3 11 2 16c28 26 72 44 123 44c96 0 136 -44 136 -158v-320
c0 -6 -4 -10 -10 -10zM174 57c41 0 70 35 70 87v66c0 4 -2 6 -6 6h-45c-57 0 -79 -28 -79 -81c0 -52 22 -78 60 -78zM213 557h-40c-8 0 -11 2 -17 10l-87 123c-3 5 -1 10 5 10h59c8 0 12 -3 16 -10l69 -123c3 -6 1 -10 -5 -10z" />
    <glyph glyph-name="aacute" unicode="&#xe1;" horiz-adv-x="371" 
d="M308 0h-54c-6 0 -10 4 -10 10v41h-1c-13 -37 -47 -60 -90 -60c-57 0 -113 35 -113 142c0 108 61 148 141 148h57c4 0 6 2 6 6v39c0 64 -19 91 -71 91c-35 0 -58 -14 -81 -32c-6 -4 -13 -3 -16 4l-19 39c-3 6 -3 11 2 16c28 26 72 44 123 44c96 0 136 -44 136 -158v-320
c0 -6 -4 -10 -10 -10zM174 57c41 0 70 35 70 87v66c0 4 -2 6 -6 6h-45c-57 0 -79 -28 -79 -81c0 -52 22 -78 60 -78zM190 557h-40c-6 0 -8 4 -5 10l69 123c4 7 8 10 16 10h59c6 0 8 -5 5 -10l-87 -123c-6 -8 -9 -10 -17 -10z" />
    <glyph glyph-name="acircumflex" unicode="&#xe2;" horiz-adv-x="371" 
d="M308 0h-54c-6 0 -10 4 -10 10v41h-1c-13 -37 -47 -60 -90 -60c-57 0 -113 35 -113 142c0 108 61 148 141 148h57c4 0 6 2 6 6v39c0 64 -19 91 -71 91c-35 0 -58 -14 -81 -32c-6 -4 -13 -3 -16 4l-19 39c-3 6 -3 11 2 16c28 26 72 44 123 44c96 0 136 -44 136 -158v-320
c0 -6 -4 -10 -10 -10zM174 57c41 0 70 35 70 87v66c0 4 -2 6 -6 6h-45c-57 0 -79 -28 -79 -81c0 -52 22 -78 60 -78zM298 557h-42c-7 0 -12 3 -17 10l-52 71h-2l-52 -71c-5 -7 -10 -10 -17 -10h-42c-6 0 -9 4 -5 10l82 123c4 7 9 10 17 10h36c8 0 13 -3 17 -10l82 -123
c4 -6 1 -10 -5 -10z" />
    <glyph glyph-name="atilde" unicode="&#xe3;" horiz-adv-x="371" 
d="M308 0h-54c-6 0 -10 4 -10 10v41h-1c-13 -37 -47 -60 -90 -60c-57 0 -113 35 -113 142c0 108 61 148 141 148h57c4 0 6 2 6 6v39c0 64 -19 91 -71 91c-35 0 -58 -14 -81 -32c-6 -4 -13 -3 -16 4l-19 39c-3 6 -3 11 2 16c28 26 72 44 123 44c96 0 136 -44 136 -158v-320
c0 -6 -4 -10 -10 -10zM174 57c41 0 70 35 70 87v66c0 4 -2 6 -6 6h-45c-57 0 -79 -28 -79 -81c0 -52 22 -78 60 -78zM228 581c-20 0 -34 8 -49 19c-14 10 -23 16 -35 16c-19 0 -30 -10 -44 -27c-5 -5 -12 -4 -12 3v47c0 6 2 11 9 18c12 13 27 24 48 24c20 0 33 -9 48 -19
c15 -11 23 -17 36 -17c19 0 30 11 44 28c4 5 11 3 11 -4v-47c0 -6 -1 -10 -8 -17c-12 -14 -27 -24 -48 -24z" />
    <glyph glyph-name="adieresis" unicode="&#xe4;" horiz-adv-x="371" 
d="M308 0h-54c-6 0 -10 4 -10 10v41h-1c-13 -37 -47 -60 -90 -60c-57 0 -113 35 -113 142c0 108 61 148 141 148h57c4 0 6 2 6 6v39c0 64 -19 91 -71 91c-35 0 -58 -14 -81 -32c-6 -4 -13 -3 -16 4l-19 39c-3 6 -3 11 2 16c28 26 72 44 123 44c96 0 136 -44 136 -158v-320
c0 -6 -4 -10 -10 -10zM174 57c41 0 70 35 70 87v66c0 4 -2 6 -6 6h-45c-57 0 -79 -28 -79 -81c0 -52 22 -78 60 -78zM284 588h-51c-6 0 -10 4 -10 10v72c0 6 4 10 10 10h51c6 0 10 -4 10 -10v-72c0 -6 -4 -10 -10 -10zM139 588h-51c-6 0 -10 4 -10 10v72c0 6 4 10 10 10h51
c6 0 10 -4 10 -10v-72c0 -6 -4 -10 -10 -10z" />
    <glyph glyph-name="amacron" unicode="&#x101;" horiz-adv-x="371" 
d="M308 0h-54c-6 0 -10 4 -10 10v41h-1c-13 -37 -47 -60 -90 -60c-57 0 -113 35 -113 142c0 108 61 148 141 148h57c4 0 6 2 6 6v39c0 64 -19 91 -71 91c-35 0 -58 -14 -81 -32c-6 -4 -13 -3 -16 4l-19 39c-3 6 -3 11 2 16c28 26 72 44 123 44c96 0 136 -44 136 -158v-320
c0 -6 -4 -10 -10 -10zM174 57c41 0 70 35 70 87v66c0 4 -2 6 -6 6h-45c-57 0 -79 -28 -79 -81c0 -52 22 -78 60 -78zM283 603h-194c-6 0 -10 4 -10 10v43c0 6 4 10 10 10h194c6 0 10 -4 10 -10v-43c0 -6 -4 -10 -10 -10z" />
    <glyph glyph-name="abreve" unicode="&#x103;" horiz-adv-x="371" 
d="M308 0h-54c-6 0 -10 4 -10 10v41h-1c-13 -37 -47 -60 -90 -60c-57 0 -113 35 -113 142c0 108 61 148 141 148h57c4 0 6 2 6 6v39c0 64 -19 91 -71 91c-35 0 -58 -14 -81 -32c-6 -4 -13 -3 -16 4l-19 39c-3 6 -3 11 2 16c28 26 72 44 123 44c96 0 136 -44 136 -158v-320
c0 -6 -4 -10 -10 -10zM174 57c41 0 70 35 70 87v66c0 4 -2 6 -6 6h-45c-57 0 -79 -28 -79 -81c0 -52 22 -78 60 -78zM186 563c-71 0 -108 48 -114 111c0 6 4 10 10 10h32c6 0 9 -4 10 -10c10 -33 30 -54 62 -54s52 21 61 54c2 6 4 10 11 10h32c6 0 10 -4 10 -10
c-6 -63 -43 -111 -114 -111z" />
    <glyph glyph-name="aring" unicode="&#xe5;" horiz-adv-x="371" 
d="M308 0h-54c-6 0 -10 4 -10 10v41h-1c-13 -37 -47 -60 -90 -60c-57 0 -113 35 -113 142c0 108 61 148 141 148h57c4 0 6 2 6 6v39c0 64 -19 91 -71 91c-35 0 -58 -14 -81 -32c-6 -4 -13 -3 -16 4l-19 39c-3 6 -3 11 2 16c28 26 72 44 123 44c96 0 136 -44 136 -158v-320
c0 -6 -4 -10 -10 -10zM174 57c41 0 70 35 70 87v66c0 4 -2 6 -6 6h-45c-57 0 -79 -28 -79 -81c0 -52 22 -78 60 -78zM186 546c-50 0 -86 37 -86 86c0 50 36 87 86 87c49 0 86 -37 86 -87c0 -49 -37 -86 -86 -86zM186 583c27 0 47 21 47 49s-20 49 -47 49s-47 -21 -47 -49
s20 -49 47 -49z" />
    <glyph glyph-name="aringacute" unicode="&#x1fb;" horiz-adv-x="371" 
d="M197 775h-38c-6 0 -8 5 -4 10l82 93c6 7 11 10 21 10h56c6 0 8 -6 4 -10l-100 -93c-9 -8 -13 -10 -21 -10zM308 0h-54c-6 0 -10 4 -10 10v41h-1c-13 -37 -47 -60 -90 -60c-57 0 -113 35 -113 142c0 108 61 148 141 148h57c4 0 6 2 6 6v39c0 64 -19 91 -71 91
c-35 0 -58 -14 -81 -32c-6 -4 -13 -3 -16 4l-19 39c-3 6 -3 11 2 16c28 26 72 44 123 44c96 0 136 -44 136 -158v-320c0 -6 -4 -10 -10 -10zM174 57c41 0 70 35 70 87v66c0 4 -2 6 -6 6h-45c-57 0 -79 -28 -79 -81c0 -52 22 -78 60 -78zM186 546c-50 0 -86 37 -86 86
c0 50 36 87 86 87c49 0 86 -37 86 -87c0 -49 -37 -86 -86 -86zM186 583c27 0 47 21 47 49s-20 49 -47 49s-47 -21 -47 -49s20 -49 47 -49z" />
    <glyph glyph-name="aogonek" unicode="&#x105;" horiz-adv-x="371" 
d="M173 417c-35 0 -58 -14 -81 -32c-6 -4 -13 -3 -16 4l-19 39c-3 6 -3 11 2 16c28 26 72 44 123 44c96 0 136 -44 136 -158v-320c0 -6 -1 -8 -5 -11c-45 -40 -68 -70 -68 -95c0 -17 9 -26 22 -26c9 0 14 2 20 6c5 3 11 2 13 -3l14 -34c3 -5 1 -10 -4 -13
c-12 -8 -33 -15 -53 -15c-45 0 -76 26 -76 73c0 37 21 72 63 113v46h-1c-13 -37 -47 -60 -90 -60c-57 0 -113 35 -113 142c0 108 61 148 141 148h57c4 0 6 2 6 6v39c0 64 -19 91 -71 91zM174 57c41 0 70 35 70 87v66c0 4 -2 6 -6 6h-45c-57 0 -79 -28 -79 -81
c0 -52 22 -78 60 -78z" />
    <glyph glyph-name="ae" unicode="&#xe6;" horiz-adv-x="565" 
d="M173 417c-35 0 -58 -14 -81 -32c-6 -4 -13 -3 -16 4l-19 39c-3 6 -3 11 2 16c28 26 72 44 123 44c47 0 82 -13 103 -42h1c21 28 55 42 96 42c67 0 110 -32 129 -89c7 -22 11 -48 11 -173c0 -6 -4 -10 -10 -10h-188c-4 0 -6 -2 -6 -6c0 -77 3 -93 7 -106
c10 -27 28 -41 56 -41c34 0 54 17 64 54c2 7 6 9 12 8l53 -11c6 -1 8 -6 7 -12c-13 -69 -64 -111 -137 -111c-52 0 -92 20 -115 63h-1c-29 -46 -63 -63 -111 -63c-56 0 -113 36 -113 142c0 108 61 148 141 148h57c4 0 6 2 6 6v39c0 64 -19 91 -71 91zM439 281c4 0 6 2 6 6
c0 62 -3 78 -7 91c-8 25 -28 40 -56 40c-29 0 -49 -15 -57 -40c-4 -13 -7 -29 -7 -91c0 -4 2 -6 6 -6h115zM174 57c41 0 70 35 70 87v66c0 4 -2 6 -6 6h-45c-57 0 -79 -28 -79 -81c0 -52 22 -78 60 -78z" />
    <glyph glyph-name="aeacute" unicode="&#x1fd;" horiz-adv-x="565" 
d="M304 557h-40c-6 0 -8 4 -5 10l69 123c4 7 8 10 16 10h59c6 0 8 -5 5 -10l-87 -123c-6 -8 -9 -10 -17 -10zM173 417c-35 0 -58 -14 -81 -32c-6 -4 -13 -3 -16 4l-19 39c-3 6 -3 11 2 16c28 26 72 44 123 44c47 0 82 -13 103 -42h1c21 28 55 42 96 42c67 0 110 -32 129 -89
c7 -22 11 -48 11 -173c0 -6 -4 -10 -10 -10h-188c-4 0 -6 -2 -6 -6c0 -77 3 -93 7 -106c10 -27 28 -41 56 -41c34 0 54 17 64 54c2 7 6 9 12 8l53 -11c6 -1 8 -6 7 -12c-13 -69 -64 -111 -137 -111c-52 0 -92 20 -115 63h-1c-29 -46 -63 -63 -111 -63
c-56 0 -113 36 -113 142c0 108 61 148 141 148h57c4 0 6 2 6 6v39c0 64 -19 91 -71 91zM439 281c4 0 6 2 6 6c0 62 -3 78 -7 91c-8 25 -28 40 -56 40c-29 0 -49 -15 -57 -40c-4 -13 -7 -29 -7 -91c0 -4 2 -6 6 -6h115zM174 57c41 0 70 35 70 87v66c0 4 -2 6 -6 6h-45
c-57 0 -79 -28 -79 -81c0 -52 22 -78 60 -78z" />
    <glyph glyph-name="cacute" unicode="&#x107;" horiz-adv-x="347" 
d="M200 557h-40c-6 0 -8 4 -5 10l69 123c4 7 8 10 16 10h59c6 0 8 -5 5 -10l-87 -123c-6 -8 -9 -10 -17 -10zM184 -9c-66 0 -109 31 -128 89c-9 28 -11 45 -11 160s2 131 11 159c19 58 62 89 128 89c76 0 127 -47 134 -123c0 -6 -1 -9 -7 -11l-54 -10c-6 -2 -11 1 -12 8
c-7 45 -28 64 -61 64c-27 0 -47 -12 -56 -39c-6 -18 -6 -29 -6 -137s0 -120 6 -138c9 -27 29 -39 56 -39c33 0 54 19 61 64c1 7 6 10 12 8l54 -10c6 -2 7 -5 7 -11c-7 -76 -58 -123 -134 -123z" />
    <glyph glyph-name="ccircumflex" unicode="&#x109;" horiz-adv-x="347" 
d="M296 557h-42c-7 0 -12 3 -17 10l-52 71h-2l-52 -71c-5 -7 -10 -10 -17 -10h-42c-6 0 -9 4 -5 10l82 123c4 7 9 10 17 10h36c8 0 13 -3 17 -10l82 -123c4 -6 1 -10 -5 -10zM184 -9c-66 0 -109 31 -128 89c-9 28 -11 45 -11 160s2 131 11 159c19 58 62 89 128 89
c76 0 127 -47 134 -123c0 -6 -1 -9 -7 -11l-54 -10c-6 -2 -11 1 -12 8c-7 45 -28 64 -61 64c-27 0 -47 -12 -56 -39c-6 -18 -6 -29 -6 -137s0 -120 6 -138c9 -27 29 -39 56 -39c33 0 54 19 61 64c1 7 6 10 12 8l54 -10c6 -2 7 -5 7 -11c-7 -76 -58 -123 -134 -123z" />
    <glyph glyph-name="ccaron" unicode="&#x10d;" horiz-adv-x="347" 
d="M202 556h-36c-8 0 -13 3 -17 10l-82 123c-4 6 -1 10 5 10h42c7 0 12 -3 17 -10l52 -71h2l52 71c5 7 10 10 17 10h42c6 0 9 -4 5 -10l-82 -123c-4 -7 -9 -10 -17 -10zM184 -9c-66 0 -109 31 -128 89c-9 28 -11 45 -11 160s2 131 11 159c19 58 62 89 128 89
c76 0 127 -47 134 -123c0 -6 -1 -9 -7 -11l-54 -10c-6 -2 -11 1 -12 8c-7 45 -28 64 -61 64c-27 0 -47 -12 -56 -39c-6 -18 -6 -29 -6 -137s0 -120 6 -138c9 -27 29 -39 56 -39c33 0 54 19 61 64c1 7 6 10 12 8l54 -10c6 -2 7 -5 7 -11c-7 -76 -58 -123 -134 -123z" />
    <glyph glyph-name="cdotaccent" unicode="&#x10b;" horiz-adv-x="347" 
d="M184 -9c-66 0 -109 31 -128 89c-9 28 -11 45 -11 160s2 131 11 159c19 58 62 89 128 89c76 0 127 -47 134 -123c0 -6 -1 -9 -7 -11l-54 -10c-6 -2 -11 1 -12 8c-7 45 -28 64 -61 64c-27 0 -47 -12 -56 -39c-6 -18 -6 -29 -6 -137s0 -120 6 -138c9 -27 29 -39 56 -39
c33 0 54 19 61 64c1 7 6 10 12 8l54 -10c6 -2 7 -5 7 -11c-7 -76 -58 -123 -134 -123zM206 588h-63c-6 0 -10 4 -10 10v72c0 6 4 10 10 10h63c6 0 10 -4 10 -10v-72c0 -6 -4 -10 -10 -10z" />
    <glyph glyph-name="ccedilla" unicode="&#xe7;" horiz-adv-x="347" 
d="M94 -142l54 136c-46 9 -77 39 -92 86c-9 28 -11 45 -11 160s2 131 11 159c19 58 62 89 128 89c76 0 127 -47 134 -123c0 -6 -1 -9 -7 -11l-54 -10c-6 -2 -11 1 -12 8c-7 45 -28 64 -61 64c-27 0 -47 -12 -56 -39c-6 -18 -6 -29 -6 -137s0 -120 6 -138
c9 -27 29 -39 56 -39c33 0 54 19 61 64c1 7 6 10 12 8l54 -10c6 -2 7 -5 7 -11c-6 -67 -46 -112 -108 -121l-45 -135c-3 -7 -8 -10 -16 -10h-48c-6 0 -9 4 -7 10z" />
    <glyph glyph-name="dcaron" unicode="&#x10f;" horiz-adv-x="389" 
d="M369 524c-6 0 -9 3 -9 9v137c0 6 4 10 10 10h52c6 0 10 -4 10 -10v-50c0 -11 -1 -15 -6 -23l-45 -66c-3 -5 -7 -7 -12 -7zM321 0h-57c-6 0 -10 4 -10 10v39h-1c-13 -32 -39 -58 -91 -58s-87 25 -104 78c-9 28 -12 53 -12 171s3 143 12 170c17 53 52 78 104 78
s78 -25 91 -58h1v240c0 6 4 10 10 10h57c6 0 10 -4 10 -10v-660c0 -6 -4 -10 -10 -10zM189 63c29 0 49 16 58 42c5 17 7 30 7 135c0 104 -2 117 -7 134c-9 26 -29 42 -58 42c-30 0 -50 -15 -59 -42c-5 -17 -7 -30 -7 -134c0 -105 2 -118 7 -135c9 -27 29 -42 59 -42z" />
    <glyph glyph-name="dcroat" unicode="&#x111;" horiz-adv-x="389" 
d="M321 0h-57c-6 0 -10 4 -10 10v39h-1c-13 -32 -39 -58 -91 -58s-87 25 -104 78c-9 28 -12 53 -12 171s3 143 12 170c17 53 52 78 104 78s78 -25 91 -58h1v114c0 4 -2 6 -6 6h-79c-6 0 -10 4 -10 10v41c0 6 4 10 10 10h79c4 0 6 2 6 6v53c0 6 4 10 10 10h57
c6 0 10 -4 10 -10v-53c0 -4 2 -6 6 -6h24c6 0 10 -4 10 -10v-41c0 -6 -4 -10 -10 -10h-24c-4 0 -6 -2 -6 -6v-534c0 -6 -4 -10 -10 -10zM189 63c29 0 49 16 58 42c5 17 7 30 7 135c0 104 -2 117 -7 134c-9 26 -29 42 -58 42c-30 0 -50 -15 -59 -42c-5 -17 -7 -30 -7 -134
c0 -105 2 -118 7 -135c9 -27 29 -42 59 -42z" />
    <glyph glyph-name="eth" unicode="&#xf0;" horiz-adv-x="374" 
d="M294 580l-52 -17l28 -53c50 -96 59 -139 59 -277c0 -102 -2 -124 -10 -150c-19 -59 -66 -92 -132 -92s-114 33 -132 92c-8 26 -11 48 -11 146c0 100 4 126 12 152c18 55 58 86 115 86c20 0 39 -5 48 -11h1l-45 86l-68 -22c-6 -2 -9 0 -11 6l-12 35c-2 6 0 10 7 12l58 19
l-41 78c-3 6 -1 10 5 10h59c6 0 10 -3 14 -10l29 -57l63 21c6 2 9 0 11 -6l12 -36c2 -6 0 -10 -7 -12zM187 63c30 0 50 15 59 42c5 17 6 30 6 124c0 93 -2 108 -7 125c-9 28 -29 42 -58 42c-30 0 -50 -15 -59 -42c-5 -17 -6 -29 -6 -125c0 -94 1 -107 6 -124
c9 -27 29 -42 59 -42z" />
    <glyph glyph-name="egrave" unicode="&#xe8;" horiz-adv-x="368" 
d="M184 -9c-66 0 -109 32 -128 90c-7 22 -11 47 -11 159c0 111 4 136 11 159c19 57 63 89 130 89s110 -32 129 -89c7 -22 11 -48 11 -173c0 -6 -4 -10 -10 -10h-188c-4 0 -6 -2 -6 -6c0 -77 3 -93 7 -106c10 -27 28 -41 56 -41c34 0 54 17 64 54c2 7 6 9 12 8l53 -11
c6 -1 8 -6 7 -12c-13 -69 -64 -111 -137 -111zM243 281c4 0 6 2 6 6c0 62 -3 78 -7 91c-8 25 -28 40 -56 40c-29 0 -49 -15 -57 -40c-4 -13 -7 -29 -7 -91c0 -4 2 -6 6 -6h115zM207 557h-40c-8 0 -11 2 -17 10l-87 123c-3 5 -1 10 5 10h59c8 0 12 -3 16 -10l69 -123
c3 -6 1 -10 -5 -10z" />
    <glyph glyph-name="eacute" unicode="&#xe9;" horiz-adv-x="368" 
d="M201 557h-40c-6 0 -8 4 -5 10l69 123c4 7 8 10 16 10h59c6 0 8 -5 5 -10l-87 -123c-6 -8 -9 -10 -17 -10zM184 -9c-66 0 -109 32 -128 90c-7 22 -11 47 -11 159c0 111 4 136 11 159c19 57 63 89 130 89s110 -32 129 -89c7 -22 11 -48 11 -173c0 -6 -4 -10 -10 -10h-188
c-4 0 -6 -2 -6 -6c0 -77 3 -93 7 -106c10 -27 28 -41 56 -41c34 0 54 17 64 54c2 7 6 9 12 8l53 -11c6 -1 8 -6 7 -12c-13 -69 -64 -111 -137 -111zM243 281c4 0 6 2 6 6c0 62 -3 78 -7 91c-8 25 -28 40 -56 40c-29 0 -49 -15 -57 -40c-4 -13 -7 -29 -7 -91c0 -4 2 -6 6 -6
h115z" />
    <glyph glyph-name="ecircumflex" unicode="&#xea;" horiz-adv-x="368" 
d="M297 557h-42c-7 0 -12 3 -17 10l-52 71h-2l-52 -71c-5 -7 -10 -10 -17 -10h-42c-6 0 -9 4 -5 10l82 123c4 7 9 10 17 10h36c8 0 13 -3 17 -10l82 -123c4 -6 1 -10 -5 -10zM184 -9c-66 0 -109 32 -128 90c-7 22 -11 47 -11 159c0 111 4 136 11 159c19 57 63 89 130 89
s110 -32 129 -89c7 -22 11 -48 11 -173c0 -6 -4 -10 -10 -10h-188c-4 0 -6 -2 -6 -6c0 -77 3 -93 7 -106c10 -27 28 -41 56 -41c34 0 54 17 64 54c2 7 6 9 12 8l53 -11c6 -1 8 -6 7 -12c-13 -69 -64 -111 -137 -111zM243 281c4 0 6 2 6 6c0 62 -3 78 -7 91
c-8 25 -28 40 -56 40c-29 0 -49 -15 -57 -40c-4 -13 -7 -29 -7 -91c0 -4 2 -6 6 -6h115z" />
    <glyph glyph-name="ecaron" unicode="&#x11b;" horiz-adv-x="368" 
d="M203 556h-36c-8 0 -13 3 -17 10l-82 123c-4 6 -1 10 5 10h42c7 0 12 -3 17 -10l52 -71h2l52 71c5 7 10 10 17 10h42c6 0 9 -4 5 -10l-82 -123c-4 -7 -9 -10 -17 -10zM184 -9c-66 0 -109 32 -128 90c-7 22 -11 47 -11 159c0 111 4 136 11 159c19 57 63 89 130 89
s110 -32 129 -89c7 -22 11 -48 11 -173c0 -6 -4 -10 -10 -10h-188c-4 0 -6 -2 -6 -6c0 -77 3 -93 7 -106c10 -27 28 -41 56 -41c34 0 54 17 64 54c2 7 6 9 12 8l53 -11c6 -1 8 -6 7 -12c-13 -69 -64 -111 -137 -111zM243 281c4 0 6 2 6 6c0 62 -3 78 -7 91
c-8 25 -28 40 -56 40c-29 0 -49 -15 -57 -40c-4 -13 -7 -29 -7 -91c0 -4 2 -6 6 -6h115z" />
    <glyph glyph-name="edieresis" unicode="&#xeb;" horiz-adv-x="368" 
d="M283 588h-51c-6 0 -10 4 -10 10v72c0 6 4 10 10 10h51c6 0 10 -4 10 -10v-72c0 -6 -4 -10 -10 -10zM138 588h-51c-6 0 -10 4 -10 10v72c0 6 4 10 10 10h51c6 0 10 -4 10 -10v-72c0 -6 -4 -10 -10 -10zM184 -9c-66 0 -109 32 -128 90c-7 22 -11 47 -11 159
c0 111 4 136 11 159c19 57 63 89 130 89s110 -32 129 -89c7 -22 11 -48 11 -173c0 -6 -4 -10 -10 -10h-188c-4 0 -6 -2 -6 -6c0 -77 3 -93 7 -106c10 -27 28 -41 56 -41c34 0 54 17 64 54c2 7 6 9 12 8l53 -11c6 -1 8 -6 7 -12c-13 -69 -64 -111 -137 -111zM243 281
c4 0 6 2 6 6c0 62 -3 78 -7 91c-8 25 -28 40 -56 40c-29 0 -49 -15 -57 -40c-4 -13 -7 -29 -7 -91c0 -4 2 -6 6 -6h115z" />
    <glyph glyph-name="emacron" unicode="&#x113;" horiz-adv-x="368" 
d="M184 -9c-66 0 -109 32 -128 90c-7 22 -11 47 -11 159c0 111 4 136 11 159c19 57 63 89 130 89s110 -32 129 -89c7 -22 11 -48 11 -173c0 -6 -4 -10 -10 -10h-188c-4 0 -6 -2 -6 -6c0 -77 3 -93 7 -106c10 -27 28 -41 56 -41c34 0 54 17 64 54c2 7 6 9 12 8l53 -11
c6 -1 8 -6 7 -12c-13 -69 -64 -111 -137 -111zM243 281c4 0 6 2 6 6c0 62 -3 78 -7 91c-8 25 -28 40 -56 40c-29 0 -49 -15 -57 -40c-4 -13 -7 -29 -7 -91c0 -4 2 -6 6 -6h115zM282 603h-194c-6 0 -10 4 -10 10v43c0 6 4 10 10 10h194c6 0 10 -4 10 -10v-43
c0 -6 -4 -10 -10 -10z" />
    <glyph glyph-name="ebreve" unicode="&#x115;" horiz-adv-x="368" 
d="M184 -9c-66 0 -109 32 -128 90c-7 22 -11 47 -11 159c0 111 4 136 11 159c19 57 63 89 130 89s110 -32 129 -89c7 -22 11 -48 11 -173c0 -6 -4 -10 -10 -10h-188c-4 0 -6 -2 -6 -6c0 -77 3 -93 7 -106c10 -27 28 -41 56 -41c34 0 54 17 64 54c2 7 6 9 12 8l53 -11
c6 -1 8 -6 7 -12c-13 -69 -64 -111 -137 -111zM243 281c4 0 6 2 6 6c0 62 -3 78 -7 91c-8 25 -28 40 -56 40c-29 0 -49 -15 -57 -40c-4 -13 -7 -29 -7 -91c0 -4 2 -6 6 -6h115zM185 563c-71 0 -108 48 -114 111c0 6 4 10 10 10h32c6 0 9 -4 10 -10c10 -33 30 -54 62 -54
s52 21 61 54c2 6 4 10 11 10h32c6 0 10 -4 10 -10c-6 -63 -43 -111 -114 -111z" />
    <glyph glyph-name="edotaccent" unicode="&#x117;" horiz-adv-x="368" 
d="M184 -9c-66 0 -109 32 -128 90c-7 22 -11 47 -11 159c0 111 4 136 11 159c19 57 63 89 130 89s110 -32 129 -89c7 -22 11 -48 11 -173c0 -6 -4 -10 -10 -10h-188c-4 0 -6 -2 -6 -6c0 -77 3 -93 7 -106c10 -27 28 -41 56 -41c34 0 54 17 64 54c2 7 6 9 12 8l53 -11
c6 -1 8 -6 7 -12c-13 -69 -64 -111 -137 -111zM243 281c4 0 6 2 6 6c0 62 -3 78 -7 91c-8 25 -28 40 -56 40c-29 0 -49 -15 -57 -40c-4 -13 -7 -29 -7 -91c0 -4 2 -6 6 -6h115zM216 588h-63c-6 0 -10 4 -10 10v72c0 6 4 10 10 10h63c6 0 10 -4 10 -10v-72
c0 -6 -4 -10 -10 -10z" />
    <glyph glyph-name="eogonek" unicode="&#x119;" horiz-adv-x="368" 
d="M184 -9c-66 0 -109 32 -128 90c-7 22 -11 47 -11 159c0 111 4 136 11 159c19 57 63 89 130 89s110 -32 129 -89c7 -22 11 -48 11 -173c0 -6 -4 -10 -10 -10h-188c-4 0 -6 -2 -6 -6c0 -77 3 -93 7 -106c10 -27 28 -41 56 -41c34 0 54 17 64 54c2 7 6 9 12 8l53 -11
c6 -1 8 -6 7 -12c-6 -28 -18 -51 -34 -70c-53 -84 -60 -107 -60 -128c0 -17 9 -26 21 -26c9 0 15 2 21 6c5 3 10 2 12 -3l15 -34c2 -5 1 -9 -5 -13c-12 -8 -32 -15 -53 -15c-46 0 -76 26 -76 73c0 29 9 58 42 101c-6 -1 -14 -2 -20 -2zM243 281c4 0 6 2 6 6
c0 62 -3 78 -7 91c-8 25 -28 40 -56 40c-29 0 -49 -15 -57 -40c-4 -13 -7 -29 -7 -91c0 -4 2 -6 6 -6h115z" />
    <glyph glyph-name="gcircumflex" unicode="&#x11d;" horiz-adv-x="387" 
d="M306 557h-42c-7 0 -12 3 -17 10l-52 71h-2l-52 -71c-5 -7 -10 -10 -17 -10h-42c-6 0 -9 4 -5 10l82 123c4 7 9 10 17 10h36c8 0 13 -3 17 -10l82 -123c4 -6 1 -10 -5 -10zM186 -189c-66 0 -116 37 -131 90c-1 5 0 10 5 12l53 19c6 2 10 1 13 -5c11 -28 33 -43 62 -43
c39 0 64 23 64 73v103h-1c-12 -33 -38 -58 -89 -58c-55 0 -88 26 -104 78c-8 26 -12 54 -12 164s4 139 12 164c16 52 49 80 104 80c51 0 77 -26 89 -59h1v40c0 6 4 10 10 10h57c6 0 10 -4 10 -10v-504c0 -101 -56 -154 -143 -154zM188 73c29 0 48 15 57 42c5 15 7 30 7 129
s-2 115 -7 130c-9 26 -28 42 -57 42c-31 0 -49 -15 -58 -42c-4 -15 -7 -31 -7 -130s3 -114 7 -129c9 -27 27 -42 58 -42z" />
    <glyph glyph-name="gbreve" unicode="&#x11f;" horiz-adv-x="387" 
d="M186 -189c-66 0 -116 37 -131 90c-1 5 0 10 5 12l53 19c6 2 10 1 13 -5c11 -28 33 -43 62 -43c39 0 64 23 64 73v103h-1c-12 -33 -38 -58 -89 -58c-55 0 -88 26 -104 78c-8 26 -12 54 -12 164s4 139 12 164c16 52 49 80 104 80c51 0 77 -26 89 -59h1v40c0 6 4 10 10 10
h57c6 0 10 -4 10 -10v-504c0 -101 -56 -154 -143 -154zM188 73c29 0 48 15 57 42c5 15 7 30 7 129s-2 115 -7 130c-9 26 -28 42 -57 42c-31 0 -49 -15 -58 -42c-4 -15 -7 -31 -7 -130s3 -114 7 -129c9 -27 27 -42 58 -42zM194 563c-71 0 -108 48 -114 111c0 6 4 10 10 10h32
c6 0 9 -4 10 -10c10 -33 30 -54 62 -54s52 21 61 54c2 6 4 10 11 10h32c6 0 10 -4 10 -10c-6 -63 -43 -111 -114 -111z" />
    <glyph glyph-name="gdotaccent" unicode="&#x121;" horiz-adv-x="387" 
d="M186 -189c-66 0 -116 37 -131 90c-1 5 0 10 5 12l53 19c6 2 10 1 13 -5c11 -28 33 -43 62 -43c39 0 64 23 64 73v103h-1c-12 -33 -38 -58 -89 -58c-55 0 -88 26 -104 78c-8 26 -12 54 -12 164s4 139 12 164c16 52 49 80 104 80c51 0 77 -26 89 -59h1v40c0 6 4 10 10 10
h57c6 0 10 -4 10 -10v-504c0 -101 -56 -154 -143 -154zM188 73c29 0 48 15 57 42c5 15 7 30 7 129s-2 115 -7 130c-9 26 -28 42 -57 42c-31 0 -49 -15 -58 -42c-4 -15 -7 -31 -7 -130s3 -114 7 -129c9 -27 27 -42 58 -42zM226 588h-63c-6 0 -10 4 -10 10v72c0 6 4 10 10 10
h63c6 0 10 -4 10 -10v-72c0 -6 -4 -10 -10 -10z" />
    <glyph glyph-name="gcommaaccent" unicode="&#x123;" horiz-adv-x="387" 
d="M221 572h-53c-6 0 -10 4 -10 10v49c0 10 1 15 6 22l46 66c4 6 7 8 12 8c6 0 9 -4 9 -10v-135c0 -6 -4 -10 -10 -10zM186 -189c-66 0 -116 37 -131 90c-1 5 0 10 5 12l53 19c6 2 10 1 13 -5c11 -28 33 -43 62 -43c39 0 64 23 64 73v103h-1c-12 -33 -38 -58 -89 -58
c-55 0 -88 26 -104 78c-8 26 -12 54 -12 164s4 139 12 164c16 52 49 80 104 80c51 0 77 -26 89 -59h1v40c0 6 4 10 10 10h57c6 0 10 -4 10 -10v-504c0 -101 -56 -154 -143 -154zM188 73c29 0 48 15 57 42c5 15 7 30 7 129s-2 115 -7 130c-9 26 -28 42 -57 42
c-31 0 -49 -15 -58 -42c-4 -15 -7 -31 -7 -130s3 -114 7 -129c9 -27 27 -42 58 -42z" />
    <glyph glyph-name="hcircumflex" unicode="&#x125;" horiz-adv-x="393" 
d="M329 0h-57c-6 0 -10 4 -10 10v319c0 57 -20 87 -63 87c-40 0 -64 -28 -64 -87v-319c0 -6 -4 -10 -10 -10h-57c-6 0 -10 4 -10 10v660c0 6 4 10 10 10h57c6 0 10 -4 10 -10v-239h1c15 32 44 57 91 57c74 0 112 -46 112 -147v-331c0 -6 -4 -10 -10 -10zM311 752h-42
c-7 0 -12 3 -17 10l-52 71h-2l-52 -71c-5 -7 -10 -10 -17 -10h-42c-6 0 -9 4 -5 10l82 123c4 7 9 10 17 10h36c8 0 13 -3 17 -10l82 -123c4 -6 1 -10 -5 -10z" />
    <glyph glyph-name="hbar" unicode="&#x127;" horiz-adv-x="393" 
d="M329 0h-57c-6 0 -10 4 -10 10v319c0 57 -20 87 -63 87c-40 0 -64 -28 -64 -87v-319c0 -6 -4 -10 -10 -10h-57c-6 0 -10 4 -10 10v534c0 4 -2 6 -6 6h-23c-6 0 -10 4 -10 10v41c0 6 4 10 10 10h23c4 0 6 2 6 6v53c0 6 4 10 10 10h57c6 0 10 -4 10 -10v-53c0 -4 2 -6 6 -6
h80c6 0 10 -4 10 -10v-41c0 -6 -4 -10 -10 -10h-80c-4 0 -6 -2 -6 -6v-113h1c15 32 44 57 91 57c74 0 112 -46 112 -147v-331c0 -6 -4 -10 -10 -10z" />
    <glyph glyph-name="dotlessi" unicode="&#x131;" horiz-adv-x="193" 
d="M125 0h-57c-6 0 -10 4 -10 10v459c0 6 4 10 10 10h57c6 0 10 -4 10 -10v-459c0 -6 -4 -10 -10 -10z" />
    <glyph glyph-name="igrave" unicode="&#xec;" horiz-adv-x="193" 
d="M125 0h-57c-6 0 -10 4 -10 10v459c0 6 4 10 10 10h57c6 0 10 -4 10 -10v-459c0 -6 -4 -10 -10 -10zM119 557h-40c-8 0 -11 2 -17 10l-87 123c-3 5 -1 10 5 10h59c8 0 12 -3 16 -10l69 -123c3 -6 1 -10 -5 -10z" />
    <glyph glyph-name="iacute" unicode="&#xed;" horiz-adv-x="193" 
d="M118 557h-40c-6 0 -8 4 -5 10l69 123c4 7 8 10 16 10h59c6 0 8 -5 5 -10l-87 -123c-6 -8 -9 -10 -17 -10zM125 0h-57c-6 0 -10 4 -10 10v459c0 6 4 10 10 10h57c6 0 10 -4 10 -10v-459c0 -6 -4 -10 -10 -10z" />
    <glyph glyph-name="ibreve" unicode="&#x12d;" horiz-adv-x="193" 
d="M125 0h-57c-6 0 -10 4 -10 10v459c0 6 4 10 10 10h57c6 0 10 -4 10 -10v-459c0 -6 -4 -10 -10 -10zM97 563c-71 0 -108 48 -114 111c0 6 4 10 10 10h32c6 0 9 -4 10 -10c10 -33 30 -54 62 -54s52 21 61 54c2 6 4 10 11 10h32c6 0 10 -4 10 -10c-6 -63 -43 -111 -114 -111
z" />
    <glyph glyph-name="icircumflex" unicode="&#xee;" horiz-adv-x="193" 
d="M209 557h-42c-7 0 -12 3 -17 10l-52 71h-2l-52 -71c-5 -7 -10 -10 -17 -10h-42c-6 0 -9 4 -5 10l82 123c4 7 9 10 17 10h36c8 0 13 -3 17 -10l82 -123c4 -6 1 -10 -5 -10zM125 0h-57c-6 0 -10 4 -10 10v459c0 6 4 10 10 10h57c6 0 10 -4 10 -10v-459c0 -6 -4 -10 -10 -10
z" />
    <glyph glyph-name="itilde" unicode="&#x129;" horiz-adv-x="193" 
d="M125 0h-57c-6 0 -10 4 -10 10v459c0 6 4 10 10 10h57c6 0 10 -4 10 -10v-459c0 -6 -4 -10 -10 -10zM138 581c-20 0 -34 8 -49 19c-14 10 -23 16 -35 16c-19 0 -30 -10 -44 -27c-5 -5 -12 -4 -12 3v47c0 6 2 11 9 18c12 13 27 24 48 24c20 0 33 -9 48 -19
c15 -11 23 -17 36 -17c19 0 30 11 44 28c4 5 11 3 11 -4v-47c0 -6 -1 -10 -8 -17c-12 -14 -27 -24 -48 -24z" />
    <glyph glyph-name="idieresis" unicode="&#xef;" horiz-adv-x="193" 
d="M195 588h-51c-6 0 -10 4 -10 10v72c0 6 4 10 10 10h51c6 0 10 -4 10 -10v-72c0 -6 -4 -10 -10 -10zM50 588h-51c-6 0 -10 4 -10 10v72c0 6 4 10 10 10h51c6 0 10 -4 10 -10v-72c0 -6 -4 -10 -10 -10zM125 0h-57c-6 0 -10 4 -10 10v459c0 6 4 10 10 10h57
c6 0 10 -4 10 -10v-459c0 -6 -4 -10 -10 -10z" />
    <glyph glyph-name="imacron" unicode="&#x12b;" horiz-adv-x="193" 
d="M125 0h-57c-6 0 -10 4 -10 10v459c0 6 4 10 10 10h57c6 0 10 -4 10 -10v-459c0 -6 -4 -10 -10 -10zM193 603h-194c-6 0 -10 4 -10 10v43c0 6 4 10 10 10h194c6 0 10 -4 10 -10v-43c0 -6 -4 -10 -10 -10z" />
    <glyph glyph-name="iogonek" unicode="&#x12f;" horiz-adv-x="193" 
d="M128 588h-63c-6 0 -10 4 -10 10v72c0 6 4 10 10 10h63c6 0 10 -4 10 -10v-72c0 -6 -4 -10 -10 -10zM85 -181c-46 0 -77 26 -77 73c0 36 17 67 56 109v1c-4 0 -6 3 -6 8v459c0 6 4 10 10 10h57c6 0 10 -4 10 -10v-459c0 -4 -1 -6 -4 -9c-45 -49 -58 -75 -58 -97
c0 -17 9 -26 22 -26c8 0 14 2 20 6c5 3 10 2 12 -3l15 -34c2 -5 1 -10 -5 -13c-12 -8 -32 -15 -52 -15z" />
    <glyph glyph-name="dotlessj" unicode="&#x237;" horiz-adv-x="193" 
d="M20 -180h-12c-6 0 -10 4 -10 10v53c0 6 4 10 10 10l11 1c27 1 39 13 39 50v525c0 6 4 10 10 10h57c6 0 10 -4 10 -10v-529c0 -81 -36 -120 -115 -120z" />
    <glyph glyph-name="jcircumflex" unicode="&#x135;" horiz-adv-x="193" 
d="M20 -180h-12c-6 0 -10 4 -10 10v53c0 6 4 10 10 10l11 1c27 1 39 13 39 50v525c0 6 4 10 10 10h57c6 0 10 -4 10 -10v-529c0 -81 -36 -120 -115 -120zM209 557h-42c-7 0 -12 3 -17 10l-52 71h-2l-52 -71c-5 -7 -10 -10 -17 -10h-42c-6 0 -9 4 -5 10l82 123
c4 7 9 10 17 10h36c8 0 13 -3 17 -10l82 -123c4 -6 1 -10 -5 -10z" />
    <glyph glyph-name="kcommaaccent" unicode="&#x137;" horiz-adv-x="375" 
d="M174 -208c-5 0 -8 4 -8 10v135c0 6 4 10 10 10h53c6 0 10 -4 10 -10v-49c0 -10 -2 -15 -7 -22l-46 -66c-3 -6 -7 -8 -12 -8zM348 0h-60c-7 0 -11 3 -14 10l-90 214l-49 -87v-127c0 -6 -4 -10 -10 -10h-57c-6 0 -10 4 -10 10v660c0 6 4 10 10 10h57c6 0 10 -4 10 -10v-415
l119 214c4 7 7 10 14 10h60c6 0 9 -4 6 -10l-105 -175l126 -284c2 -6 -1 -10 -7 -10z" />
    <glyph glyph-name="kgreenlandic" unicode="&#x138;" horiz-adv-x="375" 
d="M348 0h-60c-7 0 -11 3 -14 10l-90 214l-49 -87v-127c0 -6 -4 -10 -10 -10h-57c-6 0 -10 4 -10 10v459c0 6 4 10 10 10h57c6 0 10 -4 10 -10v-214l119 214c4 7 7 10 14 10h60c6 0 9 -4 6 -10l-105 -175l126 -284c2 -6 -1 -10 -7 -10z" />
    <glyph glyph-name="lacute" unicode="&#x13a;" horiz-adv-x="221" 
d="M119 763h-38c-6 0 -10 5 -6 10l77 105c5 7 8 10 16 10h58c6 0 9 -5 5 -10l-93 -105c-7 -8 -11 -10 -19 -10zM182 -5l-5 1c-88 3 -119 39 -119 131v543c0 6 4 10 10 10h57c6 0 10 -4 10 -10v-546c0 -34 12 -50 42 -55l5 -1c6 -1 10 -5 10 -11v-52c0 -6 -4 -10 -10 -10z
" />
    <glyph glyph-name="lcaron" unicode="&#x13e;" horiz-adv-x="221" 
d="M183 524c-6 0 -9 3 -9 9v137c0 6 4 10 10 10h52c6 0 10 -4 10 -10v-50c0 -11 -1 -15 -6 -23l-45 -66c-3 -5 -7 -7 -12 -7zM182 -5l-5 1c-88 3 -119 39 -119 131v543c0 6 4 10 10 10h57c6 0 10 -4 10 -10v-546c0 -34 12 -50 42 -55l5 -1c6 -1 10 -5 10 -11v-52
c0 -6 -4 -10 -10 -10z" />
    <glyph glyph-name="lcommaaccent" unicode="&#x13c;" horiz-adv-x="221" 
d="M94 -208c-5 0 -8 4 -8 10v135c0 6 4 10 10 10h53c6 0 10 -4 10 -10v-49c0 -10 -2 -15 -7 -22l-46 -66c-3 -6 -7 -8 -12 -8zM182 -5l-5 1c-88 3 -119 39 -119 131v543c0 6 4 10 10 10h57c6 0 10 -4 10 -10v-546c0 -34 12 -50 42 -55l5 -1c6 -1 10 -5 10 -11v-52
c0 -6 -4 -10 -10 -10z" />
    <glyph glyph-name="lslash" unicode="&#x142;" horiz-adv-x="221" 
d="M182 388l-47 -33v-231c0 -34 12 -50 42 -55l5 -1c6 -1 10 -5 10 -11v-52c0 -6 -4 -10 -10 -10l-5 1c-88 3 -119 39 -119 131v176l-30 -20c-5 -3 -10 0 -10 5v54c0 7 3 11 10 16l30 20v292c0 6 4 10 10 10h57c6 0 10 -4 10 -10v-240l47 33c5 3 10 0 10 -5v-54
c0 -7 -3 -11 -10 -16z" />
    <glyph glyph-name="ldot" unicode="&#x140;" horiz-adv-x="256" 
d="M182 -5l-5 1c-88 3 -119 39 -119 131v543c0 6 4 10 10 10h57c6 0 10 -4 10 -10v-546c0 -34 12 -50 42 -55l5 -1c6 -1 10 -5 10 -11v-52c0 -6 -4 -10 -10 -10zM257 263h-65c-6 0 -10 4 -10 10v84c0 6 4 10 10 10h65c6 0 10 -4 10 -10v-84c0 -6 -4 -10 -10 -10z" />
    <glyph glyph-name="nacute" unicode="&#x144;" horiz-adv-x="393" 
d="M198 557h-40c-6 0 -8 4 -5 10l69 123c4 7 8 10 16 10h59c6 0 8 -5 5 -10l-87 -123c-6 -8 -9 -10 -17 -10zM329 0h-57c-6 0 -10 4 -10 10v319c0 57 -20 87 -63 87c-40 0 -64 -28 -64 -87v-319c0 -6 -4 -10 -10 -10h-57c-6 0 -10 4 -10 10v459c0 6 4 10 10 10h57
c6 0 10 -4 10 -10v-38h1c15 32 44 57 91 57c74 0 112 -46 112 -147v-331c0 -6 -4 -10 -10 -10z" />
    <glyph glyph-name="ncaron" unicode="&#x148;" horiz-adv-x="393" 
d="M214 556h-36c-8 0 -13 3 -17 10l-82 123c-4 6 -1 10 5 10h42c7 0 12 -3 17 -10l52 -71h2l52 71c5 7 10 10 17 10h42c6 0 9 -4 5 -10l-82 -123c-4 -7 -9 -10 -17 -10zM329 0h-57c-6 0 -10 4 -10 10v319c0 57 -20 87 -63 87c-40 0 -64 -28 -64 -87v-319
c0 -6 -4 -10 -10 -10h-57c-6 0 -10 4 -10 10v459c0 6 4 10 10 10h57c6 0 10 -4 10 -10v-38h1c15 32 44 57 91 57c74 0 112 -46 112 -147v-331c0 -6 -4 -10 -10 -10z" />
    <glyph glyph-name="ntilde" unicode="&#xf1;" horiz-adv-x="393" 
d="M329 0h-57c-6 0 -10 4 -10 10v319c0 57 -20 87 -63 87c-40 0 -64 -28 -64 -87v-319c0 -6 -4 -10 -10 -10h-57c-6 0 -10 4 -10 10v459c0 6 4 10 10 10h57c6 0 10 -4 10 -10v-38h1c15 32 44 57 91 57c74 0 112 -46 112 -147v-331c0 -6 -4 -10 -10 -10zM238 581
c-20 0 -34 8 -49 19c-14 10 -23 16 -35 16c-19 0 -30 -10 -44 -27c-5 -5 -12 -4 -12 3v47c0 6 2 11 9 18c12 13 27 24 48 24c20 0 33 -9 48 -19c15 -11 23 -17 36 -17c19 0 30 11 44 28c4 5 11 3 11 -4v-47c0 -6 -1 -10 -8 -17c-12 -14 -27 -24 -48 -24z" />
    <glyph glyph-name="ncommaaccent" unicode="&#x146;" horiz-adv-x="393" 
d="M168 -208c-5 0 -8 4 -8 10v135c0 6 4 10 10 10h53c6 0 10 -4 10 -10v-49c0 -10 -2 -15 -7 -22l-46 -66c-3 -6 -7 -8 -12 -8zM329 0h-57c-6 0 -10 4 -10 10v319c0 57 -20 87 -63 87c-40 0 -64 -28 -64 -87v-319c0 -6 -4 -10 -10 -10h-57c-6 0 -10 4 -10 10v459
c0 6 4 10 10 10h57c6 0 10 -4 10 -10v-38h1c15 32 44 57 91 57c74 0 112 -46 112 -147v-331c0 -6 -4 -10 -10 -10z" />
    <glyph glyph-name="ograve" unicode="&#xf2;" horiz-adv-x="374" 
d="M187 -9c-66 0 -113 33 -132 92c-8 26 -10 48 -10 157s2 131 10 157c19 58 66 91 132 91s113 -33 132 -91c8 -26 10 -48 10 -157s-2 -131 -10 -157c-19 -59 -66 -92 -132 -92zM187 63c30 0 50 15 59 42c5 17 6 30 6 135c0 104 -1 117 -6 134c-9 27 -29 42 -59 42
s-50 -15 -59 -42c-5 -17 -6 -30 -6 -134c0 -105 1 -118 6 -135c9 -27 29 -42 59 -42zM214 557h-40c-8 0 -11 2 -17 10l-87 123c-3 5 -1 10 5 10h59c8 0 12 -3 16 -10l69 -123c3 -6 1 -10 -5 -10z" />
    <glyph glyph-name="oacute" unicode="&#xf3;" horiz-adv-x="374" 
d="M200 557h-40c-6 0 -8 4 -5 10l69 123c4 7 8 10 16 10h59c6 0 8 -5 5 -10l-87 -123c-6 -8 -9 -10 -17 -10zM187 -9c-66 0 -113 33 -132 92c-8 26 -10 48 -10 157s2 131 10 157c19 58 66 91 132 91s113 -33 132 -91c8 -26 10 -48 10 -157s-2 -131 -10 -157
c-19 -59 -66 -92 -132 -92zM187 63c30 0 50 15 59 42c5 17 6 30 6 135c0 104 -1 117 -6 134c-9 27 -29 42 -59 42s-50 -15 -59 -42c-5 -17 -6 -30 -6 -134c0 -105 1 -118 6 -135c9 -27 29 -42 59 -42z" />
    <glyph glyph-name="ocircumflex" unicode="&#xf4;" horiz-adv-x="374" 
d="M299 557h-42c-7 0 -12 3 -17 10l-52 71h-2l-52 -71c-5 -7 -10 -10 -17 -10h-42c-6 0 -9 4 -5 10l82 123c4 7 9 10 17 10h36c8 0 13 -3 17 -10l82 -123c4 -6 1 -10 -5 -10zM187 -9c-66 0 -113 33 -132 92c-8 26 -10 48 -10 157s2 131 10 157c19 58 66 91 132 91
s113 -33 132 -91c8 -26 10 -48 10 -157s-2 -131 -10 -157c-19 -59 -66 -92 -132 -92zM187 63c30 0 50 15 59 42c5 17 6 30 6 135c0 104 -1 117 -6 134c-9 27 -29 42 -59 42s-50 -15 -59 -42c-5 -17 -6 -30 -6 -134c0 -105 1 -118 6 -135c9 -27 29 -42 59 -42z" />
    <glyph glyph-name="otilde" unicode="&#xf5;" horiz-adv-x="374" 
d="M187 -9c-66 0 -113 33 -132 92c-8 26 -10 48 -10 157s2 131 10 157c19 58 66 91 132 91s113 -33 132 -91c8 -26 10 -48 10 -157s-2 -131 -10 -157c-19 -59 -66 -92 -132 -92zM187 63c30 0 50 15 59 42c5 17 6 30 6 135c0 104 -1 117 -6 134c-9 27 -29 42 -59 42
s-50 -15 -59 -42c-5 -17 -6 -30 -6 -134c0 -105 1 -118 6 -135c9 -27 29 -42 59 -42zM229 581c-20 0 -34 8 -49 19c-14 10 -23 16 -35 16c-19 0 -30 -10 -44 -27c-5 -5 -12 -4 -12 3v47c0 6 2 11 9 18c12 13 27 24 48 24c20 0 33 -9 48 -19c15 -11 23 -17 36 -17
c19 0 30 11 44 28c4 5 11 3 11 -4v-47c0 -6 -1 -10 -8 -17c-12 -14 -27 -24 -48 -24z" />
    <glyph glyph-name="odieresis" unicode="&#xf6;" horiz-adv-x="374" 
d="M285 588h-51c-6 0 -10 4 -10 10v72c0 6 4 10 10 10h51c6 0 10 -4 10 -10v-72c0 -6 -4 -10 -10 -10zM140 588h-51c-6 0 -10 4 -10 10v72c0 6 4 10 10 10h51c6 0 10 -4 10 -10v-72c0 -6 -4 -10 -10 -10zM187 -9c-66 0 -113 33 -132 92c-8 26 -10 48 -10 157s2 131 10 157
c19 58 66 91 132 91s113 -33 132 -91c8 -26 10 -48 10 -157s-2 -131 -10 -157c-19 -59 -66 -92 -132 -92zM187 63c30 0 50 15 59 42c5 17 6 30 6 135c0 104 -1 117 -6 134c-9 27 -29 42 -59 42s-50 -15 -59 -42c-5 -17 -6 -30 -6 -134c0 -105 1 -118 6 -135
c9 -27 29 -42 59 -42z" />
    <glyph glyph-name="omacron" unicode="&#x14d;" horiz-adv-x="374" 
d="M284 603h-194c-6 0 -10 4 -10 10v43c0 6 4 10 10 10h194c6 0 10 -4 10 -10v-43c0 -6 -4 -10 -10 -10zM187 -9c-66 0 -113 33 -132 92c-8 26 -10 48 -10 157s2 131 10 157c19 58 66 91 132 91s113 -33 132 -91c8 -26 10 -48 10 -157s-2 -131 -10 -157
c-19 -59 -66 -92 -132 -92zM187 63c30 0 50 15 59 42c5 17 6 30 6 135c0 104 -1 117 -6 134c-9 27 -29 42 -59 42s-50 -15 -59 -42c-5 -17 -6 -30 -6 -134c0 -105 1 -118 6 -135c9 -27 29 -42 59 -42z" />
    <glyph glyph-name="obreve" unicode="&#x14f;" horiz-adv-x="374" 
d="M187 -9c-66 0 -113 33 -132 92c-8 26 -10 48 -10 157s2 131 10 157c19 58 66 91 132 91s113 -33 132 -91c8 -26 10 -48 10 -157s-2 -131 -10 -157c-19 -59 -66 -92 -132 -92zM187 63c30 0 50 15 59 42c5 17 6 30 6 135c0 104 -1 117 -6 134c-9 27 -29 42 -59 42
s-50 -15 -59 -42c-5 -17 -6 -30 -6 -134c0 -105 1 -118 6 -135c9 -27 29 -42 59 -42zM187 563c-71 0 -108 48 -114 111c0 6 4 10 10 10h32c6 0 9 -4 10 -10c10 -33 30 -54 62 -54s52 21 61 54c2 6 4 10 11 10h32c6 0 10 -4 10 -10c-6 -63 -43 -111 -114 -111z" />
    <glyph glyph-name="ohungarumlaut" unicode="&#x151;" horiz-adv-x="374" 
d="M258 557h-35c-6 0 -9 4 -6 10l61 123c3 7 8 10 16 10h49c6 0 8 -5 5 -10l-73 -123c-5 -9 -9 -10 -17 -10zM134 557h-35c-6 0 -8 4 -5 10l60 123c4 7 8 10 16 10h50c6 0 8 -5 5 -10l-73 -123c-5 -9 -10 -10 -18 -10zM187 -9c-66 0 -113 33 -132 92c-8 26 -10 48 -10 157
s2 131 10 157c19 58 66 91 132 91s113 -33 132 -91c8 -26 10 -48 10 -157s-2 -131 -10 -157c-19 -59 -66 -92 -132 -92zM187 63c30 0 50 15 59 42c5 17 6 30 6 135c0 104 -1 117 -6 134c-9 27 -29 42 -59 42s-50 -15 -59 -42c-5 -17 -6 -30 -6 -134c0 -105 1 -118 6 -135
c9 -27 29 -42 59 -42z" />
    <glyph glyph-name="oslash" unicode="&#xf8;" horiz-adv-x="374" 
d="M187 -9c-34 0 -63 9 -86 25l-17 -36c-3 -6 -7 -10 -13 -10h-18c-6 0 -10 4 -8 10l30 63c-9 11 -15 25 -20 40c-8 26 -10 48 -10 157s2 131 10 157c19 58 66 91 132 91c34 0 63 -9 86 -25l17 36c3 7 7 10 13 10h18c6 0 10 -4 7 -10l-29 -63c8 -11 15 -24 20 -39
c8 -26 10 -48 10 -157s-2 -131 -10 -157c-19 -59 -66 -92 -132 -92zM121 240c0 -55 0 -85 1 -103l115 255c-11 16 -28 25 -50 25c-30 0 -50 -15 -60 -42c-5 -17 -6 -31 -6 -135zM187 62c30 0 50 16 59 43c6 17 7 30 7 135c0 52 0 82 -1 100l-115 -254c11 -15 28 -24 50 -24z
" />
    <glyph glyph-name="oslashacute" unicode="&#x1ff;" horiz-adv-x="374" 
d="M187 -9c-34 0 -63 9 -86 25l-17 -36c-3 -6 -7 -10 -13 -10h-18c-6 0 -10 4 -8 10l30 63c-9 11 -15 25 -20 40c-8 26 -10 48 -10 157s2 131 10 157c19 58 66 91 132 91c34 0 63 -9 86 -25l17 36c3 7 7 10 13 10h18c6 0 10 -4 7 -10l-29 -63c8 -11 15 -24 20 -39
c8 -26 10 -48 10 -157s-2 -131 -10 -157c-19 -59 -66 -92 -132 -92zM121 240c0 -55 0 -85 1 -103l115 255c-11 16 -28 25 -50 25c-30 0 -50 -15 -60 -42c-5 -17 -6 -31 -6 -135zM187 62c30 0 50 16 59 43c6 17 7 30 7 135c0 52 0 82 -1 100l-115 -254c11 -15 28 -24 50 -24z
M200 557h-40c-6 0 -8 4 -5 10l69 123c4 7 8 10 16 10h59c6 0 8 -5 5 -10l-87 -123c-6 -8 -9 -10 -17 -10z" />
    <glyph glyph-name="oe" unicode="&#x153;" horiz-adv-x="576" 
d="M391 -9c-45 0 -82 18 -99 48h-2c-23 -32 -59 -48 -103 -48c-66 0 -114 33 -132 92c-8 26 -10 48 -10 157s2 131 10 157c18 58 66 91 132 91c45 0 80 -16 103 -47h1c23 31 56 47 102 47c67 0 110 -32 129 -89c7 -22 11 -48 11 -173c0 -6 -4 -10 -10 -10h-188
c-4 0 -6 -2 -6 -6c0 -77 3 -93 7 -106c10 -27 28 -41 56 -41c34 0 54 17 64 54c2 7 6 9 12 8l53 -11c6 -1 8 -6 7 -12c-13 -69 -64 -111 -137 -111zM450 281c4 0 6 2 6 6c0 62 -3 78 -7 91c-8 25 -28 40 -56 40c-29 0 -49 -15 -57 -40c-4 -13 -7 -29 -7 -91c0 -4 2 -6 6 -6
h115zM187 63c30 0 50 15 59 42c5 17 6 30 6 135c0 104 -1 117 -6 134c-9 27 -29 42 -59 42s-50 -15 -59 -42c-5 -17 -6 -30 -6 -134c0 -105 1 -118 6 -135c9 -27 29 -42 59 -42z" />
    <glyph glyph-name="racute" unicode="&#x155;" horiz-adv-x="273" 
d="M165 557h-40c-6 0 -8 4 -5 10l69 123c4 7 8 10 16 10h59c6 0 8 -5 5 -10l-87 -123c-6 -8 -9 -10 -17 -10zM125 0h-57c-6 0 -10 4 -10 10v459c0 6 4 10 10 10h57c6 0 10 -4 10 -10v-45h1c16 37 47 64 96 64c6 0 15 -1 19 -2c6 -1 8 -5 6 -11l-14 -57c-2 -7 -6 -9 -12 -9
h-15c-47 0 -81 -33 -81 -103v-296c0 -6 -4 -10 -10 -10z" />
    <glyph glyph-name="rcaron" unicode="&#x159;" horiz-adv-x="273" 
d="M161 556h-36c-8 0 -13 3 -17 10l-82 123c-4 6 -1 10 5 10h42c7 0 12 -3 17 -10l52 -71h2l52 71c5 7 10 10 17 10h42c6 0 9 -4 5 -10l-82 -123c-4 -7 -9 -10 -17 -10zM125 0h-57c-6 0 -10 4 -10 10v459c0 6 4 10 10 10h57c6 0 10 -4 10 -10v-45h1c16 37 47 64 96 64
c6 0 15 -1 19 -2c6 -1 8 -5 6 -11l-14 -57c-2 -7 -6 -9 -12 -9h-15c-47 0 -81 -33 -81 -103v-296c0 -6 -4 -10 -10 -10z" />
    <glyph glyph-name="rcommaaccent" unicode="&#x157;" horiz-adv-x="273" 
d="M69 -208c-5 0 -8 4 -8 10v135c0 6 4 10 10 10h53c6 0 10 -4 10 -10v-49c0 -10 -2 -15 -7 -22l-46 -66c-3 -6 -7 -8 -12 -8zM125 0h-57c-6 0 -10 4 -10 10v459c0 6 4 10 10 10h57c6 0 10 -4 10 -10v-45h1c16 37 47 64 96 64c6 0 15 -1 19 -2c6 -1 8 -5 6 -11l-14 -57
c-2 -7 -6 -9 -12 -9h-15c-47 0 -81 -33 -81 -103v-296c0 -6 -4 -10 -10 -10z" />
    <glyph glyph-name="sacute" unicode="&#x15b;" horiz-adv-x="343" 
d="M182 557h-40c-6 0 -8 4 -5 10l69 123c4 7 8 10 16 10h59c6 0 8 -5 5 -10l-87 -123c-6 -8 -9 -10 -17 -10zM172 -9c-80 0 -130 44 -138 122c-1 6 2 11 8 12l51 10c6 1 11 -2 12 -8c6 -49 33 -69 68 -69c39 0 63 23 63 69c0 38 -13 59 -55 76l-40 15c-62 24 -99 66 -99 135
c0 78 50 135 131 135c79 0 121 -50 128 -107c1 -7 -2 -12 -7 -13l-48 -10c-6 -1 -10 2 -12 8c-9 35 -24 56 -61 56c-38 0 -57 -25 -57 -64c0 -29 12 -52 55 -69l40 -15c74 -28 98 -72 98 -142c0 -83 -49 -141 -137 -141z" />
    <glyph glyph-name="scircumflex" unicode="&#x15d;" horiz-adv-x="343" 
d="M285 557h-42c-7 0 -12 3 -17 10l-52 71h-2l-52 -71c-5 -7 -10 -10 -17 -10h-42c-6 0 -9 4 -5 10l82 123c4 7 9 10 17 10h36c8 0 13 -3 17 -10l82 -123c4 -6 1 -10 -5 -10zM172 -9c-80 0 -130 44 -138 122c-1 6 2 11 8 12l51 10c6 1 11 -2 12 -8c6 -49 33 -69 68 -69
c39 0 63 23 63 69c0 38 -13 59 -55 76l-40 15c-62 24 -99 66 -99 135c0 78 50 135 131 135c79 0 121 -50 128 -107c1 -7 -2 -12 -7 -13l-48 -10c-6 -1 -10 2 -12 8c-9 35 -24 56 -61 56c-38 0 -57 -25 -57 -64c0 -29 12 -52 55 -69l40 -15c74 -28 98 -72 98 -142
c0 -83 -49 -141 -137 -141z" />
    <glyph glyph-name="scaron" unicode="&#x161;" horiz-adv-x="343" 
d="M191 556h-36c-8 0 -13 3 -17 10l-82 123c-4 6 -1 10 5 10h42c7 0 12 -3 17 -10l52 -71h2l52 71c5 7 10 10 17 10h42c6 0 9 -4 5 -10l-82 -123c-4 -7 -9 -10 -17 -10zM172 -9c-80 0 -130 44 -138 122c-1 6 2 11 8 12l51 10c6 1 11 -2 12 -8c6 -49 33 -69 68 -69
c39 0 63 23 63 69c0 38 -13 59 -55 76l-40 15c-62 24 -99 66 -99 135c0 78 50 135 131 135c79 0 121 -50 128 -107c1 -7 -2 -12 -7 -13l-48 -10c-6 -1 -10 2 -12 8c-9 35 -24 56 -61 56c-38 0 -57 -25 -57 -64c0 -29 12 -52 55 -69l40 -15c74 -28 98 -72 98 -142
c0 -83 -49 -141 -137 -141z" />
    <glyph glyph-name="scedilla" unicode="&#x15f;" horiz-adv-x="343" 
d="M90 -142l54 135c-64 9 -103 51 -110 120c-1 6 2 11 8 12l51 10c6 1 11 -2 12 -8c6 -49 33 -69 68 -69c39 0 63 23 63 69c0 38 -13 59 -55 76l-40 15c-62 24 -99 66 -99 135c0 78 50 135 131 135c79 0 121 -50 128 -107c1 -7 -2 -12 -7 -13l-48 -10c-6 -1 -10 2 -12 8
c-9 35 -24 56 -61 56c-38 0 -57 -25 -57 -64c0 -29 12 -52 55 -69l40 -15c74 -28 98 -72 98 -142c0 -71 -36 -124 -102 -137l-46 -137c-3 -7 -8 -10 -16 -10h-48c-6 0 -9 4 -7 10z" />
    <glyph glyph-name="scommaaccent" unicode="&#x219;" horiz-adv-x="343" 
d="M144 -208c-5 0 -8 4 -8 10v135c0 6 4 10 10 10h53c6 0 10 -4 10 -10v-49c0 -10 -2 -15 -7 -22l-46 -66c-3 -6 -7 -8 -12 -8zM172 -9c-80 0 -130 44 -138 122c-1 6 2 11 8 12l51 10c6 1 11 -2 12 -8c6 -49 33 -69 68 -69c39 0 63 23 63 69c0 38 -13 59 -55 76l-40 15
c-62 24 -99 66 -99 135c0 78 50 135 131 135c79 0 121 -50 128 -107c1 -7 -2 -12 -7 -13l-48 -10c-6 -1 -10 2 -12 8c-9 35 -24 56 -61 56c-38 0 -57 -25 -57 -64c0 -29 12 -52 55 -69l40 -15c74 -28 98 -72 98 -142c0 -83 -49 -141 -137 -141z" />
    <glyph glyph-name="germandbls" unicode="&#xdf;" horiz-adv-x="403" 
d="M227 -3h-14c-6 0 -10 4 -10 10v52c0 6 4 10 10 10h7c26 0 42 10 50 33c4 11 7 29 7 116s-3 103 -7 115c-8 23 -24 33 -50 33h-7c-6 0 -10 4 -10 10v53c0 6 4 10 10 10h5c25 0 42 8 49 29c3 11 5 23 5 64c0 57 -23 84 -68 84c-44 0 -69 -27 -69 -84v-522
c0 -6 -4 -10 -10 -10h-57c-6 0 -10 4 -10 10v514c0 103 46 165 145 165c93 0 147 -55 147 -152c0 -76 -13 -102 -56 -127v-2c23 -12 41 -28 51 -59c7 -21 9 -43 9 -131c0 -97 -3 -126 -11 -149c-16 -52 -54 -72 -116 -72z" />
    <glyph glyph-name="tcaron" unicode="&#x165;" horiz-adv-x="243" 
d="M191 524c-6 0 -9 3 -9 9v137c0 6 4 10 10 10h52c6 0 10 -4 10 -10v-50c0 -11 -1 -15 -6 -23l-45 -66c-3 -5 -7 -7 -12 -7zM203 -5h-25c-73 0 -105 33 -105 114v303c0 4 -2 6 -6 6h-29c-6 0 -10 4 -10 10v41c0 6 4 10 10 10h29c4 0 6 2 6 6v135c0 6 4 10 10 10h57
c6 0 10 -4 10 -10v-135c0 -4 2 -6 6 -6h47c6 0 10 -4 10 -10v-41c0 -6 -4 -10 -10 -10h-47c-4 0 -6 -2 -6 -6v-302c0 -28 12 -42 40 -42h13c6 0 10 -4 10 -10v-53c0 -6 -4 -10 -10 -10z" />
    <glyph glyph-name="tcommaaccent" unicode="&#x163;" horiz-adv-x="243" 
d="M113 -208c-5 0 -8 4 -8 10v135c0 6 4 10 10 10h53c6 0 10 -4 10 -10v-49c0 -10 -2 -15 -7 -22l-46 -66c-3 -6 -7 -8 -12 -8zM203 -5h-25c-73 0 -105 33 -105 114v303c0 4 -2 6 -6 6h-29c-6 0 -10 4 -10 10v41c0 6 4 10 10 10h29c4 0 6 2 6 6v135c0 6 4 10 10 10h57
c6 0 10 -4 10 -10v-135c0 -4 2 -6 6 -6h47c6 0 10 -4 10 -10v-41c0 -6 -4 -10 -10 -10h-47c-4 0 -6 -2 -6 -6v-302c0 -28 12 -42 40 -42h13c6 0 10 -4 10 -10v-53c0 -6 -4 -10 -10 -10z" />
    <glyph glyph-name="uni021B" unicode="&#x21b;" horiz-adv-x="243" 
d="M113 -208c-5 0 -8 4 -8 10v135c0 6 4 10 10 10h53c6 0 10 -4 10 -10v-49c0 -10 -2 -15 -7 -22l-46 -66c-3 -6 -7 -8 -12 -8zM203 -5h-25c-73 0 -105 33 -105 114v303c0 4 -2 6 -6 6h-29c-6 0 -10 4 -10 10v41c0 6 4 10 10 10h29c4 0 6 2 6 6v135c0 6 4 10 10 10h57
c6 0 10 -4 10 -10v-135c0 -4 2 -6 6 -6h47c6 0 10 -4 10 -10v-41c0 -6 -4 -10 -10 -10h-47c-4 0 -6 -2 -6 -6v-302c0 -28 12 -42 40 -42h13c6 0 10 -4 10 -10v-53c0 -6 -4 -10 -10 -10z" />
    <glyph glyph-name="tbar" unicode="&#x167;" horiz-adv-x="243" 
d="M203 -5h-25c-73 0 -105 33 -105 114v169c0 4 -2 6 -6 6h-22c-6 0 -10 4 -10 10v40c0 6 4 10 10 10h22c4 0 6 2 6 6v62c0 4 -2 6 -6 6h-29c-6 0 -10 4 -10 10v41c0 6 4 10 10 10h29c4 0 6 2 6 6v135c0 6 4 10 10 10h57c6 0 10 -4 10 -10v-135c0 -4 2 -6 6 -6h47
c6 0 10 -4 10 -10v-41c0 -6 -4 -10 -10 -10h-47c-4 0 -6 -2 -6 -6v-62c0 -4 2 -6 6 -6h34c6 0 10 -4 10 -10v-40c0 -6 -4 -10 -10 -10h-34c-4 0 -6 -2 -6 -6v-168c0 -28 12 -42 40 -42h13c6 0 10 -4 10 -10v-53c0 -6 -4 -10 -10 -10z" />
    <glyph glyph-name="thorn" unicode="&#xfe;" horiz-adv-x="389" 
d="M125 -180h-57c-6 0 -10 4 -10 10v840c0 6 4 10 10 10h57c6 0 10 -4 10 -10v-240h1c13 33 39 58 91 58s87 -25 104 -78c9 -27 12 -52 12 -170s-3 -143 -12 -171c-17 -53 -52 -78 -104 -78s-78 26 -91 58h-1v-219c0 -6 -4 -10 -10 -10zM201 63c30 0 49 15 58 42
c5 17 7 30 7 135c0 104 -2 117 -7 134c-9 27 -28 42 -58 42s-50 -16 -59 -42c-5 -17 -7 -30 -7 -134c0 -105 2 -118 7 -135c9 -26 29 -42 59 -42z" />
    <glyph glyph-name="ugrave" unicode="&#xf9;" horiz-adv-x="390" 
d="M322 0h-57c-6 0 -10 4 -10 10v38h-1c-14 -32 -42 -57 -90 -57c-73 0 -110 46 -110 148v330c0 6 4 10 10 10h57c6 0 10 -4 10 -10v-319c0 -57 19 -87 62 -87c39 0 62 29 62 87v319c0 6 4 10 10 10h57c6 0 10 -4 10 -10v-459c0 -6 -4 -10 -10 -10zM220 557h-40
c-8 0 -11 2 -17 10l-87 123c-3 5 -1 10 5 10h59c8 0 12 -3 16 -10l69 -123c3 -6 1 -10 -5 -10z" />
    <glyph glyph-name="uacute" unicode="&#xfa;" horiz-adv-x="390" 
d="M207 557h-40c-6 0 -8 4 -5 10l69 123c4 7 8 10 16 10h59c6 0 8 -5 5 -10l-87 -123c-6 -8 -9 -10 -17 -10zM322 0h-57c-6 0 -10 4 -10 10v38h-1c-14 -32 -42 -57 -90 -57c-73 0 -110 46 -110 148v330c0 6 4 10 10 10h57c6 0 10 -4 10 -10v-319c0 -57 19 -87 62 -87
c39 0 62 29 62 87v319c0 6 4 10 10 10h57c6 0 10 -4 10 -10v-459c0 -6 -4 -10 -10 -10z" />
    <glyph glyph-name="ucircumflex" unicode="&#xfb;" horiz-adv-x="390" 
d="M307 557h-42c-7 0 -12 3 -17 10l-52 71h-2l-52 -71c-5 -7 -10 -10 -17 -10h-42c-6 0 -9 4 -5 10l82 123c4 7 9 10 17 10h36c8 0 13 -3 17 -10l82 -123c4 -6 1 -10 -5 -10zM322 0h-57c-6 0 -10 4 -10 10v38h-1c-14 -32 -42 -57 -90 -57c-73 0 -110 46 -110 148v330
c0 6 4 10 10 10h57c6 0 10 -4 10 -10v-319c0 -57 19 -87 62 -87c39 0 62 29 62 87v319c0 6 4 10 10 10h57c6 0 10 -4 10 -10v-459c0 -6 -4 -10 -10 -10z" />
    <glyph glyph-name="utilde" unicode="&#x169;" horiz-adv-x="390" 
d="M322 0h-57c-6 0 -10 4 -10 10v38h-1c-14 -32 -42 -57 -90 -57c-73 0 -110 46 -110 148v330c0 6 4 10 10 10h57c6 0 10 -4 10 -10v-319c0 -57 19 -87 62 -87c39 0 62 29 62 87v319c0 6 4 10 10 10h57c6 0 10 -4 10 -10v-459c0 -6 -4 -10 -10 -10zM236 581
c-20 0 -34 8 -49 19c-14 10 -23 16 -35 16c-19 0 -30 -10 -44 -27c-5 -5 -12 -4 -12 3v47c0 6 2 11 9 18c12 13 27 24 48 24c20 0 33 -9 48 -19c15 -11 23 -17 36 -17c19 0 30 11 44 28c4 5 11 3 11 -4v-47c0 -6 -1 -10 -8 -17c-12 -14 -27 -24 -48 -24z" />
    <glyph glyph-name="udieresis" unicode="&#xfc;" horiz-adv-x="390" 
d="M293 588h-51c-6 0 -10 4 -10 10v72c0 6 4 10 10 10h51c6 0 10 -4 10 -10v-72c0 -6 -4 -10 -10 -10zM148 588h-51c-6 0 -10 4 -10 10v72c0 6 4 10 10 10h51c6 0 10 -4 10 -10v-72c0 -6 -4 -10 -10 -10zM322 0h-57c-6 0 -10 4 -10 10v38h-1c-14 -32 -42 -57 -90 -57
c-73 0 -110 46 -110 148v330c0 6 4 10 10 10h57c6 0 10 -4 10 -10v-319c0 -57 19 -87 62 -87c39 0 62 29 62 87v319c0 6 4 10 10 10h57c6 0 10 -4 10 -10v-459c0 -6 -4 -10 -10 -10z" />
    <glyph glyph-name="umacron" unicode="&#x16b;" horiz-adv-x="390" 
d="M322 0h-57c-6 0 -10 4 -10 10v38h-1c-14 -32 -42 -57 -90 -57c-73 0 -110 46 -110 148v330c0 6 4 10 10 10h57c6 0 10 -4 10 -10v-319c0 -57 19 -87 62 -87c39 0 62 29 62 87v319c0 6 4 10 10 10h57c6 0 10 -4 10 -10v-459c0 -6 -4 -10 -10 -10zM292 603h-194
c-6 0 -10 4 -10 10v43c0 6 4 10 10 10h194c6 0 10 -4 10 -10v-43c0 -6 -4 -10 -10 -10z" />
    <glyph glyph-name="ubreve" unicode="&#x16d;" horiz-adv-x="390" 
d="M322 0h-57c-6 0 -10 4 -10 10v38h-1c-14 -32 -42 -57 -90 -57c-73 0 -110 46 -110 148v330c0 6 4 10 10 10h57c6 0 10 -4 10 -10v-319c0 -57 19 -87 62 -87c39 0 62 29 62 87v319c0 6 4 10 10 10h57c6 0 10 -4 10 -10v-459c0 -6 -4 -10 -10 -10zM195 563
c-71 0 -108 48 -114 111c0 6 4 10 10 10h32c6 0 9 -4 10 -10c10 -33 30 -54 62 -54s52 21 61 54c2 6 4 10 11 10h32c6 0 10 -4 10 -10c-6 -63 -43 -111 -114 -111z" />
    <glyph glyph-name="uring" unicode="&#x16f;" horiz-adv-x="390" 
d="M195 546c-50 0 -86 37 -86 86c0 50 36 87 86 87c49 0 86 -37 86 -87c0 -49 -37 -86 -86 -86zM195 583c27 0 47 21 47 49s-20 49 -47 49s-47 -21 -47 -49s20 -49 47 -49zM322 0h-57c-6 0 -10 4 -10 10v38h-1c-14 -32 -42 -57 -90 -57c-73 0 -110 46 -110 148v330
c0 6 4 10 10 10h57c6 0 10 -4 10 -10v-319c0 -57 19 -87 62 -87c39 0 62 29 62 87v319c0 6 4 10 10 10h57c6 0 10 -4 10 -10v-459c0 -6 -4 -10 -10 -10z" />
    <glyph glyph-name="uhungarumlaut" unicode="&#x171;" horiz-adv-x="390" 
d="M322 0h-57c-6 0 -10 4 -10 10v38h-1c-14 -32 -42 -57 -90 -57c-73 0 -110 46 -110 148v330c0 6 4 10 10 10h57c6 0 10 -4 10 -10v-319c0 -57 19 -87 62 -87c39 0 62 29 62 87v319c0 6 4 10 10 10h57c6 0 10 -4 10 -10v-459c0 -6 -4 -10 -10 -10zM269 557h-35
c-6 0 -9 4 -6 10l61 123c3 7 8 10 16 10h49c6 0 8 -5 5 -10l-73 -123c-5 -9 -9 -10 -17 -10zM145 557h-35c-6 0 -8 4 -5 10l60 123c4 7 8 10 16 10h50c6 0 8 -5 5 -10l-73 -123c-5 -9 -10 -10 -18 -10z" />
    <glyph glyph-name="uogonek" unicode="&#x173;" horiz-adv-x="390" 
d="M272 -181c-45 0 -76 26 -76 73c0 39 23 73 61 111c-1 1 -2 4 -2 7v38h-1c-14 -32 -42 -57 -90 -57c-73 0 -110 46 -110 148v330c0 6 4 10 10 10h57c6 0 10 -4 10 -10v-319c0 -57 19 -87 62 -87c39 0 62 29 62 87v319c0 6 4 10 10 10h57c6 0 10 -4 10 -10v-459
c0 -6 -2 -8 -6 -11c-44 -37 -66 -71 -66 -95c0 -17 9 -26 22 -26c8 0 14 2 20 6c5 3 11 2 13 -3l14 -34c3 -5 1 -10 -4 -13c-12 -8 -33 -15 -53 -15z" />
    <glyph glyph-name="wacute" unicode="&#x1e83;" horiz-adv-x="526" 
d="M283 557h-40c-6 0 -8 4 -5 10l69 123c4 7 8 10 16 10h59c6 0 8 -5 5 -10l-87 -123c-6 -8 -9 -10 -17 -10zM384 0h-49c-6 0 -10 3 -11 10l-61 314h-2l-59 -314c-1 -7 -4 -10 -11 -10h-49c-7 0 -10 3 -11 10l-104 459c-2 6 1 10 7 10h60c6 0 9 -4 10 -10l63 -326h1l64 326
c1 6 4 10 11 10h42c6 0 9 -4 10 -10l63 -326h1l63 326c1 6 4 10 11 10h59c6 0 9 -4 7 -10l-104 -459c-1 -7 -4 -10 -11 -10z" />
    <glyph glyph-name="wcircumflex" unicode="&#x175;" horiz-adv-x="526" 
d="M374 557h-42c-7 0 -12 3 -17 10l-52 71h-2l-52 -71c-5 -7 -10 -10 -17 -10h-42c-6 0 -9 4 -5 10l82 123c4 7 9 10 17 10h36c8 0 13 -3 17 -10l82 -123c4 -6 1 -10 -5 -10zM384 0h-49c-6 0 -10 3 -11 10l-61 314h-2l-59 -314c-1 -7 -4 -10 -11 -10h-49c-7 0 -10 3 -11 10
l-104 459c-2 6 1 10 7 10h60c6 0 9 -4 10 -10l63 -326h1l64 326c1 6 4 10 11 10h42c6 0 9 -4 10 -10l63 -326h1l63 326c1 6 4 10 11 10h59c6 0 9 -4 7 -10l-104 -459c-1 -7 -4 -10 -11 -10z" />
    <glyph glyph-name="wdieresis" unicode="&#x1e85;" horiz-adv-x="526" 
d="M360 588h-51c-6 0 -10 4 -10 10v72c0 6 4 10 10 10h51c6 0 10 -4 10 -10v-72c0 -6 -4 -10 -10 -10zM215 588h-51c-6 0 -10 4 -10 10v72c0 6 4 10 10 10h51c6 0 10 -4 10 -10v-72c0 -6 -4 -10 -10 -10zM384 0h-49c-6 0 -10 3 -11 10l-61 314h-2l-59 -314
c-1 -7 -4 -10 -11 -10h-49c-7 0 -10 3 -11 10l-104 459c-2 6 1 10 7 10h60c6 0 9 -4 10 -10l63 -326h1l64 326c1 6 4 10 11 10h42c6 0 9 -4 10 -10l63 -326h1l63 326c1 6 4 10 11 10h59c6 0 9 -4 7 -10l-104 -459c-1 -7 -4 -10 -11 -10z" />
    <glyph glyph-name="wgrave" unicode="&#x1e81;" horiz-adv-x="526" 
d="M384 0h-49c-6 0 -10 3 -11 10l-61 314h-2l-59 -314c-1 -7 -4 -10 -11 -10h-49c-7 0 -10 3 -11 10l-104 459c-2 6 1 10 7 10h60c6 0 9 -4 10 -10l63 -326h1l64 326c1 6 4 10 11 10h42c6 0 9 -4 10 -10l63 -326h1l63 326c1 6 4 10 11 10h59c6 0 9 -4 7 -10l-104 -459
c-1 -7 -4 -10 -11 -10zM286 557h-40c-8 0 -11 2 -17 10l-87 123c-3 5 -1 10 5 10h59c8 0 12 -3 16 -10l69 -123c3 -6 1 -10 -5 -10z" />
    <glyph glyph-name="yacute" unicode="&#xfd;" horiz-adv-x="355" 
d="M73 -180h-11c-6 0 -10 4 -10 10v53c0 6 4 10 10 10l12 1c28 1 42 13 52 55l17 66l-117 454c-1 6 2 10 8 10h60c6 0 9 -4 10 -10l74 -327h2l74 327c1 6 4 10 11 10h58c6 0 9 -4 7 -10l-131 -517c-27 -108 -57 -132 -126 -132zM195 557h-40c-6 0 -8 4 -5 10l69 123
c4 7 8 10 16 10h59c6 0 8 -5 5 -10l-87 -123c-6 -8 -9 -10 -17 -10z" />
    <glyph glyph-name="ycircumflex" unicode="&#x177;" horiz-adv-x="355" 
d="M73 -180h-11c-6 0 -10 4 -10 10v53c0 6 4 10 10 10l12 1c28 1 42 13 52 55l17 66l-117 454c-1 6 2 10 8 10h60c6 0 9 -4 10 -10l74 -327h2l74 327c1 6 4 10 11 10h58c6 0 9 -4 7 -10l-131 -517c-27 -108 -57 -132 -126 -132zM290 557h-42c-7 0 -12 3 -17 10l-52 71h-2
l-52 -71c-5 -7 -10 -10 -17 -10h-42c-6 0 -9 4 -5 10l82 123c4 7 9 10 17 10h36c8 0 13 -3 17 -10l82 -123c4 -6 1 -10 -5 -10z" />
    <glyph glyph-name="ydieresis" unicode="&#xff;" horiz-adv-x="355" 
d="M73 -180h-11c-6 0 -10 4 -10 10v53c0 6 4 10 10 10l12 1c28 1 42 13 52 55l17 66l-117 454c-1 6 2 10 8 10h60c6 0 9 -4 10 -10l74 -327h2l74 327c1 6 4 10 11 10h58c6 0 9 -4 7 -10l-131 -517c-27 -108 -57 -132 -126 -132zM276 588h-51c-6 0 -10 4 -10 10v72
c0 6 4 10 10 10h51c6 0 10 -4 10 -10v-72c0 -6 -4 -10 -10 -10zM131 588h-51c-6 0 -10 4 -10 10v72c0 6 4 10 10 10h51c6 0 10 -4 10 -10v-72c0 -6 -4 -10 -10 -10z" />
    <glyph glyph-name="ygrave" unicode="&#x1ef3;" horiz-adv-x="355" 
d="M73 -180h-11c-6 0 -10 4 -10 10v53c0 6 4 10 10 10l12 1c28 1 42 13 52 55l17 66l-117 454c-1 6 2 10 8 10h60c6 0 9 -4 10 -10l74 -327h2l74 327c1 6 4 10 11 10h58c6 0 9 -4 7 -10l-131 -517c-27 -108 -57 -132 -126 -132zM209 557h-40c-8 0 -11 2 -17 10l-87 123
c-3 5 -1 10 5 10h59c8 0 12 -3 16 -10l69 -123c3 -6 1 -10 -5 -10z" />
    <glyph glyph-name="zacute" unicode="&#x17a;" horiz-adv-x="327" 
d="M182 557h-40c-6 0 -8 4 -5 10l69 123c4 7 8 10 16 10h59c6 0 8 -5 5 -10l-87 -123c-6 -8 -9 -10 -17 -10zM284 0h-238c-6 0 -10 4 -10 10v49c0 5 1 8 3 12l167 337v2h-150c-6 0 -10 4 -10 10v49c0 6 4 10 10 10h228c6 0 10 -4 10 -10v-41c0 -4 -1 -8 -3 -12l-170 -343v-2
h163c6 0 10 -4 10 -10v-51c0 -6 -4 -10 -10 -10z" />
    <glyph glyph-name="zcaron" unicode="&#x17e;" horiz-adv-x="327" 
d="M190 556h-36c-8 0 -13 3 -17 10l-82 123c-4 6 -1 10 5 10h42c7 0 12 -3 17 -10l52 -71h2l52 71c5 7 10 10 17 10h42c6 0 9 -4 5 -10l-82 -123c-4 -7 -9 -10 -17 -10zM284 0h-238c-6 0 -10 4 -10 10v49c0 5 1 8 3 12l167 337v2h-150c-6 0 -10 4 -10 10v49c0 6 4 10 10 10
h228c6 0 10 -4 10 -10v-41c0 -4 -1 -8 -3 -12l-170 -343v-2h163c6 0 10 -4 10 -10v-51c0 -6 -4 -10 -10 -10z" />
    <glyph glyph-name="zdotaccent" unicode="&#x17c;" horiz-adv-x="327" 
d="M284 0h-238c-6 0 -10 4 -10 10v49c0 5 1 8 3 12l167 337v2h-150c-6 0 -10 4 -10 10v49c0 6 4 10 10 10h228c6 0 10 -4 10 -10v-41c0 -4 -1 -8 -3 -12l-170 -343v-2h163c6 0 10 -4 10 -10v-51c0 -6 -4 -10 -10 -10zM199 588h-63c-6 0 -10 4 -10 10v72c0 6 4 10 10 10h63
c6 0 10 -4 10 -10v-72c0 -6 -4 -10 -10 -10z" />
    <glyph glyph-name="grave.cap" horiz-adv-x="390" 
d="M268 763h-39c-8 0 -12 2 -19 10l-93 105c-4 5 -1 10 5 10h58c9 0 12 -3 17 -10l76 -105c4 -5 1 -10 -5 -10z" />
    <glyph glyph-name="acute" unicode="&#xb4;" horiz-adv-x="390" 
d="M166 557h-40c-6 0 -8 4 -5 10l69 123c4 7 8 10 16 10h59c6 0 8 -5 5 -10l-87 -123c-6 -8 -9 -10 -17 -10z" />
    <glyph glyph-name="acute.cap" horiz-adv-x="390" 
d="M167 763h-38c-6 0 -10 5 -6 10l77 105c5 7 8 10 16 10h58c6 0 9 -5 5 -10l-93 -105c-7 -8 -11 -10 -19 -10z" />
    <glyph glyph-name="circumflex" unicode="&#x2c6;" horiz-adv-x="390" 
d="M307 557h-42c-7 0 -12 3 -17 10l-52 71h-2l-52 -71c-5 -7 -10 -10 -17 -10h-42c-6 0 -9 4 -5 10l82 123c4 7 9 10 17 10h36c8 0 13 -3 17 -10l82 -123c4 -6 1 -10 -5 -10z" />
    <glyph glyph-name="circumflex.cap" horiz-adv-x="390" 
d="M307 752h-42c-7 0 -12 3 -17 10l-52 71h-2l-52 -71c-5 -7 -10 -10 -17 -10h-42c-6 0 -9 4 -5 10l82 123c4 7 9 10 17 10h36c8 0 13 -3 17 -10l82 -123c4 -6 1 -10 -5 -10z" />
    <glyph glyph-name="caron" unicode="&#x2c7;" horiz-adv-x="390" 
d="M213 556h-36c-8 0 -13 3 -17 10l-82 123c-4 6 -1 10 5 10h42c7 0 12 -3 17 -10l52 -71h2l52 71c5 7 10 10 17 10h42c6 0 9 -4 5 -10l-82 -123c-4 -7 -9 -10 -17 -10z" />
    <glyph glyph-name="caron.cap" horiz-adv-x="390" 
d="M213 750h-36c-8 0 -13 3 -17 9l-82 124c-4 5 -1 10 5 10h42c7 0 12 -3 17 -10l52 -72h2l52 72c5 7 10 10 17 10h42c6 0 9 -5 5 -10l-82 -124c-4 -6 -9 -9 -17 -9z" />
    <glyph glyph-name="caron.alt" horiz-adv-x="390" 
d="M168 524c-6 0 -9 3 -9 9v137c0 6 4 10 10 10h52c6 0 10 -4 10 -10v-50c0 -11 -1 -15 -6 -23l-45 -66c-3 -5 -7 -7 -12 -7z" />
    <glyph glyph-name="tilde" unicode="&#x2dc;" horiz-adv-x="390" 
d="M236 581c-20 0 -34 8 -49 19c-14 10 -23 16 -35 16c-19 0 -30 -10 -44 -27c-5 -5 -12 -4 -12 3v47c0 6 2 11 9 18c12 13 27 24 48 24c20 0 33 -9 48 -19c15 -11 23 -17 36 -17c19 0 30 11 44 28c4 5 11 3 11 -4v-47c0 -6 -1 -10 -8 -17c-12 -14 -27 -24 -48 -24z" />
    <glyph glyph-name="tilde.cap" horiz-adv-x="390" 
d="M236 773c-20 0 -34 8 -49 19c-14 10 -23 16 -35 16c-19 0 -30 -10 -44 -27c-5 -5 -12 -4 -12 3v47c0 6 2 11 9 18c12 13 27 24 48 24c20 0 33 -9 48 -19c15 -11 23 -17 36 -17c19 0 30 11 44 28c4 5 11 3 11 -4v-47c0 -6 -1 -10 -8 -17c-12 -14 -27 -24 -48 -24z" />
    <glyph glyph-name="dieresis" unicode="&#xa8;" horiz-adv-x="390" 
d="M293 588h-51c-6 0 -10 4 -10 10v72c0 6 4 10 10 10h51c6 0 10 -4 10 -10v-72c0 -6 -4 -10 -10 -10zM148 588h-51c-6 0 -10 4 -10 10v72c0 6 4 10 10 10h51c6 0 10 -4 10 -10v-72c0 -6 -4 -10 -10 -10z" />
    <glyph glyph-name="dieresis.cap" horiz-adv-x="390" 
d="M293 777h-51c-6 0 -10 4 -10 10v72c0 6 4 10 10 10h51c6 0 10 -4 10 -10v-72c0 -6 -4 -10 -10 -10zM148 777h-51c-6 0 -10 4 -10 10v72c0 6 4 10 10 10h51c6 0 10 -4 10 -10v-72c0 -6 -4 -10 -10 -10z" />
    <glyph glyph-name="macron" unicode="&#xaf;" horiz-adv-x="390" 
d="M292 603h-194c-6 0 -10 4 -10 10v43c0 6 4 10 10 10h194c6 0 10 -4 10 -10v-43c0 -6 -4 -10 -10 -10z" />
    <glyph glyph-name="macron.cap" horiz-adv-x="390" 
d="M292 790h-194c-6 0 -10 4 -10 10v43c0 6 4 10 10 10h194c6 0 10 -4 10 -10v-43c0 -6 -4 -10 -10 -10z" />
    <glyph glyph-name="uni02C9" unicode="&#x2c9;" horiz-adv-x="390" 
d="M292 790h-194c-6 0 -10 4 -10 10v43c0 6 4 10 10 10h194c6 0 10 -4 10 -10v-43c0 -6 -4 -10 -10 -10z" />
    <glyph glyph-name="breve" unicode="&#x2d8;" horiz-adv-x="390" 
d="M195 563c-71 0 -108 48 -114 111c0 6 4 10 10 10h32c6 0 9 -4 10 -10c10 -33 30 -54 62 -54s52 21 61 54c2 6 4 10 11 10h32c6 0 10 -4 10 -10c-6 -63 -43 -111 -114 -111z" />
    <glyph glyph-name="breve.cap" horiz-adv-x="390" 
d="M195 753c-71 0 -108 48 -114 111c0 6 4 10 10 10h32c6 0 9 -4 10 -10c10 -34 30 -55 62 -55s52 21 61 55c2 6 4 10 11 10h32c6 0 10 -4 10 -10c-6 -63 -43 -111 -114 -111z" />
    <glyph glyph-name="ring" unicode="&#x2da;" horiz-adv-x="390" 
d="M195 546c-50 0 -86 37 -86 86c0 50 36 87 86 87c49 0 86 -37 86 -87c0 -49 -37 -86 -86 -86zM195 583c27 0 47 21 47 49s-20 49 -47 49s-47 -21 -47 -49s20 -49 47 -49z" />
    <glyph glyph-name="ring.cap" horiz-adv-x="390" 
d="M195 731c-50 0 -86 37 -86 86c0 50 36 86 86 86c49 0 86 -36 86 -86c0 -49 -37 -86 -86 -86zM195 768c27 0 47 21 47 49s-20 49 -47 49s-47 -21 -47 -49s20 -49 47 -49z" />
    <glyph glyph-name="hungarumlaut" unicode="&#x2dd;" horiz-adv-x="390" 
d="M258 557h-35c-6 0 -9 4 -6 10l61 123c3 7 8 10 16 10h49c6 0 8 -5 5 -10l-73 -123c-5 -9 -9 -10 -17 -10zM134 557h-35c-6 0 -8 4 -5 10l60 123c4 7 8 10 16 10h50c6 0 8 -5 5 -10l-73 -123c-5 -9 -10 -10 -18 -10z" />
    <glyph glyph-name="hungarumlaut.cap" horiz-adv-x="390" 
d="M262 763h-35c-6 0 -9 4 -5 10l68 105c4 6 8 10 16 10h49c6 0 8 -5 5 -10l-80 -105c-6 -8 -10 -10 -18 -10zM138 763h-34c-6 0 -9 4 -5 10l67 105c4 6 9 10 17 10h49c6 0 8 -5 4 -10l-79 -105c-6 -8 -11 -10 -19 -10z" />
    <glyph glyph-name="dotaccent" unicode="&#x2d9;" horiz-adv-x="390" 
d="M226 588h-63c-6 0 -10 4 -10 10v72c0 6 4 10 10 10h63c6 0 10 -4 10 -10v-72c0 -6 -4 -10 -10 -10z" />
    <glyph glyph-name="dotaccent.cap" horiz-adv-x="390" 
d="M226 777h-63c-6 0 -10 4 -10 10v72c0 6 4 10 10 10h63c6 0 10 -4 10 -10v-72c0 -6 -4 -10 -10 -10z" />
    <glyph glyph-name="cedilla" unicode="&#xb8;" horiz-adv-x="390" 
d="M137 -142l57 142c3 7 6 10 13 10h42c6 0 9 -4 7 -10l-48 -142c-3 -7 -8 -10 -16 -10h-48c-6 0 -9 4 -7 10z" />
    <glyph glyph-name="ogonek" unicode="&#x2db;" horiz-adv-x="390" 
d="M205 -181c-45 0 -76 26 -76 73c0 39 23 71 59 108c6 6 11 10 17 10h54c6 0 7 -6 2 -10c-44 -37 -68 -71 -68 -96c0 -17 9 -26 22 -26c8 0 14 2 20 6c5 3 11 2 13 -3l14 -34c3 -5 1 -10 -4 -13c-12 -8 -33 -15 -53 -15z" />
    <glyph glyph-name="commaaccent" horiz-adv-x="390" 
d="M167 -208c-5 0 -8 4 -8 10v135c0 6 4 10 10 10h53c6 0 10 -4 10 -10v-49c0 -10 -2 -15 -7 -22l-46 -66c-3 -6 -7 -8 -12 -8z" />
    <glyph glyph-name="commaaccent.alt" horiz-adv-x="390" 
d="M222 572h-53c-6 0 -10 4 -10 10v49c0 10 1 15 6 22l46 66c4 6 7 8 12 8c6 0 9 -4 9 -10v-135c0 -6 -4 -10 -10 -10z" />
    <glyph glyph-name="ellipsis" unicode="&#x2026;" horiz-adv-x="537" 
d="M482 0h-66c-6 0 -10 4 -10 10v84c0 6 4 10 10 10h66c6 0 10 -4 10 -10v-84c0 -6 -4 -10 -10 -10zM303 0h-66c-6 0 -10 4 -10 10v84c0 6 4 10 10 10h66c6 0 10 -4 10 -10v-84c0 -6 -4 -10 -10 -10zM124 0h-66c-6 0 -10 4 -10 10v84c0 6 4 10 10 10h66c6 0 10 -4 10 -10
v-84c0 -6 -4 -10 -10 -10z" />
    <glyph glyph-name="uni00AD" unicode="&#xad;" horiz-adv-x="335" 
d="M283 230h-232c-6 0 -10 4 -10 10v52c0 6 4 10 10 10h232c6 0 10 -4 10 -10v-52c0 -6 -4 -10 -10 -10z" />
    <glyph glyph-name="exclamdown" unicode="&#xa1;" horiz-adv-x="227" 
d="M130 309c6 0 10 -4 10 -10l16 -490c0 -6 -4 -10 -10 -10h-65c-6 0 -10 4 -10 10l16 490c0 6 4 10 10 10h33zM156 469v-84c0 -6 -4 -10 -10 -10h-65c-6 0 -10 4 -10 10v84c0 6 4 10 10 10h65c6 0 10 -4 10 -10z" />
    <glyph glyph-name="questiondown" unicode="&#xbf;" horiz-adv-x="360" 
d="M218 309c6 0 10 -4 10 -10v-73c0 -25 -5 -45 -18 -69l-55 -103c-18 -35 -26 -59 -26 -106c0 -21 1 -34 5 -45c9 -27 26 -40 57 -40c30 0 48 12 57 40c4 11 6 23 6 70c0 7 5 11 11 10l55 -6c6 -1 9 -5 9 -12c0 -50 -3 -68 -9 -86c-18 -55 -66 -89 -130 -89
c-68 0 -112 35 -130 89c-5 17 -9 38 -9 69c0 51 8 80 30 121l55 105c10 19 15 34 15 55v70c0 6 4 10 10 10h57zM232 469v-84c0 -6 -4 -10 -10 -10h-65c-6 0 -10 4 -10 10v84c0 6 4 10 10 10h65c6 0 10 -4 10 -10z" />
    <glyph glyph-name="quoteleft" unicode="&#x2018;" horiz-adv-x="156" 
d="M105 509h-54c-6 0 -10 4 -10 10v64c0 10 1 15 6 23l48 67c4 6 7 8 12 8s8 -4 8 -9v-153c0 -6 -4 -10 -10 -10z" />
    <glyph glyph-name="quoteright" unicode="&#x2019;" horiz-adv-x="156" 
d="M49 506c-5 0 -8 3 -8 9v155c0 6 4 10 10 10h54c6 0 10 -4 10 -10v-68c0 -10 -2 -15 -7 -23l-47 -66c-4 -5 -7 -7 -12 -7z" />
    <glyph glyph-name="quotedblleft" unicode="&#x201c;" horiz-adv-x="272" 
d="M221 506h-54c-6 0 -10 4 -10 10v68c0 10 2 16 7 23l47 66c3 5 6 8 11 8c6 0 9 -4 9 -9v-156c0 -6 -4 -10 -10 -10zM105 506h-54c-6 0 -10 4 -10 10v68c0 10 1 16 6 23l48 66c3 5 6 8 11 8c6 0 9 -4 9 -9v-156c0 -6 -4 -10 -10 -10z" />
    <glyph glyph-name="quotedblright" unicode="&#x201d;" horiz-adv-x="272" 
d="M166 506c-6 0 -9 3 -9 9v155c0 6 4 10 10 10h54c6 0 10 -4 10 -10v-68c0 -10 -2 -15 -7 -23l-47 -66c-3 -5 -6 -7 -11 -7zM49 506c-5 0 -8 3 -8 9v155c0 6 4 10 10 10h54c6 0 10 -4 10 -10v-68c0 -10 -2 -15 -7 -23l-47 -66c-4 -5 -7 -7 -12 -7z" />
    <glyph glyph-name="quotesinglbase" unicode="&#x201a;" horiz-adv-x="156" 
d="M49 -89c-5 0 -8 3 -8 9v155c0 6 4 10 10 10h54c6 0 10 -4 10 -10v-67c0 -10 -2 -15 -7 -23l-47 -67c-4 -5 -7 -7 -12 -7z" />
    <glyph glyph-name="quotedblbase" unicode="&#x201e;" horiz-adv-x="272" 
d="M166 -91c-6 0 -9 4 -9 9v156c0 6 4 10 10 10h54c6 0 10 -4 10 -10v-68c0 -10 -2 -15 -7 -23l-47 -66c-3 -5 -6 -8 -11 -8zM49 -91c-5 0 -8 4 -8 9v156c0 6 4 10 10 10h54c6 0 10 -4 10 -10v-68c0 -10 -2 -15 -7 -23l-47 -66c-4 -5 -7 -8 -12 -8z" />
    <glyph glyph-name="guilsinglleft" unicode="&#x2039;" horiz-adv-x="271" 
d="M200 91l-161 166c-4 4 -4 10 0 14l161 166c4 4 10 2 10 -4v-60c0 -7 -2 -11 -9 -18l-84 -87c-3 -3 -3 -5 0 -8l84 -87c7 -7 9 -11 9 -18v-60c0 -6 -6 -8 -10 -4z" />
    <glyph glyph-name="guilsinglright" unicode="&#x203a;" horiz-adv-x="271" 
d="M71 91c-4 -4 -10 -2 -10 4v60c0 7 2 11 9 18l84 87c3 3 3 5 0 8l-84 87c-7 7 -9 11 -9 18v60c0 6 6 8 10 4l161 -166c4 -4 4 -10 0 -14z" />
    <glyph glyph-name="guillemotleft" unicode="&#xab;" horiz-adv-x="445" 
d="M374 91l-161 166c-4 4 -4 10 0 14l161 166c4 4 10 2 10 -4v-60c0 -7 -2 -11 -9 -18l-84 -87c-3 -3 -3 -5 0 -8l84 -87c7 -7 9 -11 9 -18v-60c0 -6 -6 -8 -10 -4zM200 91l-161 166c-4 4 -4 10 0 14l161 166c4 4 10 2 10 -4v-60c0 -7 -2 -11 -9 -18l-84 -87
c-3 -3 -3 -5 0 -8l84 -87c7 -7 9 -11 9 -18v-60c0 -6 -6 -8 -10 -4z" />
    <glyph glyph-name="guillemotright" unicode="&#xbb;" horiz-adv-x="445" 
d="M245 91c-4 -4 -10 -2 -10 4v60c0 7 2 11 9 18l84 87c3 3 3 5 0 8l-84 87c-7 7 -9 11 -9 18v60c0 6 6 8 10 4l161 -166c4 -4 4 -10 0 -14zM71 91c-4 -4 -10 -2 -10 4v60c0 7 2 11 9 18l84 87c3 3 3 5 0 8l-84 87c-7 7 -9 11 -9 18v60c0 6 6 8 10 4l161 -166
c4 -4 4 -10 0 -14z" />
    <glyph glyph-name="endash" unicode="&#x2013;" horiz-adv-x="392" 
d="M365 234h-338c-6 0 -10 4 -10 10v44c0 6 4 10 10 10h338c6 0 10 -4 10 -10v-44c0 -6 -4 -10 -10 -10z" />
    <glyph glyph-name="emdash" unicode="&#x2014;" horiz-adv-x="579" 
d="M552 234h-525c-6 0 -10 4 -10 10v44c0 6 4 10 10 10h525c6 0 10 -4 10 -10v-44c0 -6 -4 -10 -10 -10z" />
    <glyph glyph-name="bullet" unicode="&#x2022;" horiz-adv-x="417" 
d="M209 192c-66 0 -116 50 -116 116c0 67 50 116 116 116s115 -49 115 -116c0 -66 -49 -116 -115 -116z" />
    <glyph glyph-name="periodcentered" unicode="&#xb7;" horiz-adv-x="185" 
d="M125 213h-65c-6 0 -10 4 -10 10v84c0 6 4 10 10 10h65c6 0 10 -4 10 -10v-84c0 -6 -4 -10 -10 -10z" />
    <glyph glyph-name="uni2219" unicode="&#x2219;" horiz-adv-x="185" 
d="M125 213h-65c-6 0 -10 4 -10 10v84c0 6 4 10 10 10h65c6 0 10 -4 10 -10v-84c0 -6 -4 -10 -10 -10z" />
    <glyph glyph-name="dagger" unicode="&#x2020;" horiz-adv-x="478" 
d="M267 -180h-55c-6 0 -10 4 -10 10v534c0 4 -2 6 -6 6h-113c-6 0 -10 4 -10 10v49c0 6 4 10 10 10h113c4 0 6 2 6 6v225c0 6 4 10 10 10h55c6 0 10 -4 10 -10v-225c0 -4 2 -6 6 -6h113c6 0 10 -4 10 -10v-49c0 -6 -4 -10 -10 -10h-113c-4 0 -6 -2 -6 -6v-534
c0 -6 -4 -10 -10 -10z" />
    <glyph glyph-name="daggerdbl" unicode="&#x2021;" horiz-adv-x="478" 
d="M267 -180h-55c-6 0 -10 4 -10 10v196c0 4 -2 6 -6 6h-113c-6 0 -10 4 -10 10v50c0 6 4 10 10 10h113c4 0 6 2 6 6v285c0 4 -2 6 -6 6h-113c-6 0 -10 4 -10 10v50c0 6 4 10 10 10h113c4 0 6 2 6 6v195c0 6 4 10 10 10h55c6 0 10 -4 10 -10v-195c0 -4 2 -6 6 -6h113
c6 0 10 -4 10 -10v-50c0 -6 -4 -10 -10 -10h-113c-4 0 -6 -2 -6 -6v-285c0 -4 2 -6 6 -6h113c6 0 10 -4 10 -10v-50c0 -6 -4 -10 -10 -10h-113c-4 0 -6 -2 -6 -6v-196c0 -6 -4 -10 -10 -10z" />
    <glyph glyph-name="section" unicode="&#xa7;" horiz-adv-x="447" 
d="M222 -189c-66 0 -107 30 -123 80c-6 18 -8 38 -8 69c0 6 3 10 8 10l52 5c5 0 9 -4 9 -9c0 -31 2 -43 5 -53c8 -24 28 -37 58 -37s50 13 57 37c4 10 6 22 6 47c0 24 -1 39 -6 52c-9 30 -38 49 -91 64s-81 42 -96 86c-8 23 -12 49 -12 91c0 34 3 56 10 77
c12 36 34 62 69 74v1c-26 10 -47 30 -58 63c-6 18 -9 41 -9 72s2 50 8 68c17 51 60 81 123 81c64 0 105 -30 121 -80c6 -18 8 -38 8 -69c0 -6 -3 -10 -8 -10l-52 -5c-5 0 -9 4 -9 9c0 31 -1 43 -5 53c-8 24 -27 37 -54 37c-28 0 -47 -13 -55 -37c-3 -10 -5 -22 -5 -47
c0 -19 1 -34 6 -47c9 -30 35 -47 89 -63c52 -15 81 -42 96 -86c7 -23 11 -50 11 -91c0 -35 -3 -57 -9 -77c-12 -37 -35 -62 -69 -74v-1c26 -10 49 -30 60 -63c6 -19 9 -42 9 -76c0 -33 -2 -52 -8 -70c-17 -51 -60 -81 -128 -81zM224 139c34 0 55 15 64 45c5 14 7 31 7 69
c0 37 -2 54 -7 68c-9 31 -30 45 -64 45c-33 0 -54 -14 -64 -45c-4 -14 -7 -31 -7 -68c0 -38 3 -55 7 -69c10 -30 31 -45 64 -45z" />
    <glyph glyph-name="paragraph" unicode="&#xb6;" horiz-adv-x="468" 
d="M391 -180h-44c-6 0 -10 4 -10 10v778c0 4 -2 6 -6 6h-50c-4 0 -6 -2 -6 -6v-778c0 -6 -4 -10 -10 -10h-43c-6 0 -10 4 -10 10v428c-93 12 -152 97 -152 211c0 116 70 211 188 211h143c6 0 10 -4 10 -10v-840c0 -6 -4 -10 -10 -10z" />
    <glyph glyph-name="brokenbar" unicode="&#xa6;" horiz-adv-x="264" 
d="M153 388h-43c-6 0 -10 4 -10 10v332c0 6 4 10 10 10h43c6 0 10 -4 10 -10v-332c0 -6 -4 -10 -10 -10zM153 -84h-43c-6 0 -10 4 -10 10v336c0 6 4 10 10 10h43c6 0 10 -4 10 -10v-336c0 -6 -4 -10 -10 -10z" />
    <glyph glyph-name="copyright" unicode="&#xa9;" horiz-adv-x="719" 
d="M360 -9c-146 0 -252 75 -294 203c-11 34 -18 79 -18 146s7 112 18 146c42 128 148 203 294 203c145 0 251 -75 293 -203c11 -34 18 -79 18 -146s-7 -112 -18 -146c-42 -128 -148 -203 -293 -203zM360 46c118 0 202 57 236 161c10 30 17 68 17 133s-7 103 -17 133
c-34 104 -118 161 -236 161c-119 0 -203 -57 -237 -161c-10 -30 -17 -68 -17 -133s7 -103 17 -133c34 -104 118 -161 237 -161zM363 143c-52 0 -89 25 -104 72c-6 17 -9 38 -9 125s3 108 9 125c15 47 52 72 104 72c62 0 101 -37 108 -84c1 -5 -1 -9 -6 -10l-42 -8
c-5 -1 -9 2 -10 6c-8 25 -24 38 -50 38c-23 0 -38 -10 -45 -32c-4 -10 -6 -19 -6 -107s2 -97 6 -107c7 -22 22 -32 45 -32c26 0 42 13 50 38c1 4 5 7 10 6l42 -8c5 -1 7 -5 6 -10c-7 -47 -46 -84 -108 -84z" />
    <glyph glyph-name="registered" unicode="&#xae;" horiz-adv-x="432" 
d="M216 303c-80 0 -138 40 -161 113c-5 18 -10 40 -10 77c0 36 5 58 10 77c23 72 81 112 161 112c79 0 138 -40 161 -112c5 -19 9 -41 9 -77c0 -37 -4 -59 -9 -77c-23 -73 -82 -113 -161 -113zM216 332c64 0 112 34 130 91c5 16 10 37 10 70c0 32 -5 53 -10 69
c-18 57 -66 91 -130 91s-112 -34 -131 -91c-5 -16 -9 -37 -9 -69c0 -33 4 -54 9 -70c19 -57 67 -91 131 -91zM191 388h-18c-4 0 -7 2 -7 7v198c0 5 3 7 7 7h43c40 0 60 -18 60 -61c0 -27 -10 -44 -27 -53l30 -91c1 -5 -2 -7 -6 -7h-20c-5 0 -7 2 -8 7l-25 82
c-6 -1 -11 -1 -18 -1c-3 0 -4 -1 -4 -4v-77c0 -5 -3 -7 -7 -7zM213 507c21 0 30 7 30 32c0 24 -9 31 -30 31h-11c-3 0 -4 -1 -4 -4v-55c0 -3 1 -4 4 -4h11z" />
    <glyph glyph-name="trademark" unicode="&#x2122;" horiz-adv-x="645" 
d="M575 286h-36c-6 0 -10 4 -10 10v232h-1l-51 -168c-2 -7 -5 -10 -11 -10h-22c-6 0 -9 3 -11 10l-50 168h-1v-232c0 -6 -4 -10 -10 -10h-37c-6 0 -10 4 -10 10v374c0 6 4 10 10 10h42c6 0 10 -4 12 -10l67 -232h1l65 232c2 6 6 10 12 10h41c6 0 10 -4 10 -10v-374
c0 -6 -4 -10 -10 -10zM188 286h-40c-6 0 -10 4 -10 10v322c0 3 -1 5 -5 5h-60c-6 0 -10 4 -10 10v37c0 6 4 10 10 10h190c6 0 10 -4 10 -10v-37c0 -6 -4 -10 -10 -10h-60c-3 0 -5 -2 -5 -5v-322c0 -6 -4 -10 -10 -10z" />
    <glyph glyph-name="currency" unicode="&#xa4;" 
d="M341 200l-25 -26c-4 -4 -10 -4 -14 0l-37 37c-21 -13 -45 -20 -72 -20s-52 7 -73 21l-37 -38c-5 -4 -10 -4 -14 0l-25 26c-4 4 -4 10 0 14l37 37c-13 21 -20 45 -20 72s7 51 21 72l-37 37c-4 4 -4 9 0 14l25 25c4 4 9 5 14 0l37 -38c20 13 45 21 72 21s51 -8 72 -21
l37 38c5 5 10 4 14 0l25 -25c5 -5 5 -10 0 -14l-38 -38c13 -20 21 -44 21 -71s-7 -52 -20 -72l37 -37c4 -4 4 -10 0 -14zM193 246c44 0 75 32 75 77c0 44 -31 76 -75 76s-75 -32 -75 -76c0 -45 31 -77 75 -77z" />
    <glyph glyph-name="Euro" unicode="&#x20ac;" 
d="M214 -9c-68 0 -112 34 -131 93c-8 23 -11 46 -11 161c0 4 -2 6 -6 6h-40c-6 0 -10 4 -10 10v39c0 6 4 10 10 10h40c4 0 6 2 6 6v54c0 4 -2 6 -6 6h-40c-6 0 -10 4 -10 10v39c0 6 4 10 10 10h40c4 0 6 2 6 6c0 109 3 132 11 155c19 59 63 93 131 93c85 0 135 -57 144 -136
c1 -6 -1 -11 -7 -12l-54 -10c-6 -2 -11 1 -12 7c-7 48 -27 78 -69 78c-30 0 -50 -14 -60 -42c-5 -16 -7 -31 -7 -133c0 -4 2 -6 6 -6h142c6 0 10 -4 10 -10l-10 -39c-1 -5 -4 -10 -10 -10h-132c-4 0 -6 -2 -6 -6v-54c0 -4 2 -6 6 -6h127c6 0 10 -4 10 -10l-10 -39
c-2 -7 -4 -10 -10 -10h-117c-4 0 -6 -2 -6 -6c0 -108 2 -122 7 -139c10 -28 30 -42 60 -42c42 0 62 30 69 78c1 6 6 9 12 7l54 -10c6 -1 8 -6 7 -12c-9 -79 -59 -136 -144 -136z" />
    <glyph glyph-name="cent" unicode="&#xa2;" 
d="M205 -100h-13c-6 0 -10 4 -10 10v82c-61 4 -99 34 -115 88c-9 28 -12 44 -12 160c0 115 3 131 12 159c16 53 54 84 115 88v83c0 6 4 10 10 10h13c6 0 10 -4 10 -10v-83c68 -5 111 -46 121 -114c1 -5 -1 -10 -6 -11l-55 -11c-6 -1 -11 1 -12 7c-7 33 -22 51 -48 56v-349
c26 5 42 22 48 56c1 6 6 9 12 7l55 -11c5 -1 7 -6 6 -11c-10 -68 -53 -108 -121 -114v-82c0 -6 -4 -10 -10 -10zM139 103c8 -23 21 -35 43 -38v349c-22 -4 -35 -15 -43 -37c-5 -18 -7 -28 -7 -137c0 -110 2 -120 7 -137z" />
    <glyph glyph-name="sterling" unicode="&#xa3;" 
d="M339 0h-281c-6 0 -10 4 -10 10v52c0 5 2 8 4 11c22 25 30 47 30 93v119c0 4 -2 6 -6 6h-29c-6 0 -10 4 -10 10v38c0 6 4 10 10 10h29c4 0 6 2 6 6v185c0 92 45 149 132 149s125 -57 132 -139c0 -6 -2 -11 -8 -12l-54 -9c-7 -1 -11 2 -12 8c-3 56 -20 79 -58 79
c-37 0 -54 -24 -54 -74v-187c0 -4 2 -6 6 -6h94c6 0 10 -4 10 -10v-38c0 -6 -4 -10 -10 -10h-94c-4 0 -6 -2 -6 -6v-119c0 -44 -8 -72 -29 -92v-2h208c6 0 10 -4 10 -10v-52c0 -6 -4 -10 -10 -10z" />
    <glyph glyph-name="florin" unicode="&#x192;" 
d="M324 337h-81l-49 -364c-14 -105 -54 -153 -150 -153h-17c-6 0 -10 4 -10 10v53c0 6 4 10 10 10h13c49 0 69 17 77 75l49 369h-68c-6 0 -10 4 -10 10v44c0 6 4 10 10 10h77l17 126c14 105 54 153 150 153h18c6 0 10 -4 10 -10v-53c0 -6 -4 -10 -10 -10h-13
c-49 0 -69 -17 -77 -75l-18 -131h72c6 0 10 -4 10 -10v-44c0 -6 -4 -10 -10 -10z" />
    <glyph glyph-name="yen" unicode="&#xa5;" 
d="M222 0h-57c-6 0 -10 4 -10 10v129c0 4 -2 6 -6 6h-88c-6 0 -10 4 -10 10v39c0 6 4 10 10 10h88c4 0 6 2 6 6v51c0 4 -2 6 -6 6h-88c-6 0 -10 4 -10 10v39c0 6 4 10 10 10h80v3l-110 341c-2 6 0 10 7 10h61c7 0 10 -3 12 -10l83 -283h2l81 283c2 7 5 10 12 10h60
c7 0 9 -4 7 -10l-111 -341v-3h80c6 0 10 -4 10 -10v-39c0 -6 -4 -10 -10 -10h-87c-4 0 -6 -2 -6 -6v-51c0 -4 2 -6 6 -6h87c6 0 10 -4 10 -10v-39c0 -6 -4 -10 -10 -10h-87c-4 0 -6 -2 -6 -6v-129c0 -6 -4 -10 -10 -10z" />
    <glyph glyph-name="ordfeminine" unicode="&#xaa;" horiz-adv-x="271" 
d="M216 392h-33c-6 0 -10 4 -10 10v19h-1c-7 -19 -30 -33 -57 -33c-44 0 -74 29 -74 84c0 67 38 96 94 96h32c4 0 6 2 6 6v13c0 37 -15 50 -45 50c-14 0 -33 -6 -51 -19c-6 -3 -11 -2 -14 3l-11 27c-3 5 -1 9 4 13c18 14 48 26 80 26c58 0 90 -26 90 -96v-189
c0 -6 -4 -10 -10 -10zM130 434c25 0 43 19 43 48v36c0 4 -2 6 -6 6h-26c-33 0 -48 -16 -48 -47c0 -27 14 -43 37 -43z" />
    <glyph glyph-name="ordmasculine" unicode="&#xba;" horiz-adv-x="281" 
d="M140 387c-44 0 -76 20 -89 60c-5 15 -7 28 -7 90s2 75 7 90c13 40 45 60 89 60c45 0 77 -20 90 -60c5 -15 7 -28 7 -90s-2 -75 -7 -90c-13 -40 -45 -60 -90 -60zM140 437c20 0 34 10 40 27c3 9 4 18 4 73s-1 64 -4 73c-6 17 -20 27 -40 27s-33 -10 -39 -27
c-3 -9 -4 -18 -4 -73s1 -64 4 -73c6 -17 19 -27 39 -27z" />
    <glyph glyph-name="onesuperior" unicode="&#xb9;" horiz-adv-x="270" 
d="M178 430h-42c-6 0 -10 4 -10 10v325h-1l-56 -35c-6 -4 -11 -1 -11 5v45c0 6 2 10 7 13l57 38c5 3 9 5 16 5h40c6 0 10 -4 10 -10v-386c0 -6 -4 -10 -10 -10z" />
    <glyph glyph-name="twosuperior" unicode="&#xb2;" horiz-adv-x="270" 
d="M225 430h-178c-6 0 -10 4 -10 10v36c0 6 1 10 4 16l113 178c12 18 18 36 18 61c0 20 -1 27 -3 34c-5 13 -16 22 -35 22c-20 0 -31 -9 -35 -22c-3 -7 -4 -14 -4 -41c0 -7 -4 -10 -11 -9l-39 4c-6 1 -9 4 -9 12c0 26 2 38 6 51c12 39 45 61 93 61s82 -22 94 -61
c4 -13 6 -25 6 -51c0 -36 -10 -64 -29 -93l-96 -151v-1h115c6 0 10 -4 10 -10v-36c0 -6 -4 -10 -10 -10z" />
    <glyph glyph-name="threesuperior" unicode="&#xb3;" horiz-adv-x="270" 
d="M134 423c-48 0 -81 22 -93 60c-4 13 -6 26 -6 42c0 7 3 11 10 12l38 4c7 1 11 -2 11 -10c0 -16 2 -23 4 -30c4 -13 16 -22 35 -22s31 9 35 22c2 7 4 14 4 44c0 31 -1 38 -3 45c-5 15 -18 22 -36 22h-8c-6 0 -10 4 -10 10v37c0 6 4 10 10 10h7c20 0 32 6 37 21
c2 7 3 14 3 39c0 22 -2 29 -4 36c-4 13 -16 22 -35 22s-31 -9 -35 -22c-2 -7 -4 -14 -4 -30c0 -8 -4 -11 -11 -10l-38 4c-7 1 -10 5 -10 12c0 16 2 29 6 42c12 38 45 60 93 60c49 0 82 -22 94 -60c4 -13 6 -26 6 -54c0 -30 -1 -40 -4 -49c-6 -19 -18 -31 -35 -38v-1
c18 -9 29 -21 34 -38c4 -11 5 -23 5 -58c0 -36 -2 -49 -6 -62c-12 -38 -45 -60 -94 -60z" />
    <glyph glyph-name="fraction" unicode="&#x2044;" horiz-adv-x="140" 
d="M-36 -9h-39c-6 0 -9 4 -7 10l245 678c3 7 7 10 13 10h39c6 0 9 -4 7 -10l-245 -678c-3 -7 -7 -10 -13 -10z" />
    <glyph glyph-name="uni2215" unicode="&#x2215;" horiz-adv-x="140" 
d="M-36 -9h-39c-6 0 -9 4 -7 10l245 678c3 7 7 10 13 10h39c6 0 9 -4 7 -10l-245 -678c-3 -7 -7 -10 -13 -10z" />
    <glyph glyph-name="onehalf" unicode="&#xbd;" horiz-adv-x="723" 
d="M200 274h-42c-6 0 -10 4 -10 10v325h-1l-56 -35c-6 -4 -11 -1 -11 5v45c0 6 2 10 7 13l57 38c5 3 9 5 16 5h40c6 0 10 -4 10 -10v-386c0 -6 -4 -10 -10 -10zM633 0h-178c-6 0 -10 4 -10 10v36c0 6 1 10 4 16l113 178c12 18 18 36 18 61c0 20 -1 27 -3 34
c-5 13 -16 22 -35 22c-20 0 -31 -9 -35 -22c-3 -7 -4 -14 -4 -41c0 -7 -4 -10 -11 -9l-39 4c-6 1 -9 4 -9 12c0 26 2 38 6 51c12 39 45 61 93 61s82 -22 94 -61c4 -13 6 -25 6 -51c0 -36 -10 -64 -29 -93l-96 -151v-1h115c6 0 10 -4 10 -10v-36c0 -6 -4 -10 -10 -10zM233 -9
h-39c-6 0 -9 4 -7 10l245 678c3 7 7 10 13 10h39c6 0 9 -4 7 -10l-245 -678c-3 -7 -7 -10 -13 -10z" />
    <glyph glyph-name="onethird" unicode="&#x2153;" horiz-adv-x="723" 
d="M200 274h-42c-6 0 -10 4 -10 10v325h-1l-56 -35c-6 -4 -11 -1 -11 5v45c0 6 2 10 7 13l57 38c5 3 9 5 16 5h40c6 0 10 -4 10 -10v-386c0 -6 -4 -10 -10 -10zM233 -9h-39c-6 0 -9 4 -7 10l245 678c3 7 7 10 13 10h39c6 0 9 -4 7 -10l-245 -678c-3 -7 -7 -10 -13 -10z
M542 -7c-48 0 -81 22 -93 60c-4 13 -6 26 -6 42c0 7 3 11 10 12l38 4c7 1 11 -2 11 -10c0 -16 2 -23 4 -30c4 -13 16 -22 35 -22s31 9 35 22c2 7 4 14 4 44c0 31 -1 38 -3 45c-5 15 -18 22 -36 22h-8c-6 0 -10 4 -10 10v37c0 6 4 10 10 10h7c20 0 32 6 37 21c2 7 3 14 3 39
c0 22 -2 29 -4 36c-4 13 -16 22 -35 22s-31 -9 -35 -22c-2 -7 -4 -14 -4 -30c0 -8 -4 -11 -11 -10l-38 4c-7 1 -10 5 -10 12c0 16 2 29 6 42c12 38 45 60 93 60c49 0 82 -22 94 -60c4 -13 6 -26 6 -54c0 -30 -1 -40 -4 -49c-6 -19 -18 -31 -35 -38v-1c18 -9 29 -21 34 -38
c4 -11 5 -23 5 -58c0 -36 -2 -49 -6 -62c-12 -38 -45 -60 -94 -60z" />
    <glyph glyph-name="onequarter" unicode="&#xbc;" horiz-adv-x="705" 
d="M200 274h-42c-6 0 -10 4 -10 10v325h-1l-56 -35c-6 -4 -11 -1 -11 5v45c0 6 2 10 7 13l57 38c5 3 9 5 16 5h40c6 0 10 -4 10 -10v-386c0 -6 -4 -10 -10 -10zM576 0h-39c-6 0 -10 4 -10 10v46c0 4 -2 6 -6 6h-119c-6 0 -10 4 -10 10v36c0 6 1 10 3 16l88 272
c2 6 6 10 12 10h44c6 0 9 -4 7 -10l-90 -276v-2h65c4 0 6 2 6 6v99c0 6 4 10 10 10h39c6 0 10 -4 10 -10v-99c0 -4 1 -6 5 -6h23c6 0 10 -4 10 -10v-36c0 -6 -4 -10 -10 -10h-22c-4 0 -6 -2 -6 -6v-46c0 -6 -4 -10 -10 -10zM233 -9h-39c-6 0 -9 4 -7 10l245 678
c3 7 7 10 13 10h39c6 0 9 -4 7 -10l-245 -678c-3 -7 -7 -10 -13 -10z" />
    <glyph glyph-name="oneeighth" unicode="&#x215b;" horiz-adv-x="726" 
d="M200 274h-42c-6 0 -10 4 -10 10v325h-1l-56 -35c-6 -4 -11 -1 -11 5v45c0 6 2 10 7 13l57 38c5 3 9 5 16 5h40c6 0 10 -4 10 -10v-386c0 -6 -4 -10 -10 -10zM545 -7c-48 0 -83 23 -96 61c-4 13 -5 25 -5 63c0 31 1 43 5 53c5 17 15 32 31 42v1c-16 11 -26 25 -31 42
c-4 11 -5 23 -5 44c0 28 1 40 5 53c13 38 48 61 96 61s83 -23 96 -61c4 -13 5 -25 5 -53c0 -21 -1 -33 -5 -44c-5 -17 -16 -31 -31 -42v-1c15 -10 26 -25 31 -42c4 -10 5 -22 5 -53c0 -38 -1 -50 -5 -63c-13 -38 -48 -61 -96 -61zM545 240c19 0 31 11 35 23c3 7 4 13 4 36
c0 22 -1 28 -4 35c-4 13 -16 23 -35 23s-31 -10 -36 -23c-2 -7 -3 -13 -3 -35c0 -23 1 -29 3 -36c5 -12 17 -23 36 -23zM545 49c19 0 31 10 35 23c3 7 4 14 4 45c0 30 -1 37 -4 44c-4 12 -16 23 -35 23s-31 -11 -36 -23c-2 -7 -3 -14 -3 -44c0 -31 1 -38 3 -45
c5 -13 17 -23 36 -23zM233 -9h-39c-6 0 -9 4 -7 10l245 678c3 7 7 10 13 10h39c6 0 9 -4 7 -10l-245 -678c-3 -7 -7 -10 -13 -10z" />
    <glyph glyph-name="twothirds" unicode="&#x2154;" horiz-adv-x="782" 
d="M269 274h-178c-6 0 -10 4 -10 10v36c0 6 1 10 4 16l113 178c12 18 18 36 18 61c0 20 -1 27 -3 34c-5 13 -16 22 -35 22c-20 0 -31 -9 -35 -22c-3 -7 -4 -14 -4 -41c0 -7 -4 -10 -11 -9l-39 4c-6 1 -9 4 -9 12c0 26 2 38 6 51c12 39 45 61 93 61s82 -22 94 -61
c4 -13 6 -25 6 -51c0 -36 -10 -64 -29 -93l-96 -151v-1h115c6 0 10 -4 10 -10v-36c0 -6 -4 -10 -10 -10zM291 -9h-39c-6 0 -9 4 -7 10l245 678c3 7 7 10 13 10h39c6 0 9 -4 7 -10l-245 -678c-3 -7 -7 -10 -13 -10zM601 -7c-48 0 -81 22 -93 60c-4 13 -6 26 -6 42
c0 7 3 11 10 12l38 4c7 1 11 -2 11 -10c0 -16 2 -23 4 -30c4 -13 16 -22 35 -22s31 9 35 22c2 7 4 14 4 44c0 31 -1 38 -3 45c-5 15 -18 22 -36 22h-8c-6 0 -10 4 -10 10v37c0 6 4 10 10 10h7c20 0 32 6 37 21c2 7 3 14 3 39c0 22 -2 29 -4 36c-4 13 -16 22 -35 22
s-31 -9 -35 -22c-2 -7 -4 -14 -4 -30c0 -8 -4 -11 -11 -10l-38 4c-7 1 -10 5 -10 12c0 16 2 29 6 42c12 38 45 60 93 60c49 0 82 -22 94 -60c4 -13 6 -26 6 -54c0 -30 -1 -40 -4 -49c-6 -19 -18 -31 -35 -38v-1c18 -9 29 -21 34 -38c4 -11 5 -23 5 -58c0 -36 -2 -49 -6 -62
c-12 -38 -45 -60 -94 -60z" />
    <glyph glyph-name="threequarters" unicode="&#xbe;" horiz-adv-x="750" 
d="M621 0h-39c-6 0 -10 4 -10 10v46c0 4 -2 6 -6 6h-119c-6 0 -10 4 -10 10v36c0 6 1 10 3 16l88 272c2 6 6 10 12 10h44c6 0 9 -4 7 -10l-90 -276v-2h65c4 0 6 2 6 6v99c0 6 4 10 10 10h39c6 0 10 -4 10 -10v-99c0 -4 1 -6 5 -6h23c6 0 10 -4 10 -10v-36
c0 -6 -4 -10 -10 -10h-22c-4 0 -6 -2 -6 -6v-46c0 -6 -4 -10 -10 -10zM278 -9h-39c-6 0 -9 4 -7 10l245 678c3 7 7 10 13 10h39c6 0 9 -4 7 -10l-245 -678c-3 -7 -7 -10 -13 -10zM179 267c-48 0 -81 22 -93 60c-4 13 -6 26 -6 42c0 7 3 11 10 12l38 4c7 1 11 -2 11 -10
c0 -16 2 -23 4 -30c4 -13 16 -22 35 -22s31 9 35 22c2 7 4 14 4 44c0 31 -1 38 -3 45c-5 15 -18 22 -36 22h-8c-6 0 -10 4 -10 10v37c0 6 4 10 10 10h7c20 0 32 6 37 21c2 7 3 14 3 39c0 22 -2 29 -4 36c-4 13 -16 22 -35 22s-31 -9 -35 -22c-2 -7 -4 -14 -4 -30
c0 -8 -4 -11 -11 -10l-38 4c-7 1 -10 5 -10 12c0 16 2 29 6 42c12 38 45 60 93 60c49 0 82 -22 94 -60c4 -13 6 -26 6 -54c0 -30 -1 -40 -4 -49c-6 -19 -18 -31 -35 -38v-1c18 -9 29 -21 34 -38c4 -11 5 -23 5 -58c0 -36 -2 -49 -6 -62c-12 -38 -45 -60 -94 -60z" />
    <glyph glyph-name="threeeighths" unicode="&#x215c;" horiz-adv-x="771" 
d="M590 -7c-48 0 -83 23 -96 61c-4 13 -5 25 -5 63c0 31 1 43 5 53c5 17 15 32 31 42v1c-16 11 -26 25 -31 42c-4 11 -5 23 -5 44c0 28 1 40 5 53c13 38 48 61 96 61s83 -23 96 -61c4 -13 5 -25 5 -53c0 -21 -1 -33 -5 -44c-5 -17 -16 -31 -31 -42v-1c15 -10 26 -25 31 -42
c4 -10 5 -22 5 -53c0 -38 -1 -50 -5 -63c-13 -38 -48 -61 -96 -61zM590 240c19 0 31 11 35 23c3 7 4 13 4 36c0 22 -1 28 -4 35c-4 13 -16 23 -35 23s-31 -10 -36 -23c-2 -7 -3 -13 -3 -35c0 -23 1 -29 3 -36c5 -12 17 -23 36 -23zM590 49c19 0 31 10 35 23c3 7 4 14 4 45
c0 30 -1 37 -4 44c-4 12 -16 23 -35 23s-31 -11 -36 -23c-2 -7 -3 -14 -3 -44c0 -31 1 -38 3 -45c5 -13 17 -23 36 -23zM278 -9h-39c-6 0 -9 4 -7 10l245 678c3 7 7 10 13 10h39c6 0 9 -4 7 -10l-245 -678c-3 -7 -7 -10 -13 -10zM179 267c-48 0 -81 22 -93 60
c-4 13 -6 26 -6 42c0 7 3 11 10 12l38 4c7 1 11 -2 11 -10c0 -16 2 -23 4 -30c4 -13 16 -22 35 -22s31 9 35 22c2 7 4 14 4 44c0 31 -1 38 -3 45c-5 15 -18 22 -36 22h-8c-6 0 -10 4 -10 10v37c0 6 4 10 10 10h7c20 0 32 6 37 21c2 7 3 14 3 39c0 22 -2 29 -4 36
c-4 13 -16 22 -35 22s-31 -9 -35 -22c-2 -7 -4 -14 -4 -30c0 -8 -4 -11 -11 -10l-38 4c-7 1 -10 5 -10 12c0 16 2 29 6 42c12 38 45 60 93 60c49 0 82 -22 94 -60c4 -13 6 -26 6 -54c0 -30 -1 -40 -4 -49c-6 -19 -18 -31 -35 -38v-1c18 -9 29 -21 34 -38c4 -11 5 -23 5 -58
c0 -36 -2 -49 -6 -62c-12 -38 -45 -60 -94 -60z" />
    <glyph glyph-name="fiveeighths" unicode="&#x215d;" horiz-adv-x="771" 
d="M590 -7c-48 0 -83 23 -96 61c-4 13 -5 25 -5 63c0 31 1 43 5 53c5 17 15 32 31 42v1c-16 11 -26 25 -31 42c-4 11 -5 23 -5 44c0 28 1 40 5 53c13 38 48 61 96 61s83 -23 96 -61c4 -13 5 -25 5 -53c0 -21 -1 -33 -5 -44c-5 -17 -16 -31 -31 -42v-1c15 -10 26 -25 31 -42
c4 -10 5 -22 5 -53c0 -38 -1 -50 -5 -63c-13 -38 -48 -61 -96 -61zM590 240c19 0 31 11 35 23c3 7 4 13 4 36c0 22 -1 28 -4 35c-4 13 -16 23 -35 23s-31 -10 -36 -23c-2 -7 -3 -13 -3 -35c0 -23 1 -29 3 -36c5 -12 17 -23 36 -23zM590 49c19 0 31 10 35 23c3 7 4 14 4 45
c0 30 -1 37 -4 44c-4 12 -16 23 -35 23s-31 -11 -36 -23c-2 -7 -3 -14 -3 -44c0 -31 1 -38 3 -45c5 -13 17 -23 36 -23zM278 -9h-39c-6 0 -9 4 -7 10l245 678c3 7 7 10 13 10h39c6 0 9 -4 7 -10l-245 -678c-3 -7 -7 -10 -13 -10zM179 267c-48 0 -82 22 -94 61
c-4 12 -5 24 -5 34c0 8 3 11 9 12l39 4c7 1 11 -2 11 -9c0 -11 1 -17 3 -23c5 -14 17 -23 36 -23s30 9 35 22c2 7 3 14 3 58c0 43 -1 51 -3 57c-5 13 -16 22 -35 22c-17 0 -27 -6 -33 -15c-6 -8 -10 -10 -16 -10h-36c-6 0 -10 4 -10 10v203c0 6 4 10 10 10h174
c6 0 10 -4 10 -10v-36c0 -6 -4 -10 -10 -10h-120c-4 0 -6 -2 -6 -6v-95h1c10 9 26 16 48 16c43 0 71 -17 84 -56c4 -13 5 -30 5 -80c0 -49 -2 -63 -6 -76c-12 -38 -46 -60 -94 -60z" />
    <glyph glyph-name="seveneighths" unicode="&#x215e;" horiz-adv-x="722" 
d="M540 -7c-48 0 -83 23 -96 61c-4 13 -5 25 -5 63c0 31 1 43 5 53c5 17 15 32 31 42v1c-16 11 -26 25 -31 42c-4 11 -5 23 -5 44c0 28 1 40 5 53c13 38 48 61 96 61s83 -23 96 -61c4 -13 5 -25 5 -53c0 -21 -1 -33 -5 -44c-5 -17 -16 -31 -31 -42v-1c15 -10 26 -25 31 -42
c4 -10 5 -22 5 -53c0 -38 -1 -50 -5 -63c-13 -38 -48 -61 -96 -61zM540 240c19 0 31 11 35 23c3 7 4 13 4 36c0 22 -1 28 -4 35c-4 13 -16 23 -35 23s-31 -10 -36 -23c-2 -7 -3 -13 -3 -35c0 -23 1 -29 3 -36c5 -12 17 -23 36 -23zM540 49c19 0 31 10 35 23c3 7 4 14 4 45
c0 30 -1 37 -4 44c-4 12 -16 23 -35 23s-31 -11 -36 -23c-2 -7 -3 -14 -3 -44c0 -31 1 -38 3 -45c5 -13 17 -23 36 -23zM160 274h-44c-6 0 -10 4 -8 10l111 337v3h-73c-4 0 -6 -2 -6 -6v-37c0 -6 -4 -10 -10 -10h-40c-6 0 -10 4 -10 10v89c0 6 4 10 10 10h183
c6 0 10 -4 10 -10v-36c0 -6 -1 -11 -3 -17l-108 -333c-2 -6 -5 -10 -12 -10zM228 -9h-39c-6 0 -9 4 -7 10l245 678c3 7 7 10 13 10h39c6 0 9 -4 7 -10l-245 -678c-3 -7 -7 -10 -13 -10z" />
    <glyph glyph-name="perthousand" unicode="&#x2030;" horiz-adv-x="895" 
d="M218 -9h-39c-6 0 -9 4 -7 10l245 678c3 7 7 10 13 10h39c6 0 9 -4 7 -10l-245 -678c-3 -7 -7 -10 -13 -10zM153 329c-45 0 -75 22 -86 58c-6 19 -7 32 -7 121c0 88 1 101 7 120c11 36 41 58 86 58c46 0 76 -22 87 -58c6 -19 7 -32 7 -120c0 -89 -1 -102 -7 -121
c-11 -36 -41 -58 -87 -58zM153 381c18 0 29 8 33 22c2 7 4 18 4 105c0 86 -2 97 -4 104c-4 14 -15 22 -33 22c-17 0 -28 -8 -32 -22c-3 -7 -4 -18 -4 -104c0 -87 1 -98 4 -105c4 -14 15 -22 32 -22zM741 -6c-45 0 -75 22 -87 58c-6 19 -7 32 -7 120c0 89 1 102 7 121
c12 36 42 58 87 58s75 -22 86 -58c7 -19 8 -32 8 -121c0 -88 -1 -101 -8 -120c-11 -36 -41 -58 -86 -58zM495 -6c-46 0 -76 22 -87 58c-6 19 -7 32 -7 120c0 89 1 102 7 121c11 36 41 58 87 58c45 0 75 -22 86 -58c6 -19 7 -32 7 -121c0 -88 -1 -101 -7 -120
c-11 -36 -41 -58 -86 -58zM741 46c17 0 28 8 32 22c3 7 4 18 4 104c0 87 -1 98 -4 105c-4 14 -15 22 -32 22s-28 -8 -33 -22c-2 -7 -4 -18 -4 -105c0 -86 2 -97 4 -104c5 -14 16 -22 33 -22zM495 46c17 0 28 8 32 22c3 7 4 18 4 104c0 87 -1 98 -4 105c-4 14 -15 22 -32 22
c-18 0 -29 -8 -33 -22c-2 -7 -4 -18 -4 -105c0 -86 2 -97 4 -104c4 -14 15 -22 33 -22z" />
    <glyph glyph-name="minus" unicode="&#x2212;" 
d="M338 241h-290c-6 0 -10 4 -10 10v50c0 6 4 10 10 10h290c6 0 10 -4 10 -10v-50c0 -6 -4 -10 -10 -10z" />
    <glyph glyph-name="plusminus" unicode="&#xb1;" 
d="M219 137h-52c-6 0 -10 4 -10 10v105c0 4 -2 6 -6 6h-103c-6 0 -10 4 -10 10v49c0 6 4 10 10 10h103c4 0 6 2 6 6v105c0 6 4 10 10 10h52c6 0 10 -4 10 -10v-105c0 -4 2 -6 6 -6h103c6 0 10 -4 10 -10v-49c0 -6 -4 -10 -10 -10h-103c-4 0 -6 -2 -6 -6v-105
c0 -6 -4 -10 -10 -10zM338 0h-290c-6 0 -10 4 -10 10v50c0 6 4 10 10 10h290c6 0 10 -4 10 -10v-50c0 -6 -4 -10 -10 -10z" />
    <glyph glyph-name="multiply" unicode="&#xd7;" 
d="M325 176l-32 -33c-4 -4 -10 -4 -14 0l-82 82c-3 2 -5 2 -8 0l-83 -82c-4 -4 -10 -4 -14 0l-32 33c-4 4 -4 10 0 14l82 82c3 3 3 5 0 8l-82 82c-4 4 -4 10 0 14l32 33c4 4 10 4 14 0l83 -82c3 -2 5 -2 8 0l82 82c4 4 10 4 14 0l32 -33c5 -4 5 -10 0 -14l-82 -82
c-2 -3 -2 -5 0 -8l82 -82c5 -4 5 -10 0 -14z" />
    <glyph glyph-name="divide" unicode="&#xf7;" 
d="M193 373c-30 0 -52 22 -52 52c0 31 22 53 52 53s52 -22 52 -53c0 -30 -22 -52 -52 -52zM338 241h-290c-6 0 -10 4 -10 10v50c0 6 4 10 10 10h290c6 0 10 -4 10 -10v-50c0 -6 -4 -10 -10 -10zM193 74c-30 0 -52 22 -52 53c0 30 22 52 52 52s52 -22 52 -52
c0 -31 -22 -53 -52 -53z" />
    <glyph glyph-name="notequal" unicode="&#x2260;" 
d="M338 329h-90l-50 -106h140c6 0 10 -4 10 -10v-49c0 -6 -4 -10 -10 -10h-173l-37 -78c-3 -7 -7 -10 -13 -10h-39c-7 0 -10 4 -7 10l37 78h-58c-6 0 -10 4 -10 10v49c0 6 4 10 10 10h91l50 106h-141c-6 0 -10 4 -10 10v49c0 6 4 10 10 10h174l36 76c3 8 7 10 13 10h39
c7 0 10 -4 7 -10l-36 -76h57c6 0 10 -4 10 -10v-49c0 -6 -4 -10 -10 -10z" />
    <glyph glyph-name="approxequal" unicode="&#x2248;" 
d="M254 304c-29 0 -50 13 -69 25c-16 11 -32 21 -48 21c-23 0 -34 -10 -53 -41c-3 -5 -8 -6 -14 -3l-33 18c-5 3 -7 8 -4 14c27 50 55 76 99 76c29 0 51 -11 69 -25c16 -12 31 -22 48 -22c22 0 34 10 53 42c3 5 8 6 14 3l32 -18c6 -3 8 -9 4 -15c-26 -49 -54 -75 -98 -75z
M254 139c-29 0 -50 13 -69 26c-16 11 -32 21 -48 21c-23 0 -34 -10 -53 -41c-3 -5 -8 -7 -14 -4l-33 19c-5 3 -7 8 -4 14c27 49 55 76 99 76c29 0 50 -13 69 -26c16 -10 31 -21 48 -21c22 0 34 10 53 41c3 5 8 7 14 4l32 -18c6 -3 8 -9 4 -15c-26 -49 -54 -76 -98 -76z" />
    <glyph glyph-name="lessequal" unicode="&#x2264;" 
d="M338 135l-290 118c-6 2 -10 7 -10 14v44c0 7 4 12 10 14l290 119c6 2 10 -1 10 -7v-54c0 -6 -3 -10 -10 -13l-202 -80v-2l202 -79c7 -3 10 -7 10 -13v-54c0 -6 -4 -9 -10 -7zM338 0h-290c-6 0 -10 4 -10 10v50c0 6 4 10 10 10h290c6 0 10 -4 10 -10v-50
c0 -6 -4 -10 -10 -10z" />
    <glyph glyph-name="greaterequal" unicode="&#x2265;" 
d="M48 135c-5 -2 -10 1 -10 7v54c0 6 3 10 10 13l203 79v2l-203 80c-7 3 -10 7 -10 13v54c0 6 5 9 10 7l290 -119c6 -2 10 -7 10 -14v-44c0 -7 -4 -12 -10 -14zM338 0h-290c-6 0 -10 4 -10 10v50c0 6 4 10 10 10h290c6 0 10 -4 10 -10v-50c0 -6 -4 -10 -10 -10z" />
    <glyph glyph-name="logicalnot" unicode="&#xac;" 
d="M338 148h-51c-6 0 -10 4 -10 10v77c0 4 -2 6 -6 6h-223c-6 0 -10 4 -10 10v50c0 6 4 10 10 10h290c6 0 10 -4 10 -10v-143c0 -6 -4 -10 -10 -10z" />
    <glyph glyph-name="Delta" unicode="&#x394;" horiz-adv-x="406" 
d="M379 0h-352c-6 0 -10 4 -9 10l145 660c2 6 5 10 11 10h60c6 0 10 -4 11 -10l143 -660c1 -6 -3 -10 -9 -10zM290 76c4 0 5 2 4 6l-89 443h-3l-91 -443c-1 -4 1 -6 5 -6h174z" />
    <glyph glyph-name="Delta" unicode="&#x2206;" horiz-adv-x="406" 
d="M379 0h-352c-6 0 -10 4 -9 10l145 660c2 6 5 10 11 10h60c6 0 10 -4 11 -10l143 -660c1 -6 -3 -10 -9 -10zM290 76c4 0 5 2 4 6l-89 443h-3l-91 -443c-1 -4 1 -6 5 -6h174z" />
    <glyph glyph-name="uni0394" horiz-adv-x="406" 
d="M379 0h-352c-6 0 -10 4 -9 10l145 660c2 6 5 10 11 10h60c6 0 10 -4 11 -10l143 -660c1 -6 -3 -10 -9 -10zM290 76c4 0 5 2 4 6l-89 443h-3l-91 -443c-1 -4 1 -6 5 -6h174z" />
    <glyph glyph-name="Omega" unicode="&#x3a9;" horiz-adv-x="421" 
d="M370 0h-121c-6 0 -10 4 -10 10v53c0 6 3 9 10 14c39 28 44 47 44 263c0 189 -2 203 -9 224c-10 31 -36 49 -73 49s-64 -18 -74 -49c-7 -21 -9 -35 -9 -224c0 -216 5 -235 45 -263c7 -5 9 -8 9 -14v-53c0 -6 -4 -10 -10 -10h-121c-6 0 -10 4 -10 10v56c0 6 4 10 10 10h40
v1c-34 32 -45 58 -45 263c0 193 3 217 13 247c21 65 75 102 152 102c76 0 130 -37 151 -102c10 -30 13 -54 13 -247c0 -205 -11 -231 -45 -263v-1h40c6 0 10 -4 10 -10v-56c0 -6 -4 -10 -10 -10z" />
    <glyph glyph-name="Omega" unicode="&#x2126;" horiz-adv-x="421" 
d="M370 0h-121c-6 0 -10 4 -10 10v53c0 6 3 9 10 14c39 28 44 47 44 263c0 189 -2 203 -9 224c-10 31 -36 49 -73 49s-64 -18 -74 -49c-7 -21 -9 -35 -9 -224c0 -216 5 -235 45 -263c7 -5 9 -8 9 -14v-53c0 -6 -4 -10 -10 -10h-121c-6 0 -10 4 -10 10v56c0 6 4 10 10 10h40
v1c-34 32 -45 58 -45 263c0 193 3 217 13 247c21 65 75 102 152 102c76 0 130 -37 151 -102c10 -30 13 -54 13 -247c0 -205 -11 -231 -45 -263v-1h40c6 0 10 -4 10 -10v-56c0 -6 -4 -10 -10 -10z" />
    <glyph glyph-name="uni03A9" horiz-adv-x="421" 
d="M370 0h-121c-6 0 -10 4 -10 10v53c0 6 3 9 10 14c39 28 44 47 44 263c0 189 -2 203 -9 224c-10 31 -36 49 -73 49s-64 -18 -74 -49c-7 -21 -9 -35 -9 -224c0 -216 5 -235 45 -263c7 -5 9 -8 9 -14v-53c0 -6 -4 -10 -10 -10h-121c-6 0 -10 4 -10 10v56c0 6 4 10 10 10h40
v1c-34 32 -45 58 -45 263c0 193 3 217 13 247c21 65 75 102 152 102c76 0 130 -37 151 -102c10 -30 13 -54 13 -247c0 -205 -11 -231 -45 -263v-1h40c6 0 10 -4 10 -10v-56c0 -6 -4 -10 -10 -10z" />
    <glyph glyph-name="mu" unicode="&#xb5;" horiz-adv-x="394" 
d="M326 0h-57c-6 0 -10 4 -10 10v38h-1c-12 -34 -39 -57 -80 -57c-17 0 -35 7 -43 19v-180c0 -6 -4 -10 -10 -10h-57c-6 0 -10 4 -10 10v639c0 6 4 10 10 10h57c6 0 10 -4 10 -10v-319c0 -58 19 -87 62 -87c39 0 62 28 62 87v319c0 6 4 10 10 10h57c6 0 10 -4 10 -10v-459
c0 -6 -4 -10 -10 -10z" />
    <glyph glyph-name="mu" unicode="&#x3bc;" horiz-adv-x="394" 
d="M326 0h-57c-6 0 -10 4 -10 10v38h-1c-12 -34 -39 -57 -80 -57c-17 0 -35 7 -43 19v-180c0 -6 -4 -10 -10 -10h-57c-6 0 -10 4 -10 10v639c0 6 4 10 10 10h57c6 0 10 -4 10 -10v-319c0 -58 19 -87 62 -87c39 0 62 28 62 87v319c0 6 4 10 10 10h57c6 0 10 -4 10 -10v-459
c0 -6 -4 -10 -10 -10z" />
    <glyph glyph-name="uni03BC" horiz-adv-x="394" 
d="M326 0h-57c-6 0 -10 4 -10 10v38h-1c-12 -34 -39 -57 -80 -57c-17 0 -35 7 -43 19v-180c0 -6 -4 -10 -10 -10h-57c-6 0 -10 4 -10 10v639c0 6 4 10 10 10h57c6 0 10 -4 10 -10v-319c0 -58 19 -87 62 -87c39 0 62 28 62 87v319c0 6 4 10 10 10h57c6 0 10 -4 10 -10v-459
c0 -6 -4 -10 -10 -10z" />
    <glyph glyph-name="pi" unicode="&#x3c0;" horiz-adv-x="406" 
d="M369 -6h-8c-69 0 -97 31 -97 107v300c0 4 -2 6 -6 6h-106c-4 0 -6 -2 -6 -6v-391c0 -6 -4 -10 -10 -10h-57c-6 0 -10 4 -10 10v391c0 4 -3 6 -7 6h-34c-6 0 -10 4 -10 10v52c0 6 4 10 10 10h352c6 0 10 -4 10 -10v-52c0 -6 -4 -10 -10 -10h-35c-4 0 -6 -2 -6 -6v-302
c0 -26 7 -33 26 -33h4c6 0 10 -4 10 -10v-52c0 -6 -4 -10 -10 -10z" />
    <glyph glyph-name="degree" unicode="&#xb0;" horiz-adv-x="331" 
d="M166 452c-67 0 -116 49 -116 115c0 67 49 116 116 116c66 0 115 -49 115 -116c0 -66 -49 -115 -115 -115zM166 500c39 0 65 29 65 67c0 39 -26 68 -65 68s-66 -29 -66 -68c0 -38 27 -67 66 -67z" />
    <glyph glyph-name="afii61289" unicode="&#x2113;" horiz-adv-x="385" 
d="M94 195c-4 -4 -9 -5 -14 0l-27 30c-4 4 -3 10 1 14l70 74v207c0 112 40 170 111 170c62 0 100 -44 100 -119c0 -81 -41 -164 -134 -265v-201c0 -33 10 -48 33 -48c12 0 22 5 34 15c6 5 11 4 14 -1l19 -28c4 -5 3 -11 -2 -16c-23 -23 -53 -37 -85 -37
c-56 0 -90 33 -90 120v116zM201 542v-143c53 70 69 119 69 173c0 39 -12 58 -32 58c-23 0 -37 -24 -37 -88z" />
    <glyph glyph-name="estimated" unicode="&#x212e;" horiz-adv-x="587" 
d="M292 -9c-141 0 -232 112 -232 250c0 139 91 247 232 247c140 0 233 -101 234 -247h-364v-164c35 -34 79 -52 130 -52c75 0 129 32 173 108l33 -20c-56 -85 -111 -122 -206 -122zM424 273v130c-38 36 -81 55 -132 55s-95 -19 -130 -55v-130h262z" />
    <glyph glyph-name="eng" unicode="&#x14b;" horiz-adv-x="393" 
d="M224 -180h-9c-6 0 -10 4 -10 10v52c0 6 4 10 10 10h8c27 2 39 14 39 50v387c0 57 -20 87 -63 87c-40 0 -64 -28 -64 -87v-319c0 -6 -4 -10 -10 -10h-57c-6 0 -10 4 -10 10v459c0 6 4 10 10 10h57c6 0 10 -4 10 -10v-38h1c15 32 44 57 91 57c74 0 112 -46 112 -147v-401
c0 -81 -36 -120 -115 -120z" />
    <glyph glyph-name="Eng" unicode="&#x14a;" horiz-adv-x="449" 
d="M254 -180h-8c-6 0 -10 4 -10 10v55c0 6 4 10 10 10l8 1c37 2 54 19 54 59v20l-170 545h-5v-510c0 -6 -4 -10 -10 -10h-53c-6 0 -10 4 -10 10v660c0 6 4 10 10 10h73c7 0 14 -3 17 -10l152 -498h4v498c0 6 4 10 10 10h53c6 0 10 -4 10 -10v-708c0 -99 -43 -142 -135 -142z
" />
    <glyph glyph-name="infinity" unicode="&#x221e;" horiz-adv-x="648" 
d="M486 97c-66 0 -109 34 -162 100c-58 -71 -101 -100 -161 -100c-86 0 -144 59 -144 150c0 92 60 150 144 150c62 0 105 -33 161 -101c60 73 101 101 161 101c86 0 145 -59 145 -150c0 -92 -60 -150 -144 -150zM483 156c52 0 85 37 85 92c0 53 -33 90 -86 90
c-36 0 -67 -22 -120 -91c50 -65 80 -91 121 -91zM165 156c36 0 68 22 121 91c-48 63 -82 91 -120 91c-51 0 -86 -35 -86 -90c0 -54 33 -92 85 -92z" />
    <glyph glyph-name="partialdiff" unicode="&#x2202;" horiz-adv-x="409" 
d="M182 -10c-89 0 -137 85 -137 204c0 130 59 227 156 227c37 0 69 -13 91 -43h2c-2 148 -39 244 -112 244c-25 0 -47 -10 -66 -24c-5 -4 -11 -3 -14 2l-25 38c-3 5 -2 10 3 14c30 22 64 38 108 38c117 0 176 -120 176 -321c0 -245 -61 -379 -182 -379zM189 59
c54 0 94 67 103 240c-21 34 -48 54 -81 54c-59 0 -95 -62 -95 -155c0 -82 21 -139 73 -139z" />
    <glyph glyph-name="integral" unicode="&#x222b;" horiz-adv-x="292" 
d="M54 -180c-5 0 -13 0 -18 1c-6 0 -10 4 -10 10v54c0 6 4 10 10 10h12c41 0 59 22 59 83v599c0 110 43 163 131 163c5 0 13 0 18 -1c6 0 10 -4 10 -10v-54c0 -6 -4 -10 -10 -10h-13c-40 0 -58 -22 -58 -83v-599c0 -110 -43 -163 -131 -163z" />
    <glyph glyph-name="radical" unicode="&#x221a;" horiz-adv-x="551" 
d="M306 -180h-47c-6 0 -9 4 -12 10l-113 275c-2 4 -5 5 -9 3l-59 -25c-6 -3 -11 -1 -13 4l-17 40c-3 7 -1 11 4 13l116 52c6 3 11 2 14 -4l105 -260h3l189 802c2 6 6 10 12 10h49c6 0 10 -4 8 -10l-218 -900c-2 -6 -6 -10 -12 -10z" />
    <glyph glyph-name="summation" unicode="&#x2211;" horiz-adv-x="458" 
d="M411 -180h-365c-6 0 -10 4 -10 10v54c0 4 1 7 2 9l176 427l-171 343c-2 4 -3 7 -3 11v56c0 6 4 10 10 10h351c6 0 10 -4 10 -10v-56c0 -6 -4 -10 -10 -10h-268l166 -331c2 -5 2 -9 0 -14l-177 -423h289c6 0 10 -4 10 -10v-56c0 -6 -4 -10 -10 -10z" />
    <glyph glyph-name="product" unicode="&#x220f;" horiz-adv-x="512" 
d="M443 -180h-61c-6 0 -10 4 -10 10v828c0 4 -2 6 -6 6h-221c-4 0 -6 -2 -6 -6v-828c0 -6 -4 -10 -10 -10h-61c-6 0 -10 4 -10 10v900c0 6 4 10 10 10h375c6 0 10 -4 10 -10v-900c0 -6 -4 -10 -10 -10z" />
    <glyph glyph-name="lozenge" unicode="&#x25ca;" horiz-adv-x="429" 
d="M240 -52h-51c-7 0 -10 3 -13 10l-150 364c-2 5 -2 9 0 14l150 364c3 7 6 10 13 10h51c6 0 10 -3 13 -10l150 -364c2 -5 2 -9 0 -14l-150 -364c-3 -7 -7 -10 -13 -10zM216 33h2l116 296l-119 295h-2l-118 -295z" />
    <glyph glyph-name="uniF8FF" unicode="&#xf8ff;" horiz-adv-x="376" 
d="M366 0h-356c-6 0 -10 4 -10 10v660c0 6 4 10 10 10h356c6 0 10 -4 10 -10v-660c0 -6 -4 -10 -10 -10zM321 46c4 0 6 2 6 6v576c0 4 -2 6 -6 6h-267c-4 0 -6 -2 -6 -6v-576c0 -4 2 -6 6 -6h267zM204 222h-33c-6 0 -10 4 -10 10v47c0 16 4 29 12 45l35 67
c13 25 19 38 19 67c0 15 -1 24 -4 32c-5 16 -18 24 -36 24s-31 -8 -36 -24c-3 -8 -4 -16 -4 -44c0 -6 -5 -10 -11 -9l-32 4c-6 1 -9 5 -9 11c0 31 3 44 6 53c11 35 43 58 87 58c43 0 75 -23 86 -58c3 -9 6 -23 6 -45c0 -35 -6 -52 -21 -80l-35 -67c-6 -13 -10 -23 -10 -37
v-44c0 -6 -4 -10 -10 -10zM207 114h-38c-6 0 -10 4 -10 10v49c0 6 4 10 10 10h38c6 0 10 -4 10 -10v-49c0 -6 -4 -10 -10 -10z" />
    <glyph glyph-name="exclam.sc" horiz-adv-x="206" 
d="M120 170h-34c-6 0 -10 4 -10 10l-15 329c0 6 4 10 10 10h64c6 0 10 -4 10 -10l-15 -329c0 -6 -4 -10 -10 -10zM136 0h-66c-6 0 -10 4 -10 10v84c0 6 4 10 10 10h66c6 0 10 -4 10 -10v-84c0 -6 -4 -10 -10 -10z" />
    <glyph glyph-name="dollar.sc" horiz-adv-x="362" 
d="M188 -56h-15c-6 0 -10 4 -10 10v38c-82 5 -120 52 -126 134c0 7 2 11 8 12l49 8c7 1 10 -2 11 -8c3 -50 20 -75 58 -80v178l-13 4c-76 23 -107 63 -107 145c0 88 43 137 120 142v27c0 6 4 10 10 10h15c6 0 10 -4 10 -10v-27c72 -7 108 -52 116 -127c0 -7 -2 -11 -8 -12
l-47 -7c-6 -1 -10 2 -11 8c-5 42 -19 65 -50 70v-159l10 -3c81 -25 110 -66 110 -155c0 -90 -34 -144 -120 -150v-38c0 -6 -4 -10 -10 -10zM114 387c0 -39 10 -61 49 -76v149c-34 -5 -49 -28 -49 -73zM248 141c0 42 -13 67 -50 83v-165c34 6 50 28 50 82z" />
    <glyph glyph-name="percent.sc" horiz-adv-x="623" 
d="M223 -9h-39c-6 0 -9 4 -7 10l211 516c3 7 7 10 13 10h38c6 0 9 -4 7 -10l-211 -516c-2 -7 -6 -10 -12 -10zM154 255c-41 0 -71 20 -81 52c-5 14 -7 27 -7 83c0 55 2 69 7 82c10 32 40 53 81 53c42 0 71 -21 82 -53c4 -13 7 -27 7 -82c0 -56 -3 -69 -7 -83
c-11 -32 -40 -52 -82 -52zM154 305c15 0 24 7 29 19c2 7 3 16 3 66c0 49 -1 58 -3 65c-5 12 -14 19 -29 19c-14 0 -24 -7 -28 -19c-2 -7 -3 -16 -3 -65c0 -50 1 -59 3 -66c4 -12 14 -19 28 -19zM469 -6c-41 0 -71 21 -81 53c-5 13 -7 27 -7 82s2 69 7 82c10 32 40 53 81 53
s71 -21 81 -53c5 -13 7 -27 7 -82s-2 -69 -7 -82c-10 -32 -40 -53 -81 -53zM469 44c14 0 24 7 28 20c3 7 4 15 4 65s-1 58 -4 65c-4 13 -14 20 -28 20s-24 -7 -28 -20c-3 -7 -4 -15 -4 -65s1 -58 4 -65c4 -13 14 -20 28 -20z" />
    <glyph glyph-name="ampersand.sc" horiz-adv-x="483" 
d="M419 -4h-21c-32 0 -43 6 -58 27l-23 31c-36 -42 -76 -63 -127 -63c-80 0 -125 48 -125 118c0 48 19 90 93 167l-12 17c-39 55 -53 84 -53 121c0 65 49 114 122 114c72 0 120 -49 120 -114c0 -38 -17 -69 -87 -142l72 -97l40 65c3 5 8 7 14 4l38 -25c5 -3 7 -9 4 -14
l-55 -87l26 -34c11 -16 18 -19 29 -19h3c6 0 10 -4 10 -10v-49c0 -6 -4 -10 -10 -10zM165 416c0 -21 8 -40 43 -89c46 47 56 65 56 89c0 28 -18 50 -49 50c-30 0 -50 -22 -50 -50zM197 60c26 0 51 14 80 50l-79 110c-47 -49 -61 -73 -61 -103c0 -35 22 -57 60 -57z" />
    <glyph glyph-name="zero.sc" horiz-adv-x="362" 
d="M181 -9c-62 0 -107 30 -124 84c-7 20 -9 41 -9 185c0 143 2 165 9 185c17 53 62 83 124 83s107 -30 124 -83c7 -20 9 -42 9 -185c0 -144 -2 -165 -9 -185c-17 -54 -62 -84 -124 -84zM181 64c25 0 43 12 51 35c3 10 5 22 5 161c0 138 -2 150 -5 161c-8 23 -26 35 -51 35
s-43 -12 -51 -35c-3 -11 -5 -23 -5 -161c0 -139 2 -151 5 -161c8 -23 26 -35 51 -35z" />
    <glyph glyph-name="one.sc" horiz-adv-x="362" 
d="M226 0h-58c-6 0 -10 4 -10 10v419h-1l-78 -46c-6 -3 -11 -1 -11 7v60c0 6 2 10 7 14l79 50c5 3 10 5 16 5h56c6 0 10 -4 10 -10v-499c0 -6 -4 -10 -10 -10z" />
    <glyph glyph-name="two.sc" horiz-adv-x="362" 
d="M303 0h-245c-5 0 -9 3 -9 9v51c0 6 0 8 3 12l155 219c22 31 28 48 28 93c0 21 -1 30 -4 38c-8 22 -25 34 -51 34s-44 -12 -52 -34c-3 -8 -4 -16 -4 -42c0 -7 -5 -10 -12 -9l-54 5c-6 1 -9 5 -9 12c0 28 1 41 6 57c17 53 63 83 125 83s107 -29 124 -83c6 -17 9 -32 9 -62
c0 -63 -15 -94 -45 -136l-126 -174v-1h161c6 0 10 -4 10 -10v-52c0 -6 -4 -10 -10 -10z" />
    <glyph glyph-name="three.sc" horiz-adv-x="362" 
d="M179 -9c-62 0 -108 30 -125 83c-5 16 -6 30 -6 49c0 7 3 11 9 12l54 5c7 1 12 -2 12 -9c0 -17 1 -25 4 -34c8 -22 26 -33 52 -33s43 11 51 33c3 9 4 17 4 53c0 32 -1 42 -3 49c-7 22 -25 33 -56 33h-13c-6 0 -10 4 -10 10v51c0 6 4 10 10 10h13c31 0 49 12 56 32
c2 7 3 14 3 42s-1 37 -4 45c-8 22 -25 34 -51 34s-44 -12 -52 -34c-3 -8 -4 -18 -4 -33c0 -7 -5 -11 -12 -10l-54 6c-6 1 -9 5 -9 12c0 18 1 32 6 48c17 53 63 83 125 83s107 -29 124 -83c6 -17 9 -29 9 -68c0 -29 -2 -42 -6 -54c-8 -24 -24 -40 -47 -52v-2
c23 -12 39 -28 47 -53c4 -12 6 -25 6 -66c0 -43 -3 -59 -9 -76c-17 -54 -62 -83 -124 -83z" />
    <glyph glyph-name="four.sc" horiz-adv-x="362" 
d="M274 0h-56c-6 0 -10 4 -10 10v60c0 4 -2 6 -6 6h-165c-6 0 -10 4 -10 10v52c0 4 1 8 2 11l127 362c2 6 5 8 12 8h58c7 0 10 -4 8 -11l-126 -358v-2h94c4 0 6 2 6 6v134c0 6 4 10 10 10h56c6 0 10 -4 10 -10v-134c0 -4 1 -6 5 -6h37c6 0 10 -4 10 -10v-52
c0 -6 -4 -10 -10 -10h-36c-4 0 -6 -2 -6 -6v-60c0 -6 -4 -10 -10 -10z" />
    <glyph glyph-name="five.sc" horiz-adv-x="362" 
d="M181 -9c-62 0 -108 29 -125 83c-4 11 -6 22 -6 39c0 7 3 11 10 12l53 5c8 1 12 -3 13 -9c0 -12 2 -18 4 -24c8 -23 26 -33 51 -33c26 0 43 11 51 33c2 8 4 17 4 68c0 50 -2 60 -5 68c-8 22 -25 33 -50 33c-23 0 -39 -8 -49 -22c-4 -6 -8 -8 -16 -8h-47c-6 0 -10 4 -10 10
v263c0 6 4 10 10 10h235c6 0 10 -4 10 -10v-52c0 -6 -4 -10 -10 -10h-169c-4 0 -6 -2 -6 -6v-124h1c15 13 39 21 70 21c55 0 91 -28 106 -74c5 -16 8 -34 8 -99c0 -58 -3 -75 -9 -92c-17 -54 -62 -82 -124 -82z" />
    <glyph glyph-name="six.sc" horiz-adv-x="362" 
d="M181 -9c-62 0 -107 29 -125 83c-5 17 -8 33 -8 76c0 69 7 101 29 148l99 212c3 6 7 9 15 9h58c7 0 9 -4 6 -10l-98 -206l2 -1c6 3 21 7 39 7c54 0 92 -28 108 -76c5 -17 8 -36 8 -83c0 -43 -3 -59 -8 -76c-18 -54 -63 -83 -125 -83zM181 64c26 0 43 11 51 33
c3 9 5 17 5 53c0 35 -2 44 -5 53c-8 22 -25 33 -51 33s-43 -11 -51 -33c-3 -9 -5 -18 -5 -53c0 -36 2 -44 5 -53c8 -22 25 -33 51 -33z" />
    <glyph glyph-name="seven.sc" horiz-adv-x="362" 
d="M150 0h-56c-6 0 -10 4 -7 12l159 434v1h-115c-4 0 -6 -2 -6 -6v-46c0 -6 -4 -10 -10 -10h-52c-6 0 -10 4 -10 10v114c0 6 4 10 10 10h250c6 0 10 -4 10 -10v-54c0 -4 -1 -8 -3 -12l-156 -433c-2 -7 -6 -10 -14 -10z" />
    <glyph glyph-name="eight.sc" horiz-adv-x="362" 
d="M181 -9c-62 0 -107 29 -125 83c-5 17 -8 33 -8 76c0 39 3 53 7 67c8 23 21 43 42 54v2c-21 11 -34 30 -42 54c-4 14 -7 28 -7 55c0 30 3 46 8 63c18 54 63 83 125 83s107 -29 125 -83c5 -17 8 -33 8 -63c0 -27 -3 -41 -7 -55c-8 -24 -21 -43 -42 -54v-2
c21 -11 34 -31 42 -54c4 -14 7 -28 7 -67c0 -44 -3 -59 -8 -76c-18 -54 -63 -83 -125 -83zM181 308c26 0 43 11 51 34c3 8 5 17 5 40s-2 32 -5 40c-8 22 -25 34 -51 34s-43 -12 -51 -34c-3 -8 -5 -17 -5 -40s2 -32 5 -40c8 -23 25 -34 51 -34zM181 64c26 0 43 11 51 33
c3 9 5 17 5 53c0 35 -2 44 -5 52c-8 23 -25 34 -51 34s-43 -11 -51 -34c-3 -8 -5 -17 -5 -52c0 -36 2 -44 5 -53c8 -22 25 -33 51 -33z" />
    <glyph glyph-name="nine.sc" horiz-adv-x="362" 
d="M171 0h-58c-7 0 -9 5 -6 11l98 205l-2 1c-6 -3 -21 -6 -39 -6c-54 0 -92 27 -108 75c-5 18 -8 36 -8 83c0 43 3 59 8 76c18 54 63 83 125 83s107 -29 125 -83c5 -17 8 -33 8 -76c0 -69 -7 -100 -29 -148l-99 -212c-3 -6 -7 -9 -15 -9zM181 283c26 0 43 11 51 34
c3 8 5 17 5 52c0 36 -2 45 -5 53c-8 22 -25 34 -51 34s-43 -12 -51 -34c-3 -8 -5 -17 -5 -53c0 -35 2 -44 5 -52c8 -23 25 -34 51 -34z" />
    <glyph glyph-name="question.sc" horiz-adv-x="313" 
d="M184 156h-59c-6 0 -10 4 -10 10v34c0 24 3 37 16 55l47 65c21 30 28 45 28 74c0 14 -2 23 -4 30c-7 19 -24 32 -50 32c-25 0 -42 -13 -49 -32c-3 -8 -4 -16 -5 -41c0 -6 -4 -10 -10 -9l-56 7c-6 1 -9 4 -9 10c0 31 3 46 8 61c17 49 62 76 122 76c61 0 105 -28 122 -78
c6 -16 8 -33 8 -52c0 -40 -10 -67 -30 -94l-46 -64c-10 -14 -13 -26 -13 -45v-29c0 -6 -4 -10 -10 -10zM187 0h-65c-6 0 -10 4 -10 10v84c0 6 4 10 10 10h65c6 0 10 -4 10 -10v-84c0 -6 -4 -10 -10 -10z" />
    <glyph glyph-name="a.sc" horiz-adv-x="370" 
d="M347 0h-57c-6 0 -9 4 -11 10l-24 99h-140l-24 -99c-2 -6 -5 -10 -11 -10h-57c-6 0 -10 4 -8 10l130 499c2 7 6 10 12 10h57c6 0 10 -3 12 -10l129 -499c2 -6 -2 -10 -8 -10zM184 392l-52 -212h106l-51 212h-3z" />
    <glyph glyph-name="b.sc" horiz-adv-x="382" 
d="M180 0h-111c-6 0 -10 4 -10 10v499c0 6 4 10 10 10h120c110 0 153 -39 153 -132c0 -67 -23 -100 -69 -116v-1c48 -11 76 -48 76 -121c0 -109 -53 -149 -169 -149zM183 301c57 0 80 19 80 73c0 55 -19 74 -80 74h-41c-4 0 -6 -2 -6 -6v-135c0 -4 2 -6 6 -6h41zM182 71
c66 0 89 19 89 80c0 60 -24 80 -86 80h-43c-4 0 -6 -2 -6 -6v-148c0 -4 2 -6 6 -6h40z" />
    <glyph glyph-name="c.sc" horiz-adv-x="369" 
d="M192 -9c-68 0 -115 35 -134 94c-7 24 -11 45 -11 175c0 129 4 150 11 174c19 59 66 94 134 94c77 0 131 -44 142 -126c1 -6 -2 -10 -8 -12l-53 -9c-6 -1 -11 3 -12 9c-8 43 -30 66 -68 66c-31 0 -52 -15 -61 -45c-5 -15 -8 -31 -8 -151c0 -121 3 -137 8 -152
c9 -30 30 -44 61 -44c38 0 60 22 68 66c1 6 6 9 12 8l53 -9c6 -2 9 -6 8 -12c-11 -82 -65 -126 -142 -126z" />
    <glyph glyph-name="d.sc" horiz-adv-x="404" 
d="M201 0h-132c-6 0 -10 4 -10 10v499c0 6 4 10 10 10h132c80 0 123 -29 143 -91c10 -29 14 -65 14 -168c0 -104 -4 -140 -14 -168c-21 -62 -63 -92 -143 -92zM193 72c42 0 67 16 78 51c7 20 9 44 9 137c0 92 -2 117 -9 137c-11 35 -36 50 -78 50h-51c-4 0 -6 -2 -6 -6v-363
c0 -4 2 -6 6 -6h51z" />
    <glyph glyph-name="e.sc" horiz-adv-x="344" 
d="M305 0h-236c-6 0 -10 4 -10 10v499c0 6 4 10 10 10h236c6 0 10 -4 10 -10v-52c0 -6 -4 -10 -10 -10h-163c-4 0 -6 -2 -6 -6v-137c0 -4 2 -6 6 -6h141c6 0 10 -4 10 -10v-52c0 -6 -4 -10 -10 -10h-141c-4 0 -6 -2 -6 -6v-142c0 -4 2 -6 6 -6h163c6 0 10 -4 10 -10v-52
c0 -6 -4 -10 -10 -10z" />
    <glyph glyph-name="f.sc" horiz-adv-x="342" 
d="M126 0h-57c-6 0 -10 4 -10 10v499c0 6 4 10 10 10h236c6 0 10 -4 10 -10v-52c0 -6 -4 -10 -10 -10h-163c-4 0 -6 -2 -6 -6v-138c0 -4 2 -6 6 -6h141c6 0 10 -4 10 -10v-52c0 -6 -4 -10 -10 -10h-141c-4 0 -6 -2 -6 -6v-209c0 -6 -4 -10 -10 -10z" />
    <glyph glyph-name="g.sc" horiz-adv-x="392" 
d="M196 -9c-69 0 -120 35 -138 94c-8 24 -11 45 -11 175c0 129 3 151 11 175c18 58 69 93 138 93c81 0 136 -45 146 -125c1 -5 -2 -10 -7 -11l-53 -9c-6 -2 -11 2 -12 8c-8 43 -31 65 -73 65c-33 0 -56 -14 -66 -45c-4 -14 -7 -31 -7 -151c0 -121 3 -137 7 -152
c10 -30 34 -44 67 -44s57 14 67 44c5 15 7 31 7 106c0 4 -2 6 -6 6h-62c-6 0 -10 4 -10 10v49c0 6 4 10 10 10h131c6 0 10 -4 10 -10v-23c0 -126 -3 -147 -11 -171c-18 -59 -69 -94 -138 -94z" />
    <glyph glyph-name="h.sc" horiz-adv-x="413" 
d="M344 0h-57c-6 0 -10 4 -10 10v213c0 4 -2 6 -6 6h-129c-4 0 -6 -2 -6 -6v-213c0 -6 -4 -10 -10 -10h-57c-6 0 -10 4 -10 10v499c0 6 4 10 10 10h57c6 0 10 -4 10 -10v-202c0 -4 2 -6 6 -6h129c4 0 6 2 6 6v202c0 6 4 10 10 10h57c6 0 10 -4 10 -10v-499
c0 -6 -4 -10 -10 -10z" />
    <glyph glyph-name="i.sc" horiz-adv-x="195" 
d="M126 0h-57c-6 0 -10 4 -10 10v499c0 6 4 10 10 10h57c6 0 10 -4 10 -10v-499c0 -6 -4 -10 -10 -10z" />
    <glyph glyph-name="j.sc" horiz-adv-x="319" 
d="M121 -9c-42 0 -77 16 -96 36c-4 5 -3 10 1 14l39 37c5 5 10 4 15 0c11 -7 25 -14 44 -14c37 0 61 20 61 69v376c0 6 4 10 10 10h57c6 0 10 -4 10 -10v-373c0 -98 -54 -145 -141 -145z" />
    <glyph glyph-name="k.sc" horiz-adv-x="396" 
d="M370 0h-63c-6 0 -9 2 -11 7l-108 232l-52 -85v-144c0 -6 -4 -10 -10 -10h-57c-6 0 -10 4 -10 10v499c0 6 4 10 10 10h57c6 0 10 -4 10 -10v-235l140 238c3 5 6 7 13 7h61c5 0 8 -4 5 -9l-122 -198l142 -302c3 -5 0 -10 -5 -10z" />
    <glyph glyph-name="l.sc" horiz-adv-x="331" 
d="M301 0h-232c-6 0 -10 4 -10 10v499c0 6 4 10 10 10h57c6 0 10 -4 10 -10v-431c0 -4 2 -6 6 -6h159c6 0 10 -4 10 -10v-52c0 -6 -4 -10 -10 -10z" />
    <glyph glyph-name="m.sc" horiz-adv-x="508" 
d="M439 0h-51c-6 0 -10 4 -10 10v347h-4l-92 -255c-2 -6 -5 -10 -12 -10h-32c-7 0 -10 4 -12 10l-92 255h-4v-347c0 -6 -4 -10 -10 -10h-51c-6 0 -10 4 -10 10v499c0 6 4 10 10 10h58c8 0 13 -3 15 -10l111 -307h4l109 307c3 7 8 10 16 10h57c6 0 10 -4 10 -10v-499
c0 -6 -4 -10 -10 -10z" />
    <glyph glyph-name="n.sc" horiz-adv-x="424" 
d="M355 0h-66c-8 0 -13 3 -16 10l-141 377h-3v-377c0 -6 -4 -10 -10 -10h-50c-6 0 -10 4 -10 10v499c0 6 4 10 10 10h69c9 0 14 -3 16 -10l137 -374h4v374c0 6 4 10 10 10h50c6 0 10 -4 10 -10v-499c0 -6 -4 -10 -10 -10z" />
    <glyph glyph-name="o.sc" horiz-adv-x="392" 
d="M196 -9c-69 0 -120 35 -138 94c-8 24 -11 45 -11 175c0 129 3 151 11 175c18 58 69 93 138 93s120 -35 138 -93c8 -24 11 -46 11 -175c0 -130 -3 -151 -11 -175c-18 -59 -69 -94 -138 -94zM196 64c33 0 55 14 65 44c5 15 7 31 7 152c0 120 -2 137 -7 151
c-10 31 -32 45 -65 45c-32 0 -55 -14 -65 -45c-4 -14 -7 -31 -7 -151c0 -121 3 -137 7 -152c10 -30 33 -44 65 -44z" />
    <glyph glyph-name="p.sc" horiz-adv-x="379" 
d="M126 0h-57c-6 0 -10 4 -10 10v499c0 6 4 10 10 10h122c100 0 158 -49 158 -157s-58 -158 -158 -158h-49c-4 0 -6 -2 -6 -6v-188c0 -6 -4 -10 -10 -10zM184 275c62 0 88 22 88 87c0 64 -26 86 -88 86h-42c-4 0 -6 -2 -6 -6v-161c0 -4 2 -6 6 -6h42z" />
    <glyph glyph-name="q.sc" horiz-adv-x="392" 
d="M360 9l-28 -28c-4 -4 -10 -4 -14 1l-33 39c-24 -19 -54 -30 -89 -30c-69 0 -120 35 -138 93c-8 23 -11 45 -11 176c0 130 3 152 11 176c18 58 69 93 138 93s120 -35 138 -93c8 -24 11 -46 11 -176c0 -70 1 -160 -24 -198l39 -39c4 -5 4 -10 0 -14zM196 60
c21 0 33 3 44 10l-42 44c-4 4 -5 10 0 14l24 24c5 4 10 4 14 -1l28 -32h2c2 17 3 57 3 141c0 122 -2 139 -7 153c-9 29 -33 44 -66 44c-32 0 -57 -15 -66 -44c-5 -14 -7 -31 -7 -153c0 -123 2 -140 7 -153c9 -30 34 -47 66 -47z" />
    <glyph glyph-name="r.sc" horiz-adv-x="395" 
d="M352 0h-60c-6 0 -11 3 -13 9l-73 203h-16h-48c-4 0 -6 -2 -6 -6v-196c0 -6 -4 -10 -10 -10h-57c-6 0 -10 4 -10 10v499c0 6 4 10 10 10h121c101 0 158 -51 158 -153c0 -68 -26 -113 -72 -136l83 -220c2 -6 -1 -10 -7 -10zM183 283c63 0 88 24 88 83c0 58 -25 82 -88 82
h-41c-4 0 -6 -2 -6 -6v-153c0 -4 2 -6 6 -6h41z" />
    <glyph glyph-name="s.sc" horiz-adv-x="363" 
d="M186 -9c-96 0 -143 49 -150 136c0 6 2 10 8 11l55 9c6 1 10 -2 11 -8c6 -53 29 -78 74 -78c46 0 69 22 69 82c0 46 -16 68 -66 85l-37 12c-79 25 -106 62 -106 145c0 90 53 143 138 143c90 0 135 -48 143 -127c1 -7 -1 -11 -7 -12l-53 -8c-6 -1 -11 3 -11 9
c-5 44 -27 68 -69 68c-43 0 -65 -24 -65 -72c0 -40 13 -62 62 -78l37 -12c82 -25 110 -64 110 -152c0 -98 -48 -153 -143 -153z" />
    <glyph glyph-name="t.sc" horiz-adv-x="345" 
d="M201 0h-57c-6 0 -10 4 -10 10v431c0 4 -2 6 -6 6h-101c-6 0 -10 4 -10 10v52c0 6 4 10 10 10h291c6 0 10 -4 10 -10v-52c0 -6 -4 -10 -10 -10h-101c-4 0 -6 -2 -6 -6v-431c0 -6 -4 -10 -10 -10z" />
    <glyph glyph-name="u.sc" horiz-adv-x="409" 
d="M205 -9c-90 0 -147 54 -147 153v365c0 6 4 10 10 10h57c6 0 10 -4 10 -10v-364c0 -54 26 -81 70 -81c43 0 69 27 69 81v364c0 6 4 10 10 10h57c6 0 10 -4 10 -10v-365c0 -99 -57 -153 -146 -153z" />
    <glyph glyph-name="v.sc" horiz-adv-x="359" 
d="M206 0h-52c-6 0 -9 4 -10 10l-123 499c-1 6 1 10 9 10h57c6 0 10 -3 11 -10l82 -369h3l80 369c1 7 5 10 11 10h56c7 0 9 -4 8 -10l-122 -499c-1 -6 -4 -10 -10 -10z" />
    <glyph glyph-name="w.sc" horiz-adv-x="527" 
d="M397 0h-49c-6 0 -9 4 -10 10l-72 355h-2l-74 -355c-1 -6 -4 -10 -10 -10h-50c-6 0 -9 4 -10 10l-97 499c-1 6 1 10 8 10h56c6 0 10 -3 11 -10l60 -359h1l73 359c1 7 5 10 11 10h42c6 0 10 -3 11 -10l73 -359h2l59 359c1 7 5 10 11 10h56c7 0 9 -4 8 -10l-98 -499
c-1 -6 -4 -10 -10 -10z" />
    <glyph glyph-name="x.sc" horiz-adv-x="370" 
d="M340 0h-60c-7 0 -10 3 -13 10l-81 176h-2l-80 -176c-3 -7 -7 -10 -14 -10h-60c-6 0 -9 5 -6 11l120 260l-109 238c-3 6 0 10 7 10h59c6 0 10 -2 13 -9l71 -158h2l71 158c3 7 6 9 13 9h57c7 0 10 -4 7 -10l-109 -238l120 -260c3 -6 0 -11 -6 -11z" />
    <glyph glyph-name="y.sc" horiz-adv-x="343" 
d="M200 0h-57c-6 0 -10 4 -10 10v205l-119 294c-2 6 0 10 7 10h60c6 0 9 -3 11 -10l79 -208h3l77 208c2 7 5 10 12 10h58c7 0 9 -4 7 -10l-118 -294v-205c0 -6 -4 -10 -10 -10z" />
    <glyph glyph-name="z.sc" horiz-adv-x="337" 
d="M295 0h-252c-6 0 -10 4 -10 10v52c0 5 1 9 3 13l186 370v2h-170c-6 0 -10 4 -10 10v52c0 6 4 10 10 10h241c6 0 10 -4 10 -10v-51c0 -6 -1 -9 -3 -14l-185 -370v-2h180c6 0 10 -4 10 -10v-52c0 -6 -4 -10 -10 -10z" />
    <glyph glyph-name="agrave.sc" horiz-adv-x="370" 
d="M204 597h-40c-8 0 -11 2 -17 10l-87 123c-3 5 -1 10 5 10h59c8 0 12 -3 16 -10l69 -123c3 -6 1 -10 -5 -10zM347 0h-57c-6 0 -9 4 -11 10l-24 99h-140l-24 -99c-2 -6 -5 -10 -11 -10h-57c-6 0 -10 4 -8 10l130 499c2 7 6 10 12 10h57c6 0 10 -3 12 -10l129 -499
c2 -6 -2 -10 -8 -10zM184 392l-52 -212h106l-51 212h-3z" />
    <glyph glyph-name="aacute.sc" horiz-adv-x="370" 
d="M347 0h-57c-6 0 -9 4 -11 10l-24 99h-140l-24 -99c-2 -6 -5 -10 -11 -10h-57c-6 0 -10 4 -8 10l130 499c2 7 6 10 12 10h57c6 0 10 -3 12 -10l129 -499c2 -6 -2 -10 -8 -10zM184 392l-52 -212h106l-51 212h-3zM204 597h-40c-6 0 -8 4 -5 10l69 123c4 7 8 10 16 10h59
c6 0 8 -5 5 -10l-87 -123c-6 -8 -9 -10 -17 -10z" />
    <glyph glyph-name="acircumflex.sc" horiz-adv-x="370" 
d="M347 0h-57c-6 0 -9 4 -11 10l-24 99h-140l-24 -99c-2 -6 -5 -10 -11 -10h-57c-6 0 -10 4 -8 10l130 499c2 7 6 10 12 10h57c6 0 10 -3 12 -10l129 -499c2 -6 -2 -10 -8 -10zM184 392l-52 -212h106l-51 212h-3zM298 597h-42c-7 0 -12 3 -17 10l-52 71h-2l-52 -71
c-5 -7 -10 -10 -17 -10h-42c-6 0 -9 4 -5 10l82 123c4 7 9 10 17 10h36c8 0 13 -3 17 -10l82 -123c4 -6 1 -10 -5 -10z" />
    <glyph glyph-name="atilde.sc" horiz-adv-x="370" 
d="M227 621c-20 0 -34 8 -49 19c-14 10 -23 16 -35 16c-19 0 -30 -11 -44 -27c-5 -6 -12 -4 -12 3v47c0 6 2 10 9 18c12 13 27 23 48 23c20 0 33 -8 48 -19s23 -16 36 -16c19 0 30 11 44 27c4 6 11 4 11 -3v-47c0 -6 -1 -10 -8 -18c-12 -13 -27 -23 -48 -23zM347 0h-57
c-6 0 -9 4 -11 10l-24 99h-140l-24 -99c-2 -6 -5 -10 -11 -10h-57c-6 0 -10 4 -8 10l130 499c2 7 6 10 12 10h57c6 0 10 -3 12 -10l129 -499c2 -6 -2 -10 -8 -10zM184 392l-52 -212h106l-51 212h-3z" />
    <glyph glyph-name="adieresis.sc" horiz-adv-x="370" 
d="M347 0h-57c-6 0 -9 4 -11 10l-24 99h-140l-24 -99c-2 -6 -5 -10 -11 -10h-57c-6 0 -10 4 -8 10l130 499c2 7 6 10 12 10h57c6 0 10 -3 12 -10l129 -499c2 -6 -2 -10 -8 -10zM184 392l-52 -212h106l-51 212h-3zM284 628h-51c-6 0 -10 4 -10 10v72c0 6 4 10 10 10h51
c6 0 10 -4 10 -10v-72c0 -6 -4 -10 -10 -10zM139 628h-51c-6 0 -10 4 -10 10v72c0 6 4 10 10 10h51c6 0 10 -4 10 -10v-72c0 -6 -4 -10 -10 -10z" />
    <glyph glyph-name="amacron.sc" horiz-adv-x="370" 
d="M347 0h-57c-6 0 -9 4 -11 10l-24 99h-140l-24 -99c-2 -6 -5 -10 -11 -10h-57c-6 0 -10 4 -8 10l130 499c2 7 6 10 12 10h57c6 0 10 -3 12 -10l129 -499c2 -6 -2 -10 -8 -10zM184 392l-52 -212h106l-51 212h-3zM283 643h-194c-6 0 -10 4 -10 10v43c0 6 4 10 10 10h194
c6 0 10 -4 10 -10v-43c0 -6 -4 -10 -10 -10z" />
    <glyph glyph-name="abreve.sc" horiz-adv-x="370" 
d="M186 603c-71 0 -108 48 -114 111c-1 6 3 10 9 10h32c7 0 9 -4 11 -10c9 -33 30 -53 62 -53s53 20 62 53c2 6 4 10 10 10h33c6 0 10 -4 9 -10c-6 -63 -43 -111 -114 -111zM347 0h-57c-6 0 -9 4 -11 10l-24 99h-140l-24 -99c-2 -6 -5 -10 -11 -10h-57c-6 0 -10 4 -8 10
l130 499c2 7 6 10 12 10h57c6 0 10 -3 12 -10l129 -499c2 -6 -2 -10 -8 -10zM184 392l-52 -212h106l-51 212h-3z" />
    <glyph glyph-name="aring.sc" horiz-adv-x="370" 
d="M186 586c-50 0 -86 37 -86 86c0 50 36 87 86 87c49 0 86 -37 86 -87c0 -49 -37 -86 -86 -86zM186 623c28 0 47 21 47 49c0 29 -19 50 -47 50s-48 -21 -48 -50c0 -28 20 -49 48 -49zM347 0h-57c-6 0 -9 4 -11 10l-24 99h-140l-24 -99c-2 -6 -5 -10 -11 -10h-57
c-6 0 -10 4 -8 10l130 499c2 7 6 10 12 10h57c6 0 10 -3 12 -10l129 -499c2 -6 -2 -10 -8 -10zM184 392l-52 -212h106l-51 212h-3z" />
    <glyph glyph-name="aringacute.sc" horiz-adv-x="370" 
d="M200 701h-39c-6 0 -9 5 -5 10l76 106c5 7 8 10 16 10h59c6 0 8 -5 4 -10l-93 -106c-7 -7 -11 -10 -18 -10zM347 0h-57c-6 0 -9 4 -11 10l-24 99h-140l-24 -99c-2 -6 -5 -10 -11 -10h-57c-6 0 -10 4 -8 10l126 483c-26 15 -42 42 -42 76c0 49 37 86 86 86
c50 0 86 -37 86 -86c0 -33 -16 -61 -41 -76l125 -483c2 -6 -2 -10 -8 -10zM185 519c28 0 48 21 48 50c0 28 -20 49 -48 49s-47 -21 -47 -49c0 -29 19 -50 47 -50zM184 392l-52 -212h106l-51 212h-3z" />
    <glyph glyph-name="aogonek.sc" horiz-adv-x="370" 
d="M295 -181c-45 0 -76 26 -76 73c0 40 23 71 63 110l-3 8l-24 99h-140l-24 -99c-1 -6 -4 -10 -10 -10h-58c-6 0 -10 4 -8 10l130 499c2 7 6 10 12 10h57c6 0 10 -3 12 -10l129 -499c1 -5 0 -8 -4 -10c-44 -38 -67 -70 -67 -96c0 -17 9 -26 21 -26c9 0 15 2 21 6
c5 3 10 2 12 -3l15 -34c2 -5 0 -10 -5 -13c-12 -8 -32 -15 -53 -15zM238 180l-51 212h-3l-52 -212h106z" />
    <glyph glyph-name="ae.sc" horiz-adv-x="559" 
d="M520 0h-236c-6 0 -10 4 -10 10v93c0 4 -2 6 -6 6h-133l-40 -99c-3 -6 -7 -10 -13 -10h-60c-6 0 -9 4 -7 10l205 499c3 7 7 10 13 10h287c6 0 10 -4 10 -10v-52c0 -6 -4 -10 -10 -10h-163c-4 0 -6 -2 -6 -6v-137c0 -4 2 -6 6 -6h141c6 0 10 -4 10 -10v-52
c0 -6 -4 -10 -10 -10h-141c-4 0 -6 -2 -6 -6v-142c0 -4 2 -6 6 -6h163c6 0 10 -4 10 -10v-52c0 -6 -4 -10 -10 -10zM271 447l-108 -267h105c4 0 6 2 6 6v261h-3z" />
    <glyph glyph-name="aeacute.sc" horiz-adv-x="559" 
d="M520 0h-236c-6 0 -10 4 -10 10v93c0 4 -2 6 -6 6h-133l-40 -99c-3 -6 -7 -10 -13 -10h-60c-6 0 -9 4 -7 10l205 499c3 7 7 10 13 10h287c6 0 10 -4 10 -10v-52c0 -6 -4 -10 -10 -10h-163c-4 0 -6 -2 -6 -6v-137c0 -4 2 -6 6 -6h141c6 0 10 -4 10 -10v-52
c0 -6 -4 -10 -10 -10h-141c-4 0 -6 -2 -6 -6v-142c0 -4 2 -6 6 -6h163c6 0 10 -4 10 -10v-52c0 -6 -4 -10 -10 -10zM271 447l-108 -267h105c4 0 6 2 6 6v261h-3zM316 597h-40c-6 0 -8 4 -5 10l69 123c4 7 8 10 16 10h59c6 0 8 -5 5 -10l-87 -123c-6 -8 -9 -10 -17 -10z" />
    <glyph glyph-name="cacute.sc" horiz-adv-x="369" 
d="M200 597h-40c-6 0 -8 4 -5 10l69 123c4 7 8 10 16 10h59c6 0 8 -5 5 -10l-87 -123c-6 -8 -9 -10 -17 -10zM192 -9c-68 0 -115 35 -134 94c-7 24 -11 45 -11 175c0 129 4 150 11 174c19 59 66 94 134 94c77 0 131 -44 142 -126c1 -6 -2 -10 -8 -12l-53 -9
c-6 -1 -11 3 -12 9c-8 43 -30 66 -68 66c-31 0 -52 -15 -61 -45c-5 -15 -8 -31 -8 -151c0 -121 3 -137 8 -152c9 -30 30 -44 61 -44c38 0 60 22 68 66c1 6 6 9 12 8l53 -9c6 -2 9 -6 8 -12c-11 -82 -65 -126 -142 -126z" />
    <glyph glyph-name="ccircumflex.sc" horiz-adv-x="369" 
d="M192 -9c-68 0 -115 35 -134 94c-7 24 -11 45 -11 175c0 129 4 150 11 174c19 59 66 94 134 94c77 0 131 -44 142 -126c1 -6 -2 -10 -8 -12l-53 -9c-6 -1 -11 3 -12 9c-8 43 -30 66 -68 66c-31 0 -52 -15 -61 -45c-5 -15 -8 -31 -8 -151c0 -121 3 -137 8 -152
c9 -30 30 -44 61 -44c38 0 60 22 68 66c1 6 6 9 12 8l53 -9c6 -2 9 -6 8 -12c-11 -82 -65 -126 -142 -126zM304 597h-42c-7 0 -12 3 -17 10l-52 71h-2l-52 -71c-5 -7 -10 -10 -17 -10h-42c-6 0 -9 4 -5 10l82 123c4 7 9 10 17 10h36c8 0 13 -3 17 -10l82 -123
c4 -6 1 -10 -5 -10z" />
    <glyph glyph-name="ccaron.sc" horiz-adv-x="369" 
d="M210 596h-36c-8 0 -13 3 -17 10l-82 123c-4 6 -1 10 5 10h42c7 0 12 -3 17 -10l52 -71h2l52 71c5 7 10 10 17 10h42c6 0 9 -4 5 -10l-82 -123c-4 -7 -9 -10 -17 -10zM192 -9c-68 0 -115 35 -134 94c-7 24 -11 45 -11 175c0 129 4 150 11 174c19 59 66 94 134 94
c77 0 131 -44 142 -126c1 -6 -2 -10 -8 -12l-53 -9c-6 -1 -11 3 -12 9c-8 43 -30 66 -68 66c-31 0 -52 -15 -61 -45c-5 -15 -8 -31 -8 -151c0 -121 3 -137 8 -152c9 -30 30 -44 61 -44c38 0 60 22 68 66c1 6 6 9 12 8l53 -9c6 -2 9 -6 8 -12c-11 -82 -65 -126 -142 -126z
" />
    <glyph glyph-name="cdotaccent.sc" horiz-adv-x="369" 
d="M220 628h-63c-6 0 -10 4 -10 10v72c0 6 4 10 10 10h63c6 0 10 -4 10 -10v-72c0 -6 -4 -10 -10 -10zM192 -9c-68 0 -115 35 -134 94c-7 24 -11 45 -11 175c0 129 4 150 11 174c19 59 66 94 134 94c77 0 131 -44 142 -126c1 -6 -2 -10 -8 -12l-53 -9c-6 -1 -11 3 -12 9
c-8 43 -30 66 -68 66c-31 0 -52 -15 -61 -45c-5 -15 -8 -31 -8 -151c0 -121 3 -137 8 -152c9 -30 30 -44 61 -44c38 0 60 22 68 66c1 6 6 9 12 8l53 -9c6 -2 9 -6 8 -12c-11 -82 -65 -126 -142 -126z" />
    <glyph glyph-name="ccedilla.sc" horiz-adv-x="369" 
d="M102 -142l54 137c-49 10 -83 42 -98 90c-7 24 -11 45 -11 175c0 129 4 150 11 174c19 59 66 94 134 94c77 0 131 -44 142 -126c1 -6 -2 -10 -8 -12l-53 -9c-6 -1 -11 3 -12 9c-8 43 -30 66 -68 66c-31 0 -52 -15 -61 -45c-5 -15 -8 -31 -8 -151c0 -121 3 -137 8 -152
c9 -30 30 -44 61 -44c38 0 60 22 68 66c1 6 6 9 12 8l53 -9c6 -2 9 -6 8 -12c-10 -73 -53 -115 -116 -124l-45 -135c-3 -7 -8 -10 -16 -10h-48c-6 0 -9 4 -7 10z" />
    </font>
</defs>
</svg>
